<?xml version="1.0" standalone="no"?>
<!DOCTYPE svg PUBLIC "-//W3C//DTD SVG 20010904//EN"
 "http://www.w3.org/TR/2001/REC-SVG-20010904/DTD/svg10.dtd">
<svg version="1.0" xmlns="http://www.w3.org/2000/svg"
 width="681.000000pt" height="681.000000pt" viewBox="0 0 681.000000 681.000000"
 preserveAspectRatio="xMidYMid meet">
<metadata>
Created by potrace 1.14, written by Peter Selinger 2001-2017
</metadata>
<g transform="translate(0.000000,681.000000) scale(0.100000,-0.100000)"
fill="#000000" stroke="none">
<path d="M3105 6800 c4 -6 1 -17 -5 -25 -7 -8 -9 -15 -4 -15 5 0 3 -4 -4 -9
-7 -4 -14 -14 -16 -22 -4 -24 -38 -84 -52 -92 -8 -4 -14 -12 -14 -18 0 -15
-66 -74 -135 -122 -33 -23 -60 -40 -60 -39 0 1 -10 -1 -22 -4 -13 -4 -23 -11
-23 -16 0 -5 -5 -6 -10 -3 -6 4 -17 2 -24 -4 -7 -6 -42 -13 -77 -16 -35 -2
-66 -4 -69 -5 -3 0 -6 -17 -7 -37 -1 -21 -4 -56 -7 -78 -3 -22 -8 -56 -10 -75
-2 -19 -7 -60 -11 -90 -4 -30 -8 -68 -10 -85 -2 -16 -7 -50 -10 -75 -3 -25 -8
-65 -11 -90 -2 -25 -6 -61 -9 -80 -3 -19 -7 -57 -11 -85 -3 -27 -7 -63 -10
-80 -2 -16 -6 -48 -8 -70 -12 -103 -17 -142 -20 -165 -9 -64 -19 -156 -19
-170 0 -8 -4 -20 -9 -27 -5 -7 -5 -14 2 -18 6 -3 7 -12 3 -18 -9 -14 -8 -12
-17 -96 -4 -36 -9 -68 -12 -73 -3 -4 4 -8 15 -8 12 0 21 -4 21 -9 0 -5 8 -12
18 -15 9 -3 35 -24 57 -46 37 -36 72 -50 89 -33 3 4 16 8 28 10 12 2 25 8 29
14 3 6 9 10 13 9 6 -2 54 11 71 20 8 4 17 7 53 15 17 4 32 12 32 17 0 5 3 7 8
5 4 -3 18 0 32 6 14 5 33 12 43 14 10 1 28 8 40 15 12 7 27 13 32 13 10 1 25
7 70 25 35 14 60 23 70 25 6 0 19 5 30 9 49 19 81 31 88 32 4 1 10 3 15 4 4 1
10 2 15 1 4 0 7 3 7 9 0 6 3 9 8 9 4 -1 9 0 12 1 3 1 12 3 20 5 8 2 29 9 45
16 17 7 37 13 45 13 8 0 17 3 20 6 5 6 66 29 90 35 8 2 16 4 18 5 1 2 5 3 10
5 4 1 15 5 25 8 18 7 37 13 49 16 4 1 28 10 52 21 24 10 47 16 50 13 3 -4 6 0
6 7 0 7 3 11 6 8 3 -3 32 4 65 17 32 13 59 22 59 20 0 -2 12 2 27 10 15 8 30
12 35 9 4 -3 8 0 8 7 0 7 3 9 7 6 3 -4 11 -2 18 3 6 5 22 12 36 14 13 3 26 5
29 6 3 2 8 2 13 1 4 0 7 3 7 9 0 6 3 9 8 9 14 -3 72 14 72 21 0 3 7 7 15 8 8
1 22 3 30 4 8 1 15 6 15 11 0 6 3 7 7 4 3 -4 16 -1 27 6 12 8 29 13 39 11 9
-1 17 2 17 7 0 6 4 8 9 4 5 -3 16 1 24 9 8 8 17 13 20 10 3 -3 19 2 36 11 18
9 36 13 41 10 6 -3 10 -1 10 6 0 7 3 10 6 7 3 -4 17 0 31 7 15 8 30 12 35 9 4
-3 8 0 8 5 0 6 3 10 8 10 4 -1 10 0 15 1 4 1 12 4 17 5 6 1 11 3 13 5 1 1 11
3 22 5 11 2 21 9 23 15 2 5 7 8 12 5 4 -3 23 1 41 9 19 7 43 17 54 21 26 11
45 15 72 18 11 1 19 5 17 8 -5 9 26 20 37 13 5 -3 9 0 9 5 0 6 3 10 8 9 4 0
14 1 22 5 34 13 115 42 120 43 3 0 16 5 30 11 14 5 46 16 73 24 26 7 47 16 47
19 0 3 8 6 18 7 9 1 31 7 47 14 17 7 33 13 38 14 4 2 10 4 15 5 4 1 10 2 15 1
4 0 7 4 7 10 0 5 5 7 10 4 6 -4 18 -1 27 7 9 7 17 12 17 10 1 -3 20 2 54 15 9
3 20 5 25 5 4 -1 7 2 7 6 0 5 7 9 15 10 8 1 22 3 30 4 8 1 15 5 15 10 0 5 4 7
9 4 15 -10 46 22 48 51 1 15 4 44 6 63 l4 35 -86 28 c-47 15 -93 29 -101 31
-8 1 -22 6 -30 9 -12 5 -114 35 -142 43 -5 1 -9 2 -10 4 -2 1 -11 3 -20 5 -17
3 -111 32 -138 42 -8 3 -24 8 -35 10 -11 1 -29 7 -40 12 -11 5 -33 13 -50 17
-40 10 -45 11 -47 14 -2 1 -11 3 -20 5 -9 2 -54 15 -99 30 -46 14 -91 27 -101
28 -10 1 -18 5 -18 9 0 4 -13 8 -29 8 -17 0 -32 4 -35 9 -6 8 -73 26 -88 23
-5 -1 -8 2 -8 6 0 4 -8 8 -18 9 -10 1 -55 14 -101 28 -45 15 -88 28 -94 29
-26 4 -132 40 -137 46 -3 3 -14 6 -25 6 -11 0 -34 5 -50 11 -58 22 -70 26 -85
29 -21 4 -43 10 -60 17 -12 5 -120 37 -140 42 -4 1 -80 24 -100 30 -3 1 -12 4
-20 7 -24 9 -104 31 -115 32 -5 1 -12 4 -15 7 -6 7 -143 44 -152 41 -5 -1 -8
2 -8 7 0 5 -8 8 -17 7 -10 -2 -20 0 -23 5 -3 4 -17 9 -30 11 -14 2 -30 7 -36
10 -6 4 -21 9 -35 12 -13 2 -37 9 -52 15 -35 14 -40 14 -32 1z"/>
<path d="M2138 6568 c-10 -10 -18 -23 -18 -29 0 -5 -4 -8 -9 -4 -5 3 -21 -9
-36 -27 -15 -18 -24 -27 -20 -19 4 7 -29 -23 -74 -67 -44 -44 -81 -78 -81 -74
0 4 -5 -1 -11 -11 -6 -9 -14 -15 -20 -12 -5 4 -9 1 -9 -4 0 -14 -37 -51 -50
-51 -6 0 -9 -3 -8 -7 2 -5 0 -9 -4 -11 -5 -1 -37 -31 -73 -67 -37 -36 -68 -65
-71 -65 -3 0 -27 -22 -54 -50 -28 -27 -50 -47 -50 -45 0 2 -27 -23 -60 -56
-33 -32 -63 -59 -66 -59 -10 0 -53 -48 -47 -54 4 -3 0 -6 -8 -6 -8 -1 -32 -19
-54 -40 -22 -22 -43 -40 -47 -40 -5 0 -8 -7 -8 -15 0 -8 -3 -14 -7 -13 -5 2
-30 -19 -57 -45 -27 -26 -53 -47 -57 -47 -4 0 -11 -9 -14 -20 -4 -11 -10 -18
-14 -15 -4 2 -17 -6 -29 -18 -11 -12 -50 -49 -86 -82 -36 -33 -99 -92 -141
-131 -41 -40 -75 -70 -75 -69 0 2 -25 -21 -55 -50 -30 -30 -55 -53 -55 -51 0
2 -13 -9 -30 -24 -16 -15 -30 -33 -30 -39 0 -6 -6 -11 -12 -11 -7 0 -24 -11
-38 -25 -74 -73 -150 -143 -150 -139 0 3 -7 -1 -15 -10 -8 -8 -15 -20 -15 -26
0 -6 -4 -9 -9 -6 -19 12 -21 -27 -1 -44 11 -9 20 -22 20 -29 0 -6 4 -11 8 -11
4 0 23 -33 41 -74 l34 -73 106 3 c247 7 687 16 823 18 82 0 148 5 148 9 0 4 8
4 17 -2 10 -5 26 -5 40 0 15 5 23 5 23 -2 0 -6 6 -7 12 -3 7 5 49 9 93 10 44
1 83 2 86 3 10 2 30 52 24 61 -3 4 2 11 11 14 9 4 14 13 10 22 -3 8 -2 12 4 9
6 -3 10 -2 10 4 0 11 84 101 94 101 4 0 16 9 28 20 12 10 25 17 30 14 4 -3 8
-1 8 4 0 11 37 25 58 23 6 -1 12 3 12 10 0 6 7 9 15 6 18 -8 29 9 31 48 2 30
10 103 19 160 3 17 7 57 10 90 4 33 9 74 12 90 3 17 6 50 8 74 2 24 7 63 11
85 4 23 7 44 6 48 -1 4 3 42 9 85 6 43 12 94 14 113 5 39 12 97 21 168 7 53
10 74 19 152 3 30 7 66 10 80 2 14 7 54 10 90 4 36 9 74 12 85 8 39 9 74 1 69
-4 -3 -8 0 -8 5 0 6 -6 11 -13 11 -7 0 -23 9 -35 20 -12 11 -26 20 -32 20 -5
0 -10 5 -10 10 0 6 -11 15 -25 22 -13 6 -22 14 -20 18 11 17 -21 15 -37 -2z"/>
<path d="M5560 5647 c0 -4 -4 -5 -10 -2 -5 3 -10 2 -10 -3 0 -5 -6 -9 -12 -10
-27 -1 -61 -12 -72 -22 -7 -5 -16 -7 -19 -3 -4 3 -7 1 -7 -5 0 -6 -6 -9 -14
-6 -8 3 -17 0 -21 -5 -3 -6 -11 -9 -16 -6 -5 4 -9 1 -9 -6 0 -7 -3 -9 -7 -6
-3 4 -12 2 -20 -4 -7 -6 -13 -9 -13 -6 0 4 -20 -2 -44 -13 -24 -10 -47 -16
-50 -13 -3 4 -6 1 -6 -6 0 -7 -4 -10 -9 -6 -5 3 -12 1 -16 -5 -4 -6 -11 -8
-16 -4 -5 3 -16 0 -24 -6 -8 -7 -15 -9 -15 -4 0 5 -4 4 -8 -2 -4 -5 -34 -18
-67 -28 -33 -11 -65 -23 -71 -27 -6 -5 -14 -6 -17 -2 -4 3 -7 1 -7 -5 0 -6 -7
-9 -15 -6 -8 4 -15 1 -15 -7 0 -7 -3 -10 -6 -6 -4 3 -36 -5 -73 -19 -36 -14
-70 -27 -76 -28 -5 -1 -16 -5 -22 -9 -7 -5 -17 -6 -22 -3 -5 4 -11 1 -13 -4
-2 -6 -17 -13 -33 -16 -16 -3 -32 -8 -35 -12 -3 -4 -13 -8 -22 -10 -10 -1 -34
-10 -55 -19 -21 -9 -44 -16 -50 -14 -7 1 -13 -3 -13 -8 0 -6 -7 -8 -15 -5 -8
4 -15 1 -15 -5 0 -6 -7 -8 -15 -5 -8 4 -15 1 -15 -5 0 -6 -7 -8 -15 -5 -8 4
-15 1 -15 -6 0 -6 -4 -9 -9 -5 -5 3 -12 1 -16 -5 -4 -6 -11 -8 -16 -5 -5 4 -9
2 -9 -3 0 -5 -6 -9 -12 -10 -28 -1 -61 -12 -74 -23 -8 -6 -14 -9 -14 -5 0 4
-13 0 -30 -9 -16 -9 -30 -13 -30 -9 0 4 -6 1 -13 -5 -8 -6 -17 -8 -20 -4 -4 3
-7 1 -7 -5 0 -7 -3 -11 -7 -11 -19 4 -73 -15 -73 -24 0 -6 -3 -7 -7 -4 -3 4
-17 0 -31 -9 -13 -9 -21 -11 -17 -4 5 9 1 8 -16 -1 -24 -13 -43 -19 -66 -21
-7 -1 -13 -5 -13 -8 0 -7 -58 -24 -72 -21 -5 0 -8 -3 -8 -9 0 -6 -3 -9 -7 -9
-18 3 -73 -14 -73 -23 0 -5 -3 -7 -7 -5 -5 3 -19 0 -33 -6 -29 -12 -50 -18
-67 -19 -7 -1 -13 -5 -13 -10 0 -5 -4 -6 -10 -3 -5 3 -10 2 -10 -3 0 -5 -6 -9
-12 -10 -24 -1 -53 -10 -100 -30 -25 -11 -49 -18 -52 -15 -3 4 -6 2 -6 -4 0
-5 -6 -10 -12 -11 -13 -1 -48 -9 -58 -12 -3 -1 -8 -2 -12 -1 -5 0 -8 -3 -8 -9
0 -5 -6 -10 -14 -10 -8 0 -27 -5 -43 -12 -15 -6 -34 -10 -40 -9 -7 1 -13 -3
-13 -9 0 -6 -4 -8 -10 -5 -5 3 -10 1 -10 -5 0 -6 -6 -10 -12 -8 -16 3 -88 -21
-105 -35 -7 -5 -13 -6 -13 -2 0 4 -7 2 -15 -5 -8 -7 -15 -9 -15 -5 0 4 -6 2
-13 -4 -8 -6 -17 -8 -20 -4 -4 3 -7 1 -7 -6 0 -8 -7 -11 -15 -7 -8 3 -15 1
-15 -5 0 -6 -4 -8 -8 -5 -5 3 -22 -2 -38 -10 -16 -9 -30 -15 -32 -14 -2 1 -15
-2 -30 -8 -15 -6 -36 -13 -47 -18 -11 -4 -29 -9 -39 -11 -11 -2 -25 -8 -31
-13 -7 -5 -15 -7 -18 -3 -4 3 -7 1 -7 -6 0 -7 -3 -10 -7 -8 -12 7 -128 -39
-124 -49 12 -30 -20 -159 -44 -176 -6 -5 -4 -8 4 -8 11 0 12 -3 5 -10 -8 -8 3
-26 35 -59 93 -96 171 -185 171 -193 0 -5 5 -6 10 -3 6 3 10 3 10 -2 0 -14 47
-63 54 -56 3 3 6 1 6 -6 0 -6 17 -30 38 -52 20 -23 53 -58 72 -79 19 -20 52
-56 73 -79 21 -22 43 -41 48 -41 6 0 8 -4 5 -9 -3 -4 7 -19 22 -33 15 -14 61
-62 102 -107 41 -46 86 -95 100 -110 14 -15 61 -67 105 -115 78 -86 121 -132
219 -236 27 -28 62 -67 76 -85 15 -19 30 -32 34 -28 3 3 6 1 6 -6 0 -6 12 -24
28 -39 30 -31 190 -204 237 -257 41 -46 52 -58 67 -71 7 -6 40 -42 72 -79 55
-62 61 -66 90 -60 17 4 37 7 44 8 6 0 12 4 12 7 0 4 14 6 30 5 17 -1 33 1 36
6 3 5 12 5 22 0 33 -17 66 7 61 45 0 4 4 10 11 14 6 4 12 13 14 21 1 8 19 48
40 89 20 41 37 76 36 78 -2 15 2 22 12 16 7 -4 8 -3 4 4 -4 7 0 24 8 39 8 16
25 51 36 78 12 28 30 66 40 87 10 20 16 39 13 42 -4 3 -2 6 4 6 10 0 28 46 25
63 -1 4 1 7 6 7 4 0 13 15 20 33 8 17 23 52 35 76 12 25 22 47 23 50 0 3 11
29 24 56 13 28 23 53 22 58 -1 4 3 7 9 7 6 0 9 7 5 15 -3 8 -2 15 2 15 9 0 37
70 34 83 -1 4 2 7 7 7 9 0 34 54 36 80 0 8 7 14 14 12 7 -1 10 2 7 7 -4 5 3
26 15 45 11 20 18 36 14 36 -4 0 -2 7 5 15 7 8 9 15 6 15 -4 0 2 13 13 28 11
16 23 40 26 55 4 15 10 27 14 27 4 0 8 6 8 13 0 12 62 151 88 198 8 14 12 29
8 33 -3 3 -1 6 6 6 7 0 9 5 6 10 -3 6 -1 10 4 10 6 0 11 7 11 16 0 9 6 28 14
42 36 67 55 112 48 112 -4 0 -1 4 6 8 7 5 15 19 17 32 2 13 10 27 16 30 6 4
10 9 8 11 -1 2 11 33 27 69 16 36 28 68 26 73 -1 4 3 7 9 7 5 0 8 4 5 9 -3 5
1 14 9 21 8 7 13 16 10 20 -3 5 2 16 11 24 8 9 12 16 8 16 -3 0 -1 6 5 13 6 8
8 17 4 20 -3 4 -1 7 5 7 7 0 11 3 10 8 -2 8 34 92 78 179 17 34 26 59 20 56
-6 -4 -4 2 5 13 17 20 35 63 31 77 -1 4 3 7 9 7 5 0 7 5 4 10 -3 6 -2 10 4 10
6 0 14 12 17 26 4 14 17 46 30 70 12 23 24 51 26 61 2 10 9 24 16 31 7 8 10
18 7 23 -4 5 -2 9 2 9 8 0 29 48 34 75 1 6 9 16 18 23 9 8 10 10 2 7 -8 -5 -7
2 5 20 17 26 17 28 0 37 -35 20 -115 101 -126 129 -7 16 -16 26 -21 23 -5 -3
-9 2 -9 10 0 11 -8 15 -25 14 -14 -1 -25 -6 -25 -11z"/>
<path d="M6130 5381 c0 -4 -20 -5 -45 -3 -43 4 -47 2 -58 -27 -6 -17 -15 -31
-20 -31 -4 0 -6 -4 -2 -9 3 -5 1 -12 -5 -16 -6 -4 -8 -11 -5 -16 4 -5 1 -9 -5
-9 -6 0 -8 -4 -5 -10 3 -5 1 -10 -5 -10 -6 0 -8 -4 -5 -10 3 -5 1 -10 -4 -10
-6 0 -10 -3 -9 -7 2 -10 -17 -56 -42 -105 -11 -21 -17 -38 -14 -38 3 0 -4 -13
-15 -29 -11 -15 -18 -31 -14 -35 3 -3 1 -6 -6 -6 -7 0 -10 -4 -7 -8 3 -5 -4
-23 -15 -41 -11 -18 -17 -36 -14 -42 4 -5 2 -9 -2 -9 -8 0 -54 -98 -53 -113 0
-4 -6 -15 -15 -23 -8 -9 -13 -19 -10 -24 3 -4 -2 -13 -10 -20 -8 -7 -15 -18
-15 -26 0 -17 -33 -88 -43 -92 -4 -2 -5 -8 -1 -13 3 -5 1 -9 -3 -9 -5 0 -10
-10 -10 -22 -1 -13 -7 -24 -13 -26 -5 -2 -10 -8 -10 -14 0 -6 -16 -45 -37 -87
-20 -42 -37 -80 -38 -86 -6 -28 -18 -55 -26 -55 -5 0 -9 -3 -8 -7 2 -15 -14
-53 -22 -53 -5 0 -6 -7 -3 -15 4 -8 1 -15 -5 -15 -6 0 -10 -3 -9 -7 1 -5 -7
-26 -17 -48 -10 -22 -19 -42 -19 -45 -1 -3 -8 -16 -16 -30 -7 -14 -13 -26 -12
-28 1 -1 -9 -24 -22 -51 -14 -27 -22 -51 -19 -55 4 -3 1 -6 -5 -6 -7 0 -12 -4
-12 -9 0 -5 -12 -35 -27 -67 -15 -33 -28 -61 -29 -64 0 -3 -7 -18 -14 -35 -7
-16 -13 -33 -12 -37 1 -5 -2 -8 -8 -8 -5 0 -10 -9 -10 -20 0 -11 -5 -20 -10
-20 -6 0 -9 -3 -8 -7 1 -5 -5 -21 -12 -38 -7 -16 -13 -33 -12 -37 1 -5 -3 -8
-9 -8 -5 0 -7 -4 -4 -10 3 -5 1 -10 -4 -10 -6 0 -10 -3 -9 -7 1 -5 -11 -37
-27 -73 -17 -36 -29 -68 -27 -72 1 -5 -2 -8 -8 -8 -5 0 -10 -5 -10 -11 0 -5
-12 -36 -27 -67 -15 -31 -27 -59 -28 -62 0 -3 -11 -26 -23 -52 -48 -104 -62
-137 -62 -147 0 -6 -5 -11 -10 -11 -6 0 -9 -3 -8 -7 2 -9 -6 -29 -61 -145 -22
-49 -38 -88 -35 -88 2 0 -7 -18 -20 -39 -14 -21 -22 -42 -19 -45 4 -3 1 -6 -6
-6 -7 0 -9 -4 -6 -10 3 -5 2 -10 -4 -10 -6 0 -8 -7 -5 -15 4 -8 1 -15 -5 -15
-6 0 -11 -4 -11 -9 0 -5 -9 -28 -19 -52 -11 -24 -19 -47 -18 -50 1 -4 -5 -15
-14 -25 -15 -18 -15 -21 1 -46 9 -16 19 -26 22 -23 5 5 62 -93 63 -108 0 -18
31 -24 110 -21 46 1 89 5 94 9 6 3 11 1 11 -5 0 -6 5 -8 11 -5 9 6 222 14 524
18 55 1 105 5 112 10 6 4 14 4 17 -1 2 -4 28 -6 58 -5 86 5 475 16 570 16 85
0 87 1 93 26 12 47 67 151 88 166 12 8 17 15 12 15 -6 1 1 7 15 15 14 8 21 14
17 15 -20 0 104 85 125 85 3 0 10 3 14 8 4 4 18 7 31 7 13 0 23 2 23 4 0 3 -7
38 -16 78 -8 40 -17 82 -20 93 -9 47 -13 63 -24 110 -7 28 -13 57 -14 65 -1 9
-4 20 -7 25 -3 6 -5 19 -5 30 1 11 -1 22 -4 25 -5 4 -33 128 -46 195 -2 11
-10 47 -18 80 -8 33 -13 62 -10 64 2 2 0 9 -6 16 -5 6 -11 26 -13 45 -2 19 -7
42 -10 50 -3 8 -8 29 -11 45 -2 17 -10 53 -16 80 -7 28 -14 59 -15 70 -2 11
-4 20 -5 20 -2 0 -5 13 -13 60 -5 24 -27 116 -35 145 0 3 -4 24 -8 48 -3 23
-11 42 -16 42 -5 0 -6 5 -3 10 4 6 -3 49 -15 96 -11 47 -18 89 -15 94 4 6 2
10 -2 10 -5 0 -15 33 -22 73 -7 39 -18 78 -23 85 -7 8 -7 12 2 12 9 0 9 4 2
13 -7 9 -34 120 -57 237 -2 8 -8 34 -15 58 -6 24 -13 55 -15 70 -3 15 -9 44
-14 65 -5 20 -7 37 -5 37 3 0 -1 10 -7 22 -7 13 -14 36 -15 53 -2 16 -5 39 -8
50 -4 21 -34 146 -42 180 -3 11 -8 39 -11 62 -5 36 -9 42 -34 45 -16 3 -29 2
-29 -1z"/>
<path d="M1704 4461 c-4 -4 -203 -8 -646 -14 -120 -1 -218 -4 -218 -7 0 -3
-73 -5 -163 -4 -153 0 -206 -5 -199 -20 4 -8 -8 -65 -18 -86 -4 -8 -16 -32
-26 -53 -11 -21 -28 -48 -39 -60 -11 -12 -19 -23 -17 -24 5 -7 1 -26 -5 -20
-3 4 -15 -5 -25 -20 -10 -16 -18 -25 -18 -20 0 4 -8 -1 -18 -10 -41 -40 -77
-68 -84 -65 -5 1 -8 -3 -8 -9 0 -5 -4 -8 -10 -4 -5 3 -18 -2 -28 -12 -19 -18
-35 -25 -59 -26 -7 0 -13 -4 -13 -9 0 -5 -5 -6 -10 -3 -5 3 -16 3 -22 -2 -7
-4 -20 -8 -28 -8 -17 0 -22 -52 -7 -72 5 -7 7 -19 4 -27 -3 -8 -3 -17 1 -21 4
-4 7 -10 8 -13 0 -6 11 -58 20 -94 1 -5 3 -9 4 -10 1 -2 4 -12 5 -23 2 -11 10
-49 19 -85 9 -36 19 -76 22 -90 3 -14 14 -60 24 -104 11 -43 18 -82 15 -86 -3
-5 -1 -11 4 -14 4 -3 12 -25 16 -48 4 -24 9 -47 10 -53 1 -5 15 -66 31 -135
15 -69 31 -127 34 -130 3 -3 5 -12 5 -20 -1 -8 4 -34 11 -57 7 -24 10 -43 8
-43 -2 0 0 -10 5 -23 10 -25 23 -90 24 -119 1 -10 4 -18 7 -18 4 0 7 -6 7 -12
0 -15 22 -117 30 -138 3 -8 7 -22 8 -30 4 -32 27 -136 36 -160 4 -14 10 -38
13 -55 8 -43 29 -134 80 -350 3 -10 15 -69 20 -95 2 -8 6 -22 9 -30 3 -8 13
-46 21 -85 26 -123 46 -210 50 -221 3 -9 132 -11 141 -2 2 2 5 12 7 23 1 11 7
23 11 26 4 3 9 16 10 27 1 12 4 22 8 22 8 0 24 40 21 53 -1 4 2 7 8 7 5 0 10
7 10 15 0 8 4 23 10 33 15 28 48 107 47 112 -1 3 6 16 16 30 9 13 17 32 17 42
0 9 7 24 16 32 8 9 13 16 9 16 -3 0 0 10 7 23 7 12 13 24 13 27 1 3 9 23 19
45 34 77 39 90 38 98 -1 4 3 7 9 7 6 0 9 7 5 15 -3 8 -1 15 4 15 8 0 19 23 21
45 0 6 8 19 17 29 9 11 11 16 5 12 -17 -10 -16 -1 1 17 8 8 16 23 18 33 2 10
5 21 8 24 15 15 30 52 25 60 -4 6 -3 10 2 10 4 0 14 15 21 33 8 17 20 44 27
58 8 14 12 29 8 33 -3 3 -1 6 5 6 7 0 12 9 12 19 0 11 5 23 10 26 6 4 8 11 5
16 -4 5 -2 9 3 9 12 0 33 56 25 64 -4 3 -1 6 5 6 7 0 12 4 12 10 0 5 11 33 24
62 14 29 26 60 28 68 2 8 6 18 11 21 4 3 9 14 12 25 2 10 12 37 23 59 11 22
18 43 15 47 -2 5 -1 8 4 8 4 0 14 15 22 33 8 17 23 52 33 77 11 25 27 61 35
80 8 19 24 54 36 78 11 23 20 49 20 57 0 8 4 15 8 15 6 0 21 42 18 56 0 4 3
10 8 13 15 11 43 73 37 82 -3 5 0 9 6 9 6 0 8 5 5 10 -3 6 -1 10 4 10 6 0 10
3 9 8 0 4 6 23 15 43 9 20 17 42 19 50 2 8 5 16 8 19 15 15 30 52 25 60 -4 6
-3 10 2 10 4 0 14 15 22 33 7 17 24 56 38 84 13 29 22 56 19 61 -3 5 4 16 15
25 10 9 19 24 19 32 0 25 1 29 22 57 10 16 17 32 14 37 -4 5 -1 11 4 13 6 2
12 10 14 18 1 8 8 25 14 38 7 12 10 22 7 22 -4 0 1 7 9 16 9 8 14 19 11 24 -3
5 -1 11 5 15 6 4 8 11 5 16 -4 5 -3 9 2 9 8 0 26 36 37 75 4 14 -5 31 -29 57
-19 20 -35 41 -35 47 0 6 -4 11 -10 11 -5 0 -10 8 -10 18 -1 38 -27 56 -86 56
-31 1 -58 -1 -60 -3z"/>
<path d="M2375 4208 c-16 -5 -37 -12 -45 -15 -8 -3 -29 -7 -46 -8 -17 -1 -36
-5 -42 -9 -7 -4 -12 -3 -12 2 0 16 -41 1 -47 -17 -3 -9 -14 -35 -24 -58 -11
-23 -19 -47 -19 -52 0 -6 -4 -11 -8 -11 -5 0 -9 -6 -9 -12 -1 -20 -47 -122
-58 -130 -5 -4 -7 -8 -2 -8 4 0 1 -10 -8 -23 -8 -13 -12 -27 -8 -30 3 -4 1 -7
-5 -7 -7 0 -11 -3 -10 -7 0 -5 -6 -25 -15 -45 -10 -21 -17 -42 -17 -48 0 -5
-5 -10 -10 -10 -6 0 -9 -3 -8 -7 2 -10 -6 -29 -46 -118 -17 -38 -31 -72 -32
-75 0 -3 -10 -27 -22 -53 -12 -27 -22 -53 -22 -58 0 -5 -4 -9 -8 -9 -5 0 -9
-6 -9 -12 0 -7 -12 -37 -27 -67 -14 -30 -26 -60 -26 -67 0 -7 -7 -19 -15 -28
-9 -8 -14 -19 -13 -23 1 -4 -11 -35 -26 -68 -16 -33 -29 -66 -29 -72 0 -7 -4
-13 -9 -13 -4 0 -7 -3 -6 -7 1 -5 -10 -34 -25 -66 -14 -31 -27 -61 -28 -65 0
-4 -10 -24 -20 -44 -10 -21 -19 -44 -19 -53 0 -8 -4 -15 -9 -15 -5 0 -12 -11
-15 -24 -3 -13 -22 -59 -41 -102 -20 -44 -42 -92 -49 -109 -8 -16 -22 -48 -32
-70 -10 -22 -19 -42 -19 -45 -2 -8 -19 -47 -69 -159 -25 -57 -46 -110 -46
-117 0 -8 -4 -14 -10 -14 -5 0 -10 -5 -10 -10 0 -6 -7 -27 -17 -48 -9 -20 -17
-39 -18 -42 -5 -13 -26 -61 -54 -123 -17 -37 -31 -70 -31 -73 0 -13 -35 -79
-44 -86 -6 -4 -7 -8 -2 -8 4 0 1 -11 -8 -25 -9 -14 -14 -25 -11 -25 3 0 -6
-22 -20 -50 -14 -27 -22 -50 -19 -50 4 0 0 -8 -8 -17 -8 -10 -23 -42 -34 -70
-10 -29 -22 -53 -26 -53 -4 0 -7 -3 -6 -8 0 -4 -2 -15 -6 -24 -6 -13 2 -27 28
-53 20 -19 36 -32 36 -28 0 7 32 -29 69 -77 14 -19 30 -38 34 -41 5 -3 9 -10
10 -15 2 -10 37 -7 70 5 12 5 25 9 29 10 4 1 28 10 53 21 25 11 45 17 45 14 0
-2 12 2 28 9 15 8 35 13 45 12 9 -2 15 1 11 6 -3 5 2 10 10 10 24 2 30 4 42
11 6 4 21 9 35 12 13 2 40 11 60 20 20 8 39 12 43 9 3 -4 6 -1 6 6 0 7 4 10 9
6 5 -3 12 -1 16 5 4 6 11 8 16 5 5 -4 9 -1 9 5 0 6 5 8 10 5 6 -4 17 -1 25 5
8 7 15 10 15 6 0 -4 14 0 30 9 17 9 30 13 30 9 0 -4 7 -1 15 6 8 7 15 9 15 5
0 -4 6 -3 13 3 7 6 24 13 37 15 14 3 39 11 55 18 17 6 39 14 50 16 11 2 24 8
29 13 6 6 20 10 33 10 13 0 23 4 23 9 0 6 9 8 20 6 11 -2 20 0 20 4 0 5 15 12
33 16 17 4 34 8 37 9 3 1 11 5 18 9 6 5 12 6 12 2 0 -3 13 1 29 9 16 9 31 12
35 9 3 -4 6 0 6 7 0 7 3 11 6 8 3 -4 20 0 39 7 18 8 35 11 39 8 3 -4 6 -1 6 5
0 7 3 11 8 11 4 -1 10 0 15 1 18 6 24 8 55 15 17 4 32 12 32 17 0 5 6 8 13 5
6 -2 24 2 40 10 15 7 27 11 27 7 0 -4 7 0 17 7 9 8 19 13 22 13 7 -2 21 2 49
13 9 3 19 7 22 8 20 5 147 49 155 54 6 3 15 6 20 6 6 1 17 4 25 7 8 4 40 14
70 24 30 9 61 21 68 27 6 5 12 6 12 3 0 -4 9 -2 21 4 20 11 53 21 77 22 6 1
12 5 12 10 0 5 5 6 10 3 6 -3 10 -2 10 3 0 5 6 9 13 10 14 1 51 10 55 12 1 2
7 4 12 5 6 1 12 4 15 5 3 1 8 3 13 4 12 2 76 27 95 38 11 5 21 7 24 4 3 -3 15
0 27 6 11 7 24 13 29 14 4 1 9 3 12 4 3 1 10 4 15 5 6 1 12 4 15 5 8 4 17 7
53 15 17 4 32 12 32 17 0 5 4 7 9 3 5 -3 12 -1 15 4 4 5 17 8 31 7 13 -2 26 3
29 11 3 8 10 11 16 8 5 -3 10 -2 10 2 0 5 9 10 20 11 44 4 50 6 50 15 0 6 3 7
6 4 4 -3 15 -2 26 4 11 6 32 13 46 15 15 3 33 11 41 17 8 7 16 11 18 10 4 -4
1 -5 73 20 l65 23 7 54 c10 77 12 86 28 106 11 13 12 16 1 10 -9 -6 -8 0 4 17
16 25 16 26 -49 93 -36 36 -66 69 -66 71 0 2 -15 19 -32 37 -18 18 -76 79
-128 136 -154 168 -162 177 -232 251 -38 40 -68 74 -68 76 0 2 -26 31 -59 63
-32 33 -57 60 -55 60 2 0 -21 25 -51 55 -30 30 -55 56 -55 59 0 3 -18 23 -40
45 -22 22 -40 45 -40 51 0 6 -4 9 -8 6 -5 -3 -15 4 -23 15 -8 12 -40 48 -71
81 -32 33 -58 62 -58 64 0 2 -18 21 -40 42 -21 22 -36 42 -33 46 4 3 -1 6 -11
6 -9 0 -14 5 -11 10 3 6 -1 10 -9 10 -9 0 -16 4 -16 8 0 4 -18 27 -40 51 -22
23 -40 47 -40 52 0 5 -7 9 -16 9 -8 0 -12 5 -9 10 3 6 -1 10 -9 10 -9 0 -16 5
-16 11 0 7 -20 32 -45 56 -25 24 -45 45 -45 47 0 2 -21 26 -47 54 -96 99 -218
233 -221 243 -4 11 -8 11 -47 -3z"/>
<path d="M6157 2113 c-3 -3 -61 -6 -129 -8 -68 -2 -123 -4 -123 -4 0 -1 -88
-2 -195 -4 -108 -2 -201 -7 -208 -11 -7 -4 -12 -3 -12 3 0 6 -6 8 -12 6 -25
-9 -98 -11 -98 -3 0 5 -5 6 -11 2 -11 -6 -49 -8 -367 -15 -126 -3 -157 -8
-151 -23 4 -13 -24 -76 -35 -76 -5 0 -7 -3 -3 -6 7 -7 -2 -18 -54 -72 -46 -47
-79 -74 -79 -64 0 4 -4 2 -8 -3 -6 -10 -62 -35 -104 -49 -10 -3 -19 -13 -19
-23 -5 -66 -6 -79 -8 -83 -1 -3 -4 -30 -6 -60 -2 -30 -6 -84 -10 -120 -4 -36
-8 -81 -10 -100 -2 -19 -6 -66 -9 -105 -4 -38 -9 -94 -11 -123 -3 -30 -7 -75
-10 -100 -3 -26 -8 -76 -11 -112 -8 -91 -11 -135 -19 -215 -4 -38 -8 -88 -10
-110 -1 -22 -6 -71 -10 -110 -15 -133 -14 -138 23 -149 17 -5 32 -13 32 -18 0
-5 4 -7 8 -4 4 2 38 -17 75 -44 l66 -49 67 64 c36 36 68 65 70 65 2 0 26 21
53 48 27 26 84 79 126 117 101 93 137 125 236 217 46 43 102 93 124 113 22 19
36 35 31 35 -5 0 7 11 27 24 43 30 83 68 80 78 -2 5 0 7 5 6 4 -2 19 9 33 22
59 57 88 80 99 80 6 0 9 4 6 8 -4 7 27 42 38 42 3 0 29 24 59 53 111 106 209
197 213 197 10 0 69 65 66 73 -1 5 2 6 7 3 5 -4 19 6 30 20 12 15 21 24 21 21
0 -3 25 19 55 48 30 30 55 53 55 51 0 -1 34 29 74 68 41 39 109 103 152 141
142 129 167 155 161 162 -4 3 -7 2 -7 -3 0 -5 -12 14 -26 41 -15 28 -31 53
-36 56 -8 5 -187 4 -195 -1 -8 -5 -72 -3 -85 3 -9 3 -18 3 -21 0z"/>
<path d="M4070 1927 c-14 -6 -28 -16 -32 -22 -5 -6 -8 -6 -8 2 0 13 -50 -6
-50 -20 0 -5 -4 -6 -9 -3 -5 4 -22 1 -38 -5 -15 -6 -30 -11 -33 -11 -3 -1 -48
-16 -100 -35 -127 -45 -255 -86 -255 -82 -1 2 -12 -4 -26 -13 -15 -9 -42 -20
-63 -23 -20 -4 -36 -11 -36 -17 0 -5 -4 -7 -8 -4 -9 6 -79 -17 -123 -40 -22
-11 -29 -12 -29 -2 0 9 -3 10 -8 2 -7 -11 -111 -53 -142 -58 -8 -1 -28 -8 -45
-16 -16 -7 -34 -14 -40 -14 -19 -2 -90 -28 -99 -36 -5 -5 -15 -6 -22 -3 -8 3
-14 0 -14 -7 0 -7 -7 -10 -15 -6 -8 3 -21 -1 -29 -9 -7 -8 -16 -11 -20 -8 -3
3 -12 0 -21 -7 -8 -7 -15 -10 -15 -6 0 5 -17 0 -95 -30 -11 -4 -23 -6 -27 -6
-5 1 -8 -2 -8 -6 0 -4 -12 -9 -27 -10 -15 -1 -29 -5 -32 -10 -3 -4 -14 -8 -25
-10 -10 -2 -30 -8 -45 -14 -30 -13 -26 -12 -68 -22 -18 -4 -33 -12 -33 -17 0
-6 -4 -7 -10 -4 -5 3 -19 1 -31 -5 -11 -7 -32 -14 -46 -16 -14 -3 -39 -12 -54
-20 -16 -8 -29 -12 -29 -8 0 4 -7 1 -15 -6 -8 -7 -15 -9 -15 -5 0 4 -7 2 -15
-5 -8 -6 -19 -9 -25 -5 -5 3 -10 1 -10 -4 0 -6 -6 -11 -14 -11 -8 0 -25 -4
-38 -9 -13 -5 -27 -9 -32 -9 -5 0 -13 -6 -17 -14 -7 -10 -9 -10 -9 2 0 12 -2
12 -9 2 -4 -7 -18 -14 -29 -15 -12 -1 -22 -5 -22 -10 0 -5 -7 -7 -15 -4 -8 4
-17 2 -19 -2 -3 -5 -26 -14 -51 -21 -25 -7 -48 -16 -50 -21 -3 -4 -14 -6 -25
-4 -11 2 -20 0 -20 -4 0 -8 -118 -47 -137 -45 -7 1 -13 -2 -13 -6 0 -8 -31
-20 -60 -25 -8 -1 -24 -5 -35 -10 -74 -30 -91 -36 -119 -41 -17 -3 -34 -10
-38 -17 -4 -7 -8 -9 -8 -5 0 3 -36 -7 -79 -22 -44 -16 -82 -26 -85 -23 -3 4
-6 2 -7 -3 0 -5 -2 -18 -4 -29 -2 -11 -7 -44 -10 -72 -5 -51 -5 -53 22 -59 15
-3 35 -8 43 -12 8 -3 20 -6 25 -7 6 0 20 -6 33 -13 12 -7 22 -10 22 -7 0 2 23
-4 50 -15 28 -11 50 -17 50 -13 0 4 5 2 12 -5 7 -7 22 -12 34 -12 12 0 24 -4
26 -10 2 -5 18 -10 36 -12 17 -1 32 -5 32 -9 0 -4 15 -10 33 -14 35 -8 44 -11
52 -15 3 -1 8 -3 13 -4 4 -2 27 -8 52 -16 25 -7 48 -13 53 -12 4 1 7 -3 7 -10
0 -6 2 -9 5 -6 3 3 56 -12 117 -33 62 -21 116 -36 120 -33 4 3 8 0 8 -5 0 -6
3 -10 8 -9 4 0 14 -2 22 -5 38 -15 226 -71 233 -69 4 1 7 -2 7 -8 0 -6 3 -9 8
-8 4 1 27 -5 52 -12 25 -8 48 -14 53 -16 4 -1 9 -3 12 -4 3 -1 8 -3 13 -5 4
-1 14 -4 22 -8 8 -3 40 -13 70 -22 30 -9 63 -20 73 -26 10 -5 22 -7 27 -4 6 4
10 1 10 -4 0 -6 3 -10 8 -9 4 1 61 -15 127 -37 66 -22 122 -40 125 -40 3 -1
13 -5 22 -9 9 -4 25 -9 35 -11 10 -2 19 -4 21 -5 1 -2 5 -3 10 -4 4 -1 32 -10
62 -21 30 -11 57 -20 60 -20 3 -1 32 -10 65 -20 33 -11 62 -20 65 -20 3 -1 19
-7 35 -14 17 -7 39 -14 50 -15 11 -1 30 -8 43 -15 12 -6 22 -9 22 -5 0 3 7 1
15 -6 8 -7 15 -9 15 -5 0 4 6 3 13 -3 6 -6 14 -10 17 -10 16 0 67 -16 77 -24
7 -5 17 -7 23 -3 5 3 10 2 10 -3 0 -5 6 -9 13 -9 6 -1 26 -6 43 -11 35 -11 48
-6 52 21 6 34 41 107 52 107 6 0 9 4 6 8 -5 8 14 33 68 92 48 52 143 114 206
135 22 7 59 17 75 19 11 2 25 17 32 35 10 24 10 31 2 25 -8 -4 -9 -3 -5 5 4 6
9 33 11 59 2 26 4 47 4 47 1 0 4 25 6 55 4 61 15 186 21 240 2 19 6 69 9 110
3 41 7 86 10 100 2 14 7 66 11 115 10 128 12 150 14 150 1 0 8 72 15 165 2 30
4 55 5 55 2 0 7 61 14 162 l6 82 -35 17 c-19 9 -58 38 -86 65 -56 54 -53 53
-89 36z"/>
</g>
</svg>
