<?xml version="1.0" standalone="no"?>
<!DOCTYPE svg PUBLIC "-//W3C//DTD SVG 20010904//EN"
 "http://www.w3.org/TR/2001/REC-SVG-20010904/DTD/svg10.dtd">
<svg version="1.0" xmlns="http://www.w3.org/2000/svg"
 width="657.000000pt" height="657.000000pt" viewBox="0 0 657.000000 657.000000"
 preserveAspectRatio="xMidYMid meet">
<metadata>
Created by potrace 1.14, written by Peter Selinger 2001-2017
</metadata>
<g transform="translate(0.000000,657.000000) scale(0.100000,-0.100000)"
fill="#000000" stroke="none">
<path d="M1100 6554 c-156 -33 -356 -120 -500 -217 -103 -70 -265 -230 -344
-340 -118 -166 -206 -374 -240 -572 -14 -80 -16 -324 -16 -2135 0 -2178 -2
-2099 46 -2273 79 -285 272 -567 507 -741 145 -107 276 -171 472 -233 l90 -28
2170 0 2170 0 85 24 c378 107 672 334 863 666 51 89 92 186 134 320 l28 90 3
2140 c2 1897 1 2149 -13 2217 -51 254 -176 488 -366 683 -200 205 -446 343
-714 400 -102 21 -4274 21 -4375 -1z m4277 -430 c88 -18 199 -58 196 -71 -3
-16 -974 -1658 -982 -1661 -4 -1 -938 67 -2074 153 -1136 85 -2068 155 -2071
155 -3 0 -6 135 -6 300 0 330 7 390 61 530 86 223 275 425 493 526 64 29 182
65 256 77 14 2 931 5 2038 6 1796 1 2021 -1 2089 -15z m713 -624 c52 -155 50
-65 50 -2216 0 -1793 -2 -2013 -16 -2082 -37 -178 -128 -346 -259 -478 -127
-128 -259 -207 -430 -255 -76 -22 -99 -23 -485 -26 l-405 -3 -476 749 -476
749 1231 1820 c677 1002 1234 1818 1238 1814 3 -4 16 -36 28 -72z m-1699
-1467 c-250 -437 -1009 -1735 -1015 -1736 -5 -1 -262 385 -571 858 l-562 860
91 3 c99 3 1652 28 1909 31 148 1 157 0 148 -16z m-1619 -1808 l938 -1780
-1213 -3 c-1078 -2 -1221 -1 -1292 14 -179 35 -348 127 -481 259 -128 127
-206 258 -256 430 l-23 80 -3 1378 -2 1377 142 1 c79 0 370 7 648 14 278 7
527 12 555 11 l50 -1 937 -1780z"/>
</g>
</svg>
