<?xml version="1.0" standalone="no"?>
<!DOCTYPE svg PUBLIC "-//W3C//DTD SVG 20010904//EN"
 "http://www.w3.org/TR/2001/REC-SVG-20010904/DTD/svg10.dtd">
<svg version="1.0" xmlns="http://www.w3.org/2000/svg"
 width="200.000000pt" height="200.000000pt" viewBox="0 0 200.000000 200.000000"
 preserveAspectRatio="xMidYMid meet">
<metadata>
Created by potrace 1.14, written by Peter Selinger 2001-2017
</metadata>
<g transform="translate(0.000000,200.000000) scale(0.100000,-0.100000)"
fill="#000000" stroke="none">
<path d="M380 1770 c-8 -5 -35 -50 -142 -240 -11 -19 -49 -85 -85 -147 l-64
-112 142 -243 c78 -134 150 -254 160 -268 11 -14 88 -144 172 -290 l154 -265
291 0 292 0 27 49 c16 27 35 61 43 75 93 158 215 377 216 389 2 7 14 30 27 50
41 61 290 496 290 508 0 6 -64 122 -143 257 l-143 246 -614 -2 c-338 -1 -619
-4 -623 -7z"/>
</g>
</svg>
