<?xml version="1.0" standalone="no"?>
<!DOCTYPE svg PUBLIC "-//W3C//DTD SVG 20010904//EN"
 "http://www.w3.org/TR/2001/REC-SVG-20010904/DTD/svg10.dtd">
<svg version="1.0" xmlns="http://www.w3.org/2000/svg"
 width="790.000000pt" height="790.000000pt" viewBox="0 0 790.000000 790.000000"
 preserveAspectRatio="xMidYMid meet">
<metadata>
Created by potrace 1.14, written by Peter Selinger 2001-2017
</metadata>
<g transform="translate(0.000000,790.000000) scale(0.100000,-0.100000)"
fill="#000000" stroke="none">
<path d="M0 3950 l0 -3950 3950 0 3950 0 0 3950 0 3950 -3950 0 -3950 0 0
-3950z m4083 3252 c9 -8 31 -39 49 -70 17 -31 39 -69 48 -84 8 -14 28 -48 43
-75 16 -26 40 -69 55 -94 15 -25 46 -79 70 -120 24 -41 70 -119 102 -174 51
-88 101 -174 176 -304 11 -20 43 -74 71 -121 102 -172 158 -268 231 -395 41
-71 99 -170 128 -220 53 -91 131 -225 170 -293 12 -20 35 -59 52 -87 17 -27
63 -106 102 -175 39 -69 87 -150 105 -180 35 -56 42 -88 26 -105 -5 -6 -19
-28 -32 -50 -12 -22 -36 -64 -53 -94 -17 -29 -49 -86 -71 -126 -22 -40 -45
-79 -51 -86 -10 -13 -30 -48 -73 -128 -8 -14 -32 -57 -55 -96 -22 -38 -47 -82
-56 -97 -35 -62 -127 -223 -146 -257 -65 -111 -180 -311 -199 -346 -27 -49
-52 -92 -98 -170 -20 -33 -45 -78 -56 -100 -11 -22 -34 -62 -51 -90 -17 -27
-37 -63 -46 -80 -8 -16 -30 -55 -49 -85 -18 -30 -43 -73 -55 -95 -11 -22 -33
-61 -48 -86 -24 -41 -153 -267 -192 -337 -9 -15 -28 -48 -44 -74 -15 -26 -26
-58 -24 -70 l3 -23 1415 0 1415 0 -2 -28 c-1 -15 -12 -42 -24 -59 -13 -18 -31
-47 -41 -65 -67 -123 -92 -162 -107 -168 -8 -3 -651 -8 -1430 -11 -1163 -4
-1419 -3 -1432 8 -13 11 -84 125 -149 240 -8 15 -37 65 -65 113 -27 47 -57 98
-65 113 -9 15 -47 81 -86 147 -40 66 -90 152 -112 190 -22 39 -62 107 -89 153
-26 46 -55 95 -63 110 -9 15 -32 53 -50 85 -19 31 -46 77 -60 101 -22 39 -46
80 -110 187 -8 14 -37 64 -63 110 -26 46 -73 127 -104 179 -31 52 -65 111 -77
131 -12 20 -34 59 -50 85 -16 27 -37 63 -46 79 -9 17 -32 56 -51 89 -19 32
-45 77 -59 101 -14 23 -50 86 -80 140 -52 93 -79 123 -100 110 -5 -3 -37 -54
-70 -113 -34 -59 -98 -172 -145 -252 -80 -140 -254 -444 -305 -535 -14 -24
-59 -103 -100 -175 -41 -72 -86 -151 -100 -175 -14 -24 -58 -102 -98 -172 -41
-71 -110 -191 -154 -268 -44 -77 -90 -157 -102 -177 -11 -21 -55 -97 -96 -169
-41 -73 -87 -153 -102 -178 -15 -25 -37 -64 -48 -86 -60 -115 -93 -154 -123
-142 -16 6 -197 272 -197 290 0 12 80 176 114 232 23 40 34 59 131 229 28 49
60 105 71 125 12 20 33 56 46 81 14 25 49 86 78 135 29 50 64 110 77 135 13
25 34 61 46 81 12 20 47 81 77 134 75 132 195 343 280 489 55 95 170 295 198
346 11 19 35 61 53 94 19 32 52 91 74 131 22 40 45 79 51 86 7 8 19 30 28 49
29 65 91 154 115 166 17 9 177 12 580 13 306 0 945 4 1419 7 741 6 865 9 869
22 7 18 -14 60 -127 249 -18 32 -41 70 -50 86 -25 44 -112 195 -170 292 -53
90 -75 127 -127 218 -45 78 -93 160 -156 266 -15 25 -34 60 -43 76 -8 17 -30
55 -49 85 -32 52 -112 188 -145 248 -9 15 -36 61 -60 102 -55 93 -74 127 -95
165 -9 17 -31 55 -50 85 -18 30 -54 91 -79 135 -65 113 -89 154 -135 230 -23
37 -41 69 -41 72 0 3 -16 30 -35 59 -40 60 -42 69 -17 84 26 16 344 9 365 -8z"/>
</g>
</svg>
