<?xml version="1.0" standalone="no"?>
<!DOCTYPE svg PUBLIC "-//W3C//DTD SVG 20010904//EN"
 "http://www.w3.org/TR/2001/REC-SVG-20010904/DTD/svg10.dtd">
<svg version="1.0" xmlns="http://www.w3.org/2000/svg"
 width="729.000000pt" height="729.000000pt" viewBox="0 0 729.000000 729.000000"
 preserveAspectRatio="xMidYMid meet">
<metadata>
Created by potrace 1.14, written by Peter Selinger 2001-2017
</metadata>
<g transform="translate(0.000000,729.000000) scale(0.100000,-0.100000)"
fill="#000000" stroke="none">
<path d="M3340 7023 c0 -10 -7 -29 -16 -41 -8 -12 -12 -22 -7 -22 4 0 4 -4 -2
-8 -5 -4 -19 -23 -29 -42 -19 -35 -27 -45 -81 -101 -28 -29 -147 -116 -152
-111 -10 8 -23 0 -17 -10 4 -7 4 -10 0 -7 -4 4 -28 0 -54 -8 -26 -7 -69 -16
-97 -19 -27 -3 -51 -6 -53 -8 -3 -3 -5 -20 -17 -111 -2 -16 -6 -57 -10 -90 -3
-33 -7 -73 -10 -90 -3 -16 -7 -48 -9 -70 -3 -22 -8 -60 -12 -85 -4 -25 -8 -63
-9 -85 -2 -22 -4 -40 -5 -40 -1 0 -3 -11 -5 -25 -1 -14 -6 -50 -9 -80 -4 -30
-9 -73 -11 -95 -3 -22 -7 -58 -10 -80 -3 -22 -8 -58 -10 -80 -3 -22 -7 -53 -9
-70 -2 -16 -7 -61 -11 -100 -4 -38 -9 -79 -11 -90 -2 -11 -7 -45 -10 -75 -9
-95 -11 -107 -17 -117 -8 -13 2 -24 48 -54 22 -14 56 -42 76 -62 33 -33 38
-35 60 -23 13 7 26 13 29 13 40 9 69 19 85 29 11 7 23 13 28 14 4 0 8 0 10 1
1 0 9 2 17 4 8 2 29 9 45 16 33 14 54 20 73 21 6 1 12 5 12 10 0 5 5 6 10 3 6
-3 10 -3 10 2 0 4 12 9 26 10 15 0 30 7 35 15 5 7 9 9 9 4 0 -5 6 -3 13 3 8 6
16 8 20 5 3 -3 18 1 34 9 27 15 55 26 81 34 6 1 18 5 25 6 15 5 46 16 72 27
31 14 69 24 78 22 4 -1 7 3 7 8 0 6 6 10 13 9 6 -2 29 5 51 14 21 9 42 14 47
11 5 -3 9 0 9 5 0 6 3 10 8 9 4 -1 21 4 37 11 17 7 37 14 45 16 8 2 16 4 18 5
1 2 5 3 10 5 4 1 15 5 25 8 23 9 51 18 54 18 2 0 23 8 48 19 25 11 46 19 48
19 1 0 10 2 20 5 9 3 25 9 35 12 9 3 18 5 20 4 1 0 16 7 32 15 16 8 33 16 37
16 5 1 18 5 31 10 13 5 27 9 31 9 4 0 22 7 40 16 17 9 39 13 47 10 8 -3 13 -2
10 3 -4 5 16 15 44 22 27 7 50 17 50 21 0 5 4 7 8 4 5 -3 20 1 35 9 15 8 27
11 27 8 0 -3 10 1 23 9 12 8 30 14 40 12 9 -1 17 2 17 7 0 5 3 8 8 7 15 -3 62
14 62 24 0 5 6 8 13 6 6 -1 37 7 67 17 30 11 57 20 60 20 3 0 15 6 28 13 12 7
22 9 22 5 0 -4 5 -2 12 5 7 7 18 12 24 12 7 0 25 5 41 12 15 6 37 13 48 15 10
2 22 8 25 14 4 5 11 9 16 8 5 -1 12 0 17 1 4 1 10 3 15 5 17 5 48 17 65 26 10
5 22 7 26 4 5 -2 14 2 21 10 6 7 18 11 26 8 8 -3 14 0 14 6 0 6 3 10 8 9 4 -1
32 6 62 17 30 10 61 20 69 21 8 2 17 6 20 11 3 4 11 8 16 9 17 1 70 16 80 24
11 8 54 19 69 19 5 -1 12 4 16 11 4 6 17 12 28 13 12 1 22 5 22 10 0 4 5 5 10
2 6 -4 17 -1 25 5 8 7 15 9 15 5 0 -5 9 0 20 10 14 13 20 14 20 5 0 -9 6 -8
20 5 11 10 20 15 20 10 0 -4 6 -3 13 3 7 6 26 13 42 16 17 3 31 10 33 15 2 6
10 7 18 4 8 -3 15 1 15 8 1 14 5 48 12 106 4 29 1 33 -27 39 -17 4 -35 9 -41
10 -5 1 -36 12 -67 23 -32 11 -58 17 -58 14 0 -3 -8 1 -18 10 -10 10 -21 14
-25 11 -3 -3 -49 8 -101 26 -53 17 -100 29 -106 25 -5 -3 -10 -2 -10 4 0 5
-10 12 -22 16 -57 15 -104 28 -118 32 -8 2 -16 4 -18 4 -1 -1 -17 5 -36 13
-19 8 -37 12 -40 8 -3 -3 -6 0 -6 7 0 7 -4 10 -9 7 -5 -3 -34 3 -64 13 -30 11
-58 17 -61 14 -3 -4 -6 0 -6 7 0 7 -3 11 -6 8 -3 -4 -22 0 -41 8 -19 9 -38 13
-41 10 -3 -3 -11 -1 -17 4 -7 6 -24 11 -39 12 -14 1 -26 6 -26 10 0 4 -17 10
-37 14 -21 4 -54 13 -73 20 -19 8 -45 15 -57 17 -12 2 -26 6 -29 10 -4 4 -17
7 -29 7 -11 0 -25 4 -30 9 -6 5 -23 12 -40 14 -36 6 -138 39 -145 47 -3 3 -16
6 -30 8 -14 1 -32 5 -40 9 -8 3 -20 7 -26 8 -6 2 -58 17 -115 35 -57 17 -113
34 -124 38 -11 3 -24 7 -30 8 -5 2 -48 15 -95 30 -47 14 -91 26 -97 27 -7 0
-13 4 -13 9 0 5 -5 6 -10 3 -6 -4 -16 -2 -23 3 -7 6 -29 13 -49 17 -21 4 -38
12 -38 19 0 6 -5 4 -10 -4 -5 -8 -10 -10 -10 -4 0 6 -7 11 -15 12 -8 1 -22 3
-30 4 -8 1 -15 5 -15 9 0 4 -8 6 -17 5 -10 -2 -20 0 -23 5 -3 4 -17 9 -30 11
-14 2 -30 7 -36 10 -10 7 -40 14 -96 25 -23 4 -28 2 -28 -14z"/>
<path d="M2332 6764 c-29 -30 -55 -54 -57 -54 -3 0 -30 -25 -61 -55 -32 -30
-60 -55 -64 -55 -4 0 -13 -11 -20 -25 -7 -13 -16 -22 -21 -20 -4 3 -16 -6 -27
-20 -11 -14 -25 -25 -32 -25 -6 0 -8 -4 -5 -10 3 -5 2 -10 -3 -10 -5 0 -40
-29 -77 -65 -37 -36 -69 -65 -72 -65 -3 0 -24 -20 -49 -45 -24 -25 -45 -45
-48 -45 -2 0 -36 -31 -75 -69 -39 -38 -71 -68 -71 -66 0 2 -17 -13 -39 -33
-99 -94 -158 -149 -185 -169 -16 -13 -25 -23 -22 -23 4 0 -7 -12 -26 -27 -18
-15 -51 -45 -73 -65 -22 -21 -43 -38 -47 -38 -5 0 -8 -7 -8 -15 0 -8 -6 -14
-12 -12 -7 1 -12 -4 -11 -10 2 -7 -1 -12 -6 -10 -5 1 -23 -13 -40 -30 -17 -18
-31 -31 -31 -30 0 2 -28 -23 -62 -55 -34 -32 -65 -58 -70 -58 -5 0 -7 -4 -3
-9 3 -5 -4 -12 -15 -16 -11 -3 -20 -14 -20 -23 0 -15 -2 -15 -10 -2 -9 13 -10
13 -10 0 0 -8 -13 -25 -28 -37 -58 -47 -82 -71 -82 -82 0 -6 -5 -11 -11 -11
-7 0 -25 -13 -41 -30 -15 -16 -30 -30 -33 -30 -3 0 -34 -29 -70 -64 -36 -35
-65 -61 -65 -58 0 3 -9 -4 -20 -16 -17 -18 -19 -25 -8 -42 7 -11 16 -20 20
-20 5 0 8 -7 8 -15 0 -9 7 -18 15 -21 8 -4 15 -12 15 -18 0 -7 12 -37 28 -67
l27 -55 60 0 c33 0 63 4 67 10 6 8 8 8 8 0 0 -7 15 -10 38 -8 35 3 400 12 732
19 80 1 147 4 150 5 3 1 9 2 14 1 26 -5 86 -6 86 -1 0 3 43 5 95 5 l95 -1 27
55 c15 31 32 59 38 63 5 4 6 8 1 8 -13 0 106 110 120 110 6 0 14 7 18 15 3 8
17 15 31 15 14 0 25 4 25 10 0 5 7 7 15 4 8 -4 15 -1 15 6 0 7 7 10 15 7 19
-8 28 9 31 53 1 19 4 46 7 60 3 14 8 61 13 105 8 78 10 92 13 98 2 2 4 27 15
146 3 30 7 66 10 80 3 14 8 51 11 81 4 30 8 66 10 80 2 14 7 50 10 80 9 87 16
143 22 175 3 17 6 51 7 77 0 27 3 48 7 48 3 0 5 10 5 23 1 12 4 47 8 77 4 30
9 73 11 95 9 82 17 140 20 144 6 5 -22 31 -34 31 -6 0 -11 5 -11 10 0 6 -6 10
-13 10 -7 0 -28 14 -47 30 -52 45 -58 50 -67 49 -4 0 -32 -25 -61 -55z"/>
<path d="M5817 5899 c-10 -6 -30 -13 -45 -15 -14 -3 -29 -8 -32 -12 -3 -4 -12
-8 -20 -10 -31 -6 -336 -116 -348 -126 -7 -5 -23 -11 -35 -12 -12 -1 -74 -21
-137 -44 -63 -23 -149 -54 -190 -68 -41 -14 -78 -31 -82 -37 -4 -5 -8 -7 -8
-3 0 4 -36 -5 -79 -21 -44 -16 -82 -27 -85 -24 -3 3 -8 -2 -12 -11 -3 -9 -10
-14 -14 -11 -5 3 -57 -13 -115 -35 -59 -22 -111 -38 -115 -35 -5 3 -10 -1 -12
-7 -3 -7 -13 -14 -24 -14 -31 -3 -64 -16 -64 -26 0 -5 -4 -6 -10 -3 -5 3 -24
-1 -42 -9 -18 -8 -52 -20 -75 -27 -24 -7 -43 -16 -43 -20 0 -5 -7 -6 -16 -2
-11 4 -22 -1 -30 -12 -8 -10 -14 -16 -14 -12 0 7 -80 -16 -134 -38 -20 -8 -38
-15 -41 -16 -5 0 -160 -56 -185 -66 -8 -3 -19 -7 -25 -9 -33 -9 -193 -67 -215
-79 -15 -8 -30 -12 -33 -9 -3 3 -16 0 -28 -7 -13 -6 -91 -36 -174 -65 -82 -29
-195 -69 -250 -89 -55 -20 -113 -41 -130 -46 -48 -15 -53 -21 -59 -79 -7 -60
-23 -118 -38 -137 -11 -14 14 -63 32 -63 5 0 12 -9 15 -20 4 -11 11 -18 16
-15 5 4 9 2 9 -4 0 -6 14 -24 30 -41 17 -17 30 -36 30 -42 0 -6 3 -9 6 -5 3 3
24 -15 46 -41 23 -26 54 -59 69 -74 16 -16 28 -28 26 -28 -3 0 126 -140 209
-227 28 -29 50 -53 48 -53 -4 0 26 -32 159 -170 20 -22 37 -44 37 -50 0 -5 8
-10 17 -10 9 0 14 -3 11 -6 -3 -3 9 -20 28 -38 19 -18 34 -38 34 -45 0 -6 6
-11 14 -11 7 0 21 -11 29 -24 9 -12 35 -43 59 -68 24 -25 68 -74 98 -108 30
-34 64 -69 74 -78 10 -9 26 -25 35 -35 9 -11 31 -35 49 -55 17 -20 32 -40 32
-44 0 -4 7 -8 15 -8 8 0 15 -4 15 -10 0 -5 14 -23 30 -40 17 -17 30 -35 30
-40 0 -6 7 -10 15 -10 8 0 15 -4 15 -8 0 -5 27 -37 60 -71 33 -35 60 -64 60
-66 0 -2 27 -31 60 -65 33 -34 60 -66 60 -71 0 -6 5 -7 10 -4 6 3 10 1 10 -5
0 -13 50 -65 70 -72 8 -3 26 -1 40 4 42 16 63 20 120 21 46 2 56 6 66 24 6 13
14 20 19 15 5 -4 5 -2 2 4 -4 7 13 55 38 107 25 53 45 101 45 107 0 5 4 10 8
10 5 0 9 6 9 13 0 6 19 52 42 100 22 49 41 90 41 92 0 1 17 41 39 87 21 45 49
106 61 133 32 71 100 223 136 300 56 124 91 202 103 233 8 17 18 32 23 32 5 0
7 3 4 8 -2 4 6 30 19 57 13 28 24 56 24 63 1 6 6 12 13 12 6 0 9 3 6 6 -5 5
64 168 92 216 6 10 10 25 10 33 0 8 5 15 10 15 6 0 10 8 10 18 0 9 7 26 15 36
8 11 15 26 15 33 0 8 8 25 17 40 10 14 18 31 19 37 1 6 20 49 42 96 21 47 52
114 68 150 15 36 33 68 39 72 5 4 7 8 3 8 -4 0 9 35 28 78 61 133 80 175 110
242 15 36 32 68 37 71 5 3 8 9 7 13 -4 11 73 180 85 188 5 4 7 8 2 8 -4 0 0
11 9 25 9 14 13 25 8 25 -4 0 -3 5 4 12 14 14 16 52 2 43 -5 -3 -15 3 -22 15
-7 11 -16 20 -21 20 -10 0 -57 46 -57 56 0 4 -8 14 -18 23 -9 9 -23 28 -31 44
-16 30 -18 31 -44 16z"/>
<path d="M6345 5622 c-55 -3 -87 -15 -83 -30 1 -4 -7 -25 -17 -47 -10 -22 -19
-46 -21 -54 -1 -8 -9 -18 -16 -22 -7 -5 -9 -9 -3 -9 5 0 4 -5 -3 -12 -7 -7
-12 -20 -12 -29 0 -10 -5 -19 -10 -21 -6 -2 -12 -13 -13 -26 0 -12 -5 -22 -10
-22 -4 0 -5 -4 -2 -10 3 -5 2 -10 -2 -10 -9 0 -39 -71 -34 -79 2 -2 -1 -7 -6
-10 -15 -10 -43 -73 -37 -82 3 -5 1 -9 -4 -9 -9 0 -25 -37 -23 -52 1 -5 -3 -8
-9 -8 -5 0 -10 -9 -10 -20 0 -11 -4 -20 -10 -20 -6 0 -9 -3 -9 -7 1 -5 0 -11
-1 -15 -1 -5 -3 -11 -5 -15 -1 -5 -16 -38 -33 -75 -18 -36 -32 -71 -32 -77 0
-6 -4 -11 -10 -11 -5 0 -9 -3 -8 -7 1 -9 -6 -29 -55 -135 -20 -43 -33 -78 -29
-78 4 0 2 -4 -4 -8 -14 -10 -64 -119 -57 -126 3 -3 -1 -8 -10 -12 -9 -3 -13
-12 -10 -20 3 -8 0 -14 -6 -14 -6 0 -10 -3 -9 -7 1 -5 -7 -26 -17 -48 -10 -22
-19 -42 -20 -45 -1 -3 -8 -18 -15 -35 -7 -16 -13 -33 -12 -37 1 -5 -2 -8 -6
-8 -8 0 -37 -71 -33 -79 2 -2 -1 -7 -6 -10 -12 -9 -53 -99 -53 -116 0 -8 -4
-15 -10 -15 -5 0 -10 -7 -10 -15 0 -8 -9 -31 -19 -52 -43 -84 -89 -192 -83
-197 3 -3 0 -6 -6 -6 -7 0 -12 -4 -12 -9 0 -6 -17 -47 -39 -93 -21 -46 -39
-87 -40 -93 -2 -5 -7 -16 -13 -22 -6 -7 -7 -13 -3 -13 5 0 0 -9 -11 -21 -10
-12 -18 -23 -16 -25 1 -2 -5 -21 -14 -42 -10 -20 -16 -40 -16 -44 1 -5 -3 -8
-10 -8 -6 0 -8 -3 -5 -7 4 -3 2 -12 -4 -20 -6 -7 -8 -13 -3 -13 5 0 5 -4 -1
-8 -12 -8 -51 -88 -60 -122 0 -3 -11 -24 -23 -47 -12 -23 -22 -49 -22 -58 0
-8 -4 -15 -10 -15 -5 0 -10 -4 -10 -9 0 -5 -5 -22 -12 -38 -6 -15 -11 -31 -10
-35 1 -5 -2 -8 -8 -8 -5 0 -10 -5 -10 -10 0 -6 -18 -49 -40 -96 -22 -48 -43
-97 -46 -110 -3 -13 -9 -24 -13 -24 -4 0 -8 -13 -9 -30 -2 -21 2 -30 13 -30 8
0 15 -4 15 -10 0 -5 8 -18 18 -28 16 -16 45 -68 46 -84 1 -3 5 -10 9 -15 11
-11 207 -10 207 1 0 5 6 3 13 -3 8 -6 17 -8 20 -4 6 6 168 11 509 16 69 1 129
5 132 8 4 3 24 3 45 -1 22 -4 46 -3 54 2 10 5 18 4 22 -2 4 -6 11 -7 18 -3 10
6 205 12 474 16 89 1 92 2 98 26 8 31 55 131 69 148 35 41 66 72 66 65 0 -4 5
1 11 10 9 16 95 73 111 73 3 0 10 3 14 8 4 4 18 7 31 7 22 0 23 3 17 38 -4 20
-8 44 -9 52 -1 8 -5 22 -8 30 -7 16 -16 60 -21 95 -2 11 -6 27 -9 35 -5 13
-18 74 -42 190 -2 14 -12 57 -21 95 -8 39 -18 81 -20 95 -3 14 -9 41 -14 60
-5 19 -11 46 -14 60 -3 14 -10 44 -16 68 -6 24 -8 47 -5 53 4 5 2 9 -3 9 -5 0
-12 17 -15 38 -5 36 -10 58 -55 257 -25 107 -33 145 -36 165 -1 8 -5 24 -9 35
-3 11 -8 31 -11 45 -2 14 -9 44 -14 68 -5 23 -8 42 -6 42 3 0 0 8 -5 18 -5 9
-12 33 -15 52 -3 19 -8 46 -12 60 -3 14 -7 34 -8 46 -1 11 -5 25 -9 31 -4 5
-8 25 -11 44 -2 19 -9 53 -15 77 -7 24 -14 55 -16 70 -2 15 -8 42 -14 60 -5
18 -10 35 -10 37 -1 3 -1 6 -2 8 0 1 -2 11 -4 22 -2 11 -11 52 -20 90 -9 39
-17 82 -19 96 -1 14 -6 31 -10 38 -4 6 -10 27 -12 46 -3 29 -19 102 -50 230
-3 11 -8 37 -11 57 -3 21 -11 41 -17 45 -6 5 -38 7 -71 5z"/>
<path d="M1947 4703 c-2 -1 -576 -14 -604 -14 -38 1 -68 1 -168 -3 -60 -2
-186 -4 -278 -6 -175 -2 -173 -1 -182 -47 -2 -10 -4 -18 -5 -18 -1 0 -3 -7 -5
-16 -3 -19 -36 -92 -44 -99 -4 -3 -12 -16 -19 -30 -27 -52 -160 -178 -185
-174 -9 1 -17 -1 -17 -5 0 -6 -39 -30 -60 -36 -22 -7 -59 -17 -71 -19 -41 -8
-52 -25 -38 -56 1 -3 3 -9 4 -15 2 -5 4 -12 5 -15 1 -3 4 -18 6 -35 3 -16 11
-51 19 -78 8 -26 14 -49 15 -52 0 -3 0 -6 1 -7 2 -6 7 -35 12 -63 3 -16 8 -37
11 -45 3 -8 8 -28 11 -45 15 -77 18 -89 28 -115 3 -8 5 -22 6 -30 0 -16 8 -55
12 -55 1 0 3 -9 4 -20 1 -11 7 -38 13 -60 6 -22 14 -52 17 -67 3 -16 7 -40 10
-55 3 -16 11 -46 17 -68 5 -22 12 -49 15 -60 2 -11 7 -31 10 -45 3 -14 7 -32
8 -40 1 -8 5 -22 8 -30 4 -8 8 -28 11 -45 2 -16 5 -30 6 -30 2 0 4 -9 6 -20 3
-24 11 -61 18 -83 3 -9 7 -28 10 -42 6 -29 10 -49 25 -110 7 -25 14 -56 17
-70 2 -14 7 -33 10 -42 6 -19 13 -51 19 -88 6 -34 13 -65 15 -65 2 0 10 -34
15 -65 2 -14 15 -70 29 -125 13 -55 22 -103 20 -107 -3 -5 -1 -8 5 -8 5 0 8
-8 6 -17 -1 -10 0 -22 4 -28 3 -5 7 -19 9 -30 5 -26 8 -37 15 -55 3 -8 8 -31
11 -50 2 -19 5 -35 6 -35 2 0 5 -15 13 -58 3 -15 8 -35 11 -45 3 -9 7 -28 10
-42 3 -14 9 -40 15 -59 6 -19 8 -37 6 -42 -3 -4 -1 -10 4 -13 5 -4 8 -14 7
-23 -4 -24 16 -42 34 -33 8 4 37 6 63 4 47 -2 49 -2 64 34 8 20 23 55 33 77
10 22 42 94 70 160 52 120 73 167 110 248 46 103 102 233 104 242 1 6 16 39
33 75 16 36 45 101 64 145 18 44 36 82 39 85 3 3 6 10 7 16 1 7 14 38 28 70
15 33 33 75 42 94 8 19 28 62 43 95 15 33 34 77 41 98 7 20 17 37 23 37 5 0 7
3 4 6 -4 3 5 31 19 62 14 31 34 77 45 102 32 72 58 131 98 225 8 17 13 33 12
38 -1 4 3 7 8 7 6 0 10 7 10 15 0 8 4 23 10 33 11 21 70 152 70 157 0 2 14 34
32 72 17 37 32 73 33 79 2 6 15 37 30 70 33 72 47 104 76 169 11 28 29 68 39
90 10 22 21 50 24 63 4 12 11 22 15 22 4 0 8 7 9 15 1 8 3 22 4 30 1 8 5 15 9
15 22 0 16 34 -11 60 -17 16 -30 34 -30 39 0 6 -7 14 -16 19 -8 5 -16 15 -18
23 -1 8 -8 26 -15 40 -12 25 -18 27 -73 25 -33 0 -60 -2 -61 -3z"/>
<path d="M2620 4448 c-31 -13 -70 -20 -132 -22 -27 0 -48 -5 -48 -9 0 -5 -5
-5 -12 -1 -6 4 -8 3 -5 -3 3 -5 -3 -24 -14 -42 -11 -18 -15 -30 -10 -27 5 3 4
-5 -2 -19 -7 -14 -15 -25 -19 -25 -5 0 -8 -9 -8 -19 0 -11 -5 -23 -10 -26 -6
-4 -8 -11 -5 -16 4 -5 1 -9 -5 -9 -6 0 -8 -4 -5 -10 3 -5 1 -10 -5 -10 -6 0
-9 -4 -5 -9 3 -5 1 -12 -5 -16 -5 -3 -10 -15 -10 -26 0 -10 -4 -19 -10 -19 -6
0 -9 -3 -8 -7 1 -5 -3 -18 -10 -29 -6 -12 -8 -24 -5 -28 3 -3 1 -6 -5 -6 -7 0
-11 -3 -10 -7 0 -5 -7 -26 -17 -48 -10 -22 -19 -42 -20 -45 0 -3 -6 -14 -12
-25 -6 -11 -11 -23 -12 -28 0 -4 -15 -37 -32 -75 -17 -37 -32 -71 -33 -77 -2
-5 -13 -31 -24 -57 -49 -108 -61 -138 -54 -138 4 0 2 -4 -4 -8 -6 -4 -28 -47
-49 -97 -21 -49 -41 -92 -44 -95 -3 -3 -6 -9 -7 -15 -2 -21 -17 -55 -23 -55
-4 0 -8 -6 -8 -12 0 -7 -13 -40 -28 -73 -16 -33 -29 -62 -29 -65 -3 -12 -61
-146 -66 -150 -3 -3 -6 -10 -7 -15 -1 -9 -26 -66 -78 -180 -8 -16 -11 -33 -9
-37 3 -4 1 -8 -5 -8 -5 0 -13 -10 -17 -22 -3 -13 -15 -41 -25 -63 -37 -84 -52
-120 -51 -127 1 -5 -2 -8 -8 -8 -6 0 -9 -3 -8 -7 1 -5 -6 -25 -15 -47 -9 -21
-17 -42 -17 -47 0 -5 -5 -9 -12 -9 -6 0 -9 -3 -6 -6 4 -3 -7 -35 -24 -72 -43
-94 -51 -116 -50 -124 1 -5 -2 -8 -8 -8 -6 0 -9 -3 -8 -7 1 -9 -21 -64 -78
-188 -15 -33 -27 -66 -27 -72 0 -7 -3 -13 -7 -13 -7 0 -35 -71 -32 -83 1 -4
-2 -7 -8 -7 -5 0 -10 -9 -10 -20 0 -11 -5 -20 -10 -20 -6 0 -9 -3 -8 -7 1 -9
-13 -47 -39 -101 -15 -32 -15 -33 13 -57 58 -50 124 -120 130 -137 3 -10 10
-18 15 -18 5 0 8 -5 7 -12 -3 -13 20 -18 37 -9 6 3 16 7 23 8 31 7 40 10 87
27 28 10 58 22 68 27 10 5 22 7 27 4 6 -4 10 -1 10 5 0 6 4 9 9 5 5 -3 12 -1
16 5 4 6 11 8 16 5 5 -4 9 -2 9 4 0 5 8 8 18 7 9 -2 19 0 22 5 3 4 17 10 30
13 14 2 41 11 61 20 20 8 39 12 43 9 3 -4 6 -1 6 5 0 7 3 11 8 10 13 -3 97 26
104 37 4 5 8 7 8 2 0 -4 16 -1 35 7 19 8 35 12 35 9 0 -3 6 0 13 6 8 6 17 8
20 4 4 -3 7 -2 7 3 0 5 12 11 27 12 15 1 30 8 35 15 4 6 8 8 8 3 0 -5 7 -3 15
4 8 6 19 9 25 5 5 -3 10 -1 10 5 0 6 4 9 8 6 5 -3 20 1 35 9 14 7 28 11 31 7
3 -3 6 0 6 5 0 6 8 10 18 9 9 -2 19 0 22 3 6 8 122 45 133 43 4 -1 7 2 7 6 0
4 9 8 19 9 11 1 38 11 60 21 23 11 38 16 35 10 -4 -5 4 -4 17 3 24 13 43 19
67 21 6 1 12 5 12 10 0 4 11 8 25 8 14 0 25 4 25 8 0 5 6 9 13 10 14 1 51 10
55 12 1 2 5 3 10 5 4 1 15 5 25 8 9 4 25 10 35 14 9 3 20 7 25 8 4 2 8 3 10 5
1 1 9 3 17 5 8 2 34 10 57 18 22 9 44 13 47 10 3 -4 6 -1 6 6 0 7 5 9 10 6 6
-3 10 -2 10 4 0 5 8 8 18 7 9 -2 19 0 22 3 3 3 73 29 155 56 83 28 153 55 157
60 4 6 8 7 8 2 0 -4 16 -1 35 7 19 8 35 13 35 10 0 -3 10 1 23 8 12 7 28 11
35 10 6 -2 12 2 12 8 0 5 3 9 8 9 4 -1 9 0 12 1 3 1 13 3 23 5 10 2 26 7 35
11 9 4 20 8 25 9 4 2 9 4 12 5 3 1 10 4 15 5 6 1 12 4 15 5 8 4 17 7 53 15 17
4 32 12 32 17 0 5 4 7 9 3 5 -3 12 -1 16 4 3 6 12 8 20 4 8 -3 15 0 15 6 0 6
3 10 8 10 4 -1 9 0 12 1 3 1 13 3 23 5 10 2 26 7 35 11 9 4 19 8 22 8 29 5
157 53 162 61 4 6 8 7 8 3 0 -5 24 1 53 13 28 11 58 21 65 22 10 0 19 64 13
100 0 4 4 7 10 7 5 0 7 5 4 10 -4 6 -1 17 5 25 7 8 10 15 6 15 -4 0 0 13 8 29
15 28 15 29 -39 86 -30 31 -55 59 -55 61 0 3 -106 117 -192 206 -20 21 -35 38
-34 38 3 0 -56 64 -169 183 -25 26 -45 52 -45 57 0 6 -7 10 -15 10 -8 0 -15 3
-15 8 0 7 -36 48 -156 176 -41 43 -74 80 -74 81 0 2 -22 27 -50 55 -27 28 -50
53 -50 54 0 2 -26 30 -57 63 -32 33 -94 100 -138 148 -44 48 -100 109 -125
135 -25 25 -47 51 -49 56 -1 5 -7 8 -12 6 -5 -1 -9 2 -9 7 0 5 -17 27 -37 49
-21 22 -72 77 -113 122 -41 45 -90 98 -108 116 -19 19 -32 34 -29 34 2 0 -16
20 -41 45 -24 25 -45 45 -46 44 0 0 -12 -5 -26 -11z"/>
<path d="M6460 2354 c0 -5 -69 -9 -153 -10 -279 -2 -585 -11 -596 -18 -6 -4
-11 -2 -11 4 0 7 -6 8 -18 1 -11 -6 -24 -6 -35 0 -9 6 -17 6 -17 2 0 -5 -9 -9
-20 -9 -11 0 -20 4 -20 9 0 4 -6 5 -12 0 -7 -4 -96 -9 -198 -10 -102 -1 -187
-3 -190 -4 -3 -1 -21 -2 -40 -4 -56 -4 -60 -5 -57 -13 4 -13 -26 -82 -35 -82
-5 0 -7 -4 -4 -9 3 -5 -1 -12 -9 -15 -8 -3 -14 -9 -13 -13 7 -22 -161 -151
-176 -136 -3 4 -6 1 -6 -5 0 -7 -3 -11 -7 -10 -16 4 -53 -14 -54 -25 0 -7 -2
-25 -4 -42 -4 -31 -15 -160 -20 -230 -2 -22 -4 -40 -5 -40 -2 0 -12 -130 -14
-177 0 -27 -3 -48 -6 -48 -3 0 -6 -17 -6 -37 -1 -21 -4 -69 -8 -108 -12 -133
-16 -170 -20 -230 -3 -33 -8 -85 -11 -115 -11 -99 -18 -184 -19 -223 -1 -20
-3 -37 -6 -37 -3 0 -5 -21 -4 -46 1 -38 5 -47 27 -59 14 -7 28 -11 31 -7 3 3
6 0 6 -7 0 -7 4 -10 8 -7 4 2 38 -17 74 -44 l66 -49 60 57 c34 31 91 84 127
117 36 33 84 77 106 98 21 20 44 37 50 37 5 0 8 4 4 9 -3 6 4 15 16 21 12 7
50 41 85 76 35 35 64 62 64 59 0 -2 22 17 49 43 96 94 163 152 172 152 6 0 7
5 4 10 -3 6 -2 10 2 10 13 0 78 62 76 72 -2 4 1 7 6 5 5 -1 25 15 45 35 20 20
36 35 36 32 0 -2 20 16 44 41 25 25 48 45 51 45 3 0 18 14 32 30 13 17 29 27
34 24 5 -3 8 -1 7 3 -2 5 19 29 46 54 27 24 67 61 88 82 21 20 43 37 48 37 6
0 10 7 10 15 0 8 5 15 10 15 6 0 36 25 66 55 31 30 58 55 60 55 2 0 27 23 54
50 28 28 50 49 50 46 0 -2 34 29 75 69 41 40 75 71 75 68 0 -2 7 2 15 11 8 8
15 19 15 25 0 6 4 10 8 8 5 -1 31 19 58 44 27 26 69 65 92 87 34 31 42 45 37
61 -3 12 -11 21 -17 21 -6 0 -8 3 -5 7 4 3 0 15 -10 25 -9 10 -13 18 -9 18 4
0 1 6 -7 14 -11 11 -37 13 -111 11 -54 -2 -100 -6 -104 -9 -3 -3 -11 -1 -19 5
-7 6 -13 8 -13 3z"/>
<path d="M4330 2172 c0 -4 -10 -8 -22 -9 -12 -1 -44 -11 -72 -22 -55 -21 -78
-28 -86 -29 -3 0 -22 -7 -44 -16 -21 -9 -42 -14 -46 -11 -5 3 -10 1 -12 -5 -2
-6 -12 -12 -23 -14 -11 -3 -39 -11 -62 -20 -24 -8 -43 -12 -43 -8 0 4 -4 2 -8
-3 -6 -9 -107 -45 -122 -44 -3 0 -18 -6 -34 -15 -16 -8 -33 -13 -38 -10 -4 3
-8 0 -8 -6 0 -6 -6 -10 -12 -9 -7 1 -21 -1 -30 -4 -10 -4 -26 -10 -35 -14 -10
-3 -21 -7 -25 -8 -5 -2 -9 -3 -10 -5 -2 -1 -10 -3 -18 -5 -8 -2 -32 -10 -52
-19 -21 -9 -38 -13 -38 -10 0 4 -7 1 -15 -6 -8 -7 -15 -10 -15 -7 0 3 -12 0
-27 -8 -15 -8 -30 -12 -35 -9 -4 3 -8 0 -8 -6 0 -6 -4 -9 -8 -6 -5 3 -21 -2
-36 -9 -16 -8 -32 -12 -37 -9 -5 3 -9 1 -9 -3 0 -5 -10 -9 -22 -10 -11 -1 -24
-7 -28 -13 -4 -6 -11 -10 -16 -8 -5 1 -25 -3 -44 -10 -19 -7 -35 -13 -35 -12
0 0 -51 -18 -114 -40 -63 -22 -118 -37 -122 -34 -5 3 -9 1 -9 -5 0 -6 -16 -13
-35 -17 -19 -3 -35 -9 -35 -13 0 -4 -6 -8 -12 -9 -15 -1 -36 -6 -58 -14 -98
-36 -169 -61 -189 -64 -13 -3 -37 -12 -52 -20 -16 -8 -29 -12 -29 -8 0 4 -7 1
-15 -6 -8 -6 -19 -9 -25 -5 -5 3 -10 1 -10 -5 0 -6 -4 -9 -9 -5 -5 3 -12 1
-16 -5 -4 -6 -11 -8 -16 -5 -5 4 -9 2 -9 -3 0 -8 -6 -10 -50 -14 -11 -1 -20
-6 -20 -10 0 -4 -9 -8 -19 -8 -11 0 -27 -7 -35 -16 -9 -8 -16 -11 -16 -5 0 5
-25 -1 -55 -14 -30 -14 -55 -22 -55 -19 0 4 -10 0 -23 -8 -12 -8 -30 -14 -39
-12 -10 1 -18 -2 -18 -6 0 -5 -15 -12 -32 -15 -18 -4 -39 -12 -47 -19 -8 -6
-15 -10 -15 -8 -2 8 -56 -11 -56 -20 0 -6 -6 -6 -14 1 -9 8 -15 8 -18 2 -1 -6
-12 -12 -23 -14 -11 -2 -33 -9 -48 -15 -15 -7 -39 -15 -52 -18 -14 -3 -25 -11
-25 -18 0 -6 -5 -4 -10 4 -6 10 -10 11 -10 3 0 -7 -8 -13 -18 -13 -10 0 -22
-3 -26 -7 -3 -4 -13 -8 -22 -9 -33 -5 -114 -38 -114 -47 0 -5 -7 -4 -15 3 -11
9 -15 9 -15 1 0 -7 -4 -9 -10 -6 -5 3 -10 3 -11 -2 0 -4 -2 -17 -4 -28 -11
-54 -15 -125 -8 -126 15 -1 38 -8 73 -20 52 -18 64 -22 77 -25 6 -1 29 -8 50
-15 21 -7 41 -12 46 -11 4 1 7 -2 7 -8 0 -6 3 -9 8 -9 4 1 10 0 15 -1 8 -3 11
-4 57 -14 19 -5 40 -12 45 -15 6 -4 30 -13 55 -20 25 -6 54 -16 65 -20 38 -16
200 -65 208 -63 4 1 7 -2 7 -8 0 -6 3 -9 8 -9 4 1 9 0 12 -1 5 -2 29 -7 53
-13 6 -1 17 -6 24 -10 6 -4 23 -8 37 -9 14 -1 26 -6 26 -11 0 -5 6 -7 14 -4 8
3 16 2 18 -3 2 -5 18 -12 37 -15 19 -3 39 -9 45 -13 6 -3 16 -7 21 -8 6 -1 60
-18 120 -39 61 -20 117 -39 125 -40 8 -2 16 -4 18 -5 1 -2 7 -4 12 -5 6 -1 12
-4 15 -5 3 -1 8 -3 13 -4 40 -11 99 -31 109 -39 7 -5 17 -6 23 -2 5 3 10 1 10
-4 0 -6 3 -10 8 -9 4 1 27 -5 52 -12 25 -8 48 -14 53 -16 4 -1 9 -3 12 -4 3
-1 8 -3 13 -5 4 -1 15 -5 24 -9 9 -4 22 -8 30 -10 7 -1 18 -4 23 -7 14 -8 68
-23 78 -21 4 1 7 -3 7 -9 0 -5 4 -8 10 -4 5 3 17 1 27 -4 20 -11 115 -42 123
-40 3 1 23 -6 45 -16 42 -18 63 -24 108 -32 15 -3 27 -9 27 -14 0 -5 3 -8 8
-7 6 1 41 -8 102 -27 3 -1 13 -5 22 -9 9 -4 22 -9 30 -10 38 -8 74 -20 85 -28
7 -5 17 -7 23 -3 5 3 10 1 10 -4 0 -6 3 -10 8 -9 4 1 25 -4 46 -10 22 -6 40
-10 41 -9 18 38 24 60 20 68 -4 5 -2 9 3 9 5 0 12 8 16 18 14 41 75 123 120
161 10 9 23 21 30 26 28 25 111 74 136 79 3 1 14 7 25 13 11 6 23 11 28 12 14
2 22 3 32 6 6 1 17 3 26 3 8 1 15 12 16 25 0 12 3 49 7 82 3 33 8 87 10 120 5
63 13 154 21 220 3 22 7 72 10 110 3 39 7 86 10 105 5 40 18 201 19 243 1 15
3 27 6 27 3 0 5 17 6 38 1 52 15 233 20 257 3 11 6 46 8 78 2 32 7 61 10 64 3
3 1 14 -5 25 -6 11 -13 17 -16 14 -3 -3 -11 0 -19 7 -32 29 -44 37 -44 32 0
-3 -20 15 -45 40 -43 42 -65 55 -65 37z"/>
</g>
</svg>
