<svg class="skills__img" xmlns="http://www.w3.org/2000/svg" xmlns:xlink="http://www.w3.org/1999/xlink" xml:space="preserve" fill="#5f5f5f" viewBox="0 0 42 42">
<path d="M0.562012 32.226V9.297C0.562012 7.627 1.91801 6.271 3.58801 6.271H38.237C39.905 6.271 41.265 7.625 41.265 9.297V32.226C41.265 33.896 39.909 35.252 38.237 35.252H3.58801C1.91801 35.252 0.562012 33.896 0.562012 32.226ZM39.351 32.226V9.297C39.351 8.687 38.853 8.187 38.237 8.187H3.58801C2.97601 8.187 2.47801 8.685 2.47801 9.297V32.226C2.47801 32.839 2.97601 33.336 3.58801 33.336H38.237C38.851 33.336 39.351 32.839 39.351 32.226Z" />
<path d="M3.92401 10.111C3.92401 9.60398 4.33701 9.19098 4.84301 9.19098C5.35001 9.19098 5.76101 9.60398 5.76101 10.111C5.76101 10.614 5.35001 11.028 4.84301 11.028C4.33701 11.028 3.92401 10.614 3.92401 10.111ZM6.52501 10.111C6.52501 9.60398 6.93601 9.19098 7.44201 9.19098C7.94901 9.19098 8.36101 9.60398 8.36101 10.111C8.36101 10.614 7.94901 11.028 7.44201 11.028C6.93601 11.028 6.52501 10.614 6.52501 10.111ZM9.12301 10.111C9.12301 9.60398 9.53501 9.19098 10.04 9.19098C10.546 9.19098 10.959 9.60398 10.959 10.111C10.959 10.614 10.546 11.028 10.04 11.028C9.53501 11.028 9.12301 10.614 9.12301 10.111Z" />
<path d="M7.032 30.839L7.03 30.06C7.217 30.136 7.418 30.177 7.633 30.177C7.83 30.177 8.019 30.142 8.191 30.077V30.839H7.032ZM13.681 30.839V29.679H14.84V30.839H13.681ZM20.333 30.839V29.679H21.493V30.839H20.333ZM26.983 30.839V29.679H28.142V30.839H26.983ZM33.635 30.839V29.679H34.795V30.839H33.635ZM13.681 28.987V27.83H14.84V28.987H13.681ZM20.333 28.987V27.83H21.493V28.987H20.333ZM26.983 28.987V27.83H28.142V28.987H26.983ZM33.635 28.987V27.83H34.795V28.987H33.635ZM13.681 27.138V25.979H14.84V27.138H13.681ZM20.333 27.138V25.979H21.493V27.138H20.333ZM26.983 27.138L26.981 26.004C27.172 26.084 27.383 26.129 27.604 26.129C27.791 26.129 27.972 26.098 28.142 26.036V27.138H26.983ZM33.635 27.138V25.979H34.795V27.138H33.635ZM7.03 27.106L7.032 25.979H8.191V27.091V27.087C8.019 27.021 7.83 26.985 7.633 26.985C7.418 26.985 7.217 27.028 7.03 27.106ZM7.034 25.189V24.031H8.193V25.189H7.034ZM13.683 25.189V24.031H14.843V25.189H13.683ZM20.336 25.189V24.031H21.495V25.189H20.336ZM33.637 25.189V24.031H34.797V25.189H33.637ZM7.034 23.339V22.18H8.191V23.339H7.034ZM13.683 23.339L13.681 22.838C13.898 22.948 14.141 23.007 14.401 23.007C14.551 23.007 14.7 22.986 14.84 22.946V23.339H13.683ZM20.336 23.339V22.18H21.493V23.339H20.336ZM33.637 23.339V22.18H34.795V23.339H33.637ZM26.983 23.063L26.985 22.18H28.142V23.04V23.033C27.972 22.972 27.791 22.937 27.604 22.937C27.383 22.937 27.174 22.984 26.983 23.063ZM7.034 21.489V20.331H8.191V21.489H7.034ZM20.336 21.489L20.333 20.799C20.512 20.869 20.707 20.908 20.914 20.908C21.118 20.908 21.314 20.869 21.493 20.799V21.489H20.336ZM26.985 21.489V20.331H28.142V21.489H26.985ZM33.637 21.489V20.331H34.795V21.489H33.637ZM7.034 19.637V18.479H8.191V19.637H7.034ZM13.683 19.637V18.479H14.84V19.637H13.683ZM26.985 19.637V18.479H28.142V19.637H26.985ZM33.637 19.637V18.479H34.795V19.637H33.637ZM7.032 17.788V16.628H8.191V17.788H7.032ZM13.681 17.788V16.628H14.84V17.788H13.681ZM20.333 17.788V16.628H21.493V17.788H21.384C21.235 17.741 21.078 17.716 20.914 17.716C20.748 17.716 20.59 17.741 20.442 17.788H20.333ZM26.983 17.788V16.628H28.142V17.788H26.983ZM7.032 15.937V14.779H8.191V15.937H7.032ZM13.681 15.937V14.779H14.84V15.937H13.681ZM20.333 15.937V14.779H21.493V15.937H20.333ZM26.983 15.937V14.779H28.142V15.937H26.983ZM34.206 15.242C34.003 15.242 33.81 15.281 33.633 15.349L33.635 15.353V14.779H34.795V15.36V15.357C34.612 15.283 34.411 15.242 34.206 15.242ZM7.032 14.087V12.928H8.191V14.087H7.032ZM13.681 14.087V12.928H14.84V14.087H13.681ZM20.333 14.087V12.928H21.493V14.087H20.333ZM26.983 14.087V12.928H28.142V14.087H26.983ZM33.635 14.087V12.928H34.795V14.087H33.635Z" />
<path d="M5.50601 28.581C5.50601 27.409 6.45901 26.453 7.63301 26.453C7.84201 26.453 8.04601 26.484 8.24001 26.542L12.398 22.139C12.317 21.912 12.272 21.667 12.272 21.412C12.272 20.239 13.226 19.284 14.401 19.284C14.992 19.284 15.528 19.529 15.913 19.92L18.81 18.986C18.967 17.969 19.85 17.183 20.914 17.183C22.086 17.183 23.042 18.139 23.042 19.312C23.042 19.468 23.025 19.62 22.993 19.767L26.579 22.682L26.57 22.674C26.876 22.504 27.227 22.406 27.604 22.406C27.813 22.406 28.017 22.438 28.211 22.495L32.226 17.626C32.13 17.384 32.077 17.117 32.077 16.838C32.077 15.666 33.031 14.711 34.206 14.711C35.378 14.711 36.333 15.666 36.333 16.838C36.333 18.013 35.378 18.967 34.206 18.967C34.016 18.967 33.835 18.943 33.662 18.899L29.6 23.823L29.607 23.817C29.687 24.04 29.732 24.283 29.732 24.533C29.732 25.708 28.777 26.662 27.604 26.662C26.429 26.662 25.477 25.708 25.477 24.533C25.477 24.444 25.481 24.353 25.493 24.266L25.502 24.272L21.78 21.255C21.516 21.374 21.222 21.439 20.914 21.439C20.322 21.439 19.788 21.199 19.401 20.81L16.498 21.746C16.341 22.763 15.458 23.54 14.401 23.54C14.188 23.54 13.983 23.51 13.79 23.452L9.62701 27.864L9.63401 27.857C9.71501 28.083 9.76101 28.328 9.76101 28.581C9.76101 29.756 8.80601 30.708 7.63301 30.708C6.45901 30.708 5.50601 29.756 5.50601 28.581ZM8.69801 28.581C8.69801 27.998 8.21601 27.516 7.63301 27.516C7.04801 27.516 6.56901 27.998 6.56901 28.581C6.56901 29.166 7.04801 29.645 7.63301 29.645C8.21601 29.645 8.69801 29.166 8.69801 28.581ZM28.669 24.533C28.669 23.95 28.187 23.47 27.604 23.47C27.019 23.47 26.54 23.95 26.54 24.533C26.54 25.118 27.019 25.598 27.604 25.598C28.187 25.598 28.669 25.118 28.669 24.533ZM15.464 21.412C15.464 20.828 14.984 20.348 14.401 20.348C13.815 20.348 13.336 20.828 13.336 21.412C13.336 21.997 13.815 22.476 14.401 22.476C14.984 22.476 15.464 21.997 15.464 21.412ZM21.978 19.312C21.978 18.729 21.497 18.247 20.914 18.247C20.329 18.247 19.85 18.729 19.85 19.312C19.85 19.897 20.329 20.375 20.914 20.375C21.497 20.375 21.978 19.897 21.978 19.312ZM35.269 16.838C35.269 16.256 34.788 15.775 34.206 15.775C33.62 15.775 33.141 16.256 33.141 16.838C33.141 17.424 33.62 17.903 34.206 17.903C34.788 17.903 35.269 17.424 35.269 16.838Z" />
</svg>
