<svg class="skills__img" height="42px" xmlns="http://www.w3.org/2000/svg" xmlns:xlink="http://www.w3.org/1999/xlink" 
	 viewBox="0 0 472.615 472.615" xml:space="preserve" fill="#5f5f5f">
<g>
	<g>
		<rect x="246.154" y="413.524" width="226.462" height="59.077"/>
	</g>
</g>
<g>
	<g>
		<rect x="246.154" y="128.015" width="226.462" height="39.355"/>
	</g>
</g>
<g>
	<g>
		<polygon points="246.154,187.059 246.154,221.521 330.692,221.521 317.962,208.791 331.884,194.867 368.385,231.367 
			331.884,267.868 317.962,253.944 330.692,241.213 246.154,241.213 246.154,260.905 285.538,260.905 285.538,280.598 
			246.154,280.598 246.154,393.828 472.615,393.828 472.615,187.059 		"/>
	</g>
</g>
<g>
	<g>
		<polygon points="19.692,0.015 19.692,315.092 226.462,315.092 226.462,280.598 164.74,280.598 177.471,293.329 163.549,307.252 
			127.048,270.752 163.549,234.252 177.471,248.175 164.74,260.905 226.462,260.905 226.462,241.213 209.894,241.213 
			209.894,221.521 226.462,221.521 226.462,187.059 226.462,167.367 226.462,108.319 452.923,108.319 452.923,0.015 		"/>
	</g>
</g>
<g>
	<g>
		<polygon points="0,334.784 0,368.359 45.194,413.553 226.462,413.553 226.462,413.521 226.462,393.828 226.462,334.784 		"/>
	</g>
</g>
</svg>