<svg class="skills__img" height="42px" xmlns="http://www.w3.org/2000/svg" xmlns:xlink="http://www.w3.org/1999/xlink" xml:space="preserve" fill="#5f5f5f" viewBox="0 0 44 44">
<path d="M5.33008 22.6543H3.05078V21.7344H5.33008C5.77148 21.7344 6.12891 21.6641 6.40234 21.5234C6.67578 21.3828 6.875 21.1875 7 20.9375C7.12891 20.6875 7.19336 20.4023 7.19336 20.082C7.19336 19.7891 7.12891 19.5137 7 19.2559C6.875 18.998 6.67578 18.791 6.40234 18.6348C6.12891 18.4746 5.77148 18.3945 5.33008 18.3945H3.31445V26H2.18359V17.4688H5.33008C5.97461 17.4688 6.51953 17.5801 6.96484 17.8027C7.41016 18.0254 7.74805 18.334 7.97852 18.7285C8.20898 19.1191 8.32422 19.5664 8.32422 20.0703C8.32422 20.6172 8.20898 21.084 7.97852 21.4707C7.74805 21.8574 7.41016 22.1523 6.96484 22.3555C6.51953 22.5547 5.97461 22.6543 5.33008 22.6543ZM10.6738 20.6562V26H9.58984V19.6602H10.6445L10.6738 20.6562ZM12.6543 19.625L12.6484 20.6328C12.5586 20.6133 12.4727 20.6016 12.3906 20.5977C12.3125 20.5898 12.2227 20.5859 12.1211 20.5859C11.8711 20.5859 11.6504 20.625 11.459 20.7031C11.2676 20.7812 11.1055 20.8906 10.9727 21.0312C10.8398 21.1719 10.7344 21.3398 10.6562 21.5352C10.582 21.7266 10.5332 21.9375 10.5098 22.168L10.2051 22.3438C10.2051 21.9609 10.2422 21.6016 10.3164 21.2656C10.3945 20.9297 10.5137 20.6328 10.6738 20.375C10.834 20.1133 11.0371 19.9102 11.2832 19.7656C11.5332 19.6172 11.8301 19.543 12.1738 19.543C12.252 19.543 12.3418 19.5527 12.4434 19.5723C12.5449 19.5879 12.6152 19.6055 12.6543 19.625ZM16.1699 26.1172C15.7285 26.1172 15.3281 26.043 14.9688 25.8945C14.6133 25.7422 14.3066 25.5293 14.0488 25.2559C13.7949 24.9824 13.5996 24.6582 13.4629 24.2832C13.3262 23.9082 13.2578 23.498 13.2578 23.0527V22.8066C13.2578 22.291 13.334 21.832 13.4863 21.4297C13.6387 21.0234 13.8457 20.6797 14.1074 20.3984C14.3691 20.1172 14.666 19.9043 14.998 19.7598C15.3301 19.6152 15.6738 19.543 16.0293 19.543C16.4824 19.543 16.873 19.6211 17.2012 19.7773C17.5332 19.9336 17.8047 20.1523 18.0156 20.4336C18.2266 20.7109 18.3828 21.0391 18.4844 21.418C18.5859 21.793 18.6367 22.2031 18.6367 22.6484V23.1348H13.9023V22.25H17.5527V22.168C17.5371 21.8867 17.4785 21.6133 17.377 21.3477C17.2793 21.082 17.123 20.8633 16.9082 20.6914C16.6934 20.5195 16.4004 20.4336 16.0293 20.4336C15.7832 20.4336 15.5566 20.4863 15.3496 20.5918C15.1426 20.6934 14.9648 20.8457 14.8164 21.0488C14.668 21.252 14.5527 21.5 14.4707 21.793C14.3887 22.0859 14.3477 22.4238 14.3477 22.8066V23.0527C14.3477 23.3535 14.3887 23.6367 14.4707 23.9023C14.5566 24.1641 14.6797 24.3945 14.8398 24.5938C15.0039 24.793 15.2012 24.9492 15.4316 25.0625C15.666 25.1758 15.9316 25.2324 16.2285 25.2324C16.6113 25.2324 16.9355 25.1543 17.2012 24.998C17.4668 24.8418 17.6992 24.6328 17.8984 24.3711L18.5547 24.8926C18.418 25.0996 18.2441 25.2969 18.0332 25.4844C17.8223 25.6719 17.5625 25.8242 17.2539 25.9414C16.9492 26.0586 16.5879 26.1172 16.1699 26.1172ZM20.9863 20.8789V28.4375H19.8965V19.6602H20.8926L20.9863 20.8789ZM25.2578 22.7773V22.9004C25.2578 23.3613 25.2031 23.7891 25.0938 24.1836C24.9844 24.5742 24.8242 24.9141 24.6133 25.2031C24.4062 25.4922 24.1504 25.7168 23.8457 25.877C23.541 26.0371 23.1914 26.1172 22.7969 26.1172C22.3945 26.1172 22.0391 26.0508 21.7305 25.918C21.4219 25.7852 21.1602 25.5918 20.9453 25.3379C20.7305 25.084 20.5586 24.7793 20.4297 24.4238C20.3047 24.0684 20.2188 23.668 20.1719 23.2227V22.5664C20.2188 22.0977 20.3066 21.6777 20.4355 21.3066C20.5645 20.9355 20.7344 20.6191 20.9453 20.3574C21.1602 20.0918 21.4199 19.8906 21.7246 19.7539C22.0293 19.6133 22.3809 19.543 22.7793 19.543C23.1777 19.543 23.5312 19.6211 23.8398 19.7773C24.1484 19.9297 24.4082 20.1484 24.6191 20.4336C24.8301 20.7188 24.9883 21.0605 25.0938 21.459C25.2031 21.8535 25.2578 22.293 25.2578 22.7773ZM24.168 22.9004V22.7773C24.168 22.4609 24.1348 22.1641 24.0684 21.8867C24.002 21.6055 23.8984 21.3594 23.7578 21.1484C23.6211 20.9336 23.4453 20.7656 23.2305 20.6445C23.0156 20.5195 22.7598 20.457 22.4629 20.457C22.1895 20.457 21.9512 20.5039 21.748 20.5977C21.5488 20.6914 21.3789 20.8184 21.2383 20.9785C21.0977 21.1348 20.9824 21.3145 20.8926 21.5176C20.8066 21.7168 20.7422 21.9238 20.6992 22.1387V23.6562C20.7773 23.9297 20.8867 24.1875 21.0273 24.4297C21.168 24.668 21.3555 24.8613 21.5898 25.0098C21.8242 25.1543 22.1191 25.2266 22.4746 25.2266C22.7676 25.2266 23.0195 25.166 23.2305 25.0449C23.4453 24.9199 23.6211 24.75 23.7578 24.5352C23.8984 24.3203 24.002 24.0742 24.0684 23.7969C24.1348 23.5156 24.168 23.2168 24.168 22.9004ZM27.7246 20.6562V26H26.6406V19.6602H27.6953L27.7246 20.6562ZM29.7051 19.625L29.6992 20.6328C29.6094 20.6133 29.5234 20.6016 29.4414 20.5977C29.3633 20.5898 29.2734 20.5859 29.1719 20.5859C28.9219 20.5859 28.7012 20.625 28.5098 20.7031C28.3184 20.7812 28.1562 20.8906 28.0234 21.0312C27.8906 21.1719 27.7852 21.3398 27.707 21.5352C27.6328 21.7266 27.584 21.9375 27.5605 22.168L27.2559 22.3438C27.2559 21.9609 27.293 21.6016 27.3672 21.2656C27.4453 20.9297 27.5645 20.6328 27.7246 20.375C27.8848 20.1133 28.0879 19.9102 28.334 19.7656C28.584 19.6172 28.8809 19.543 29.2246 19.543C29.3027 19.543 29.3926 19.5527 29.4941 19.5723C29.5957 19.5879 29.666 19.6055 29.7051 19.625ZM30.3027 22.9004V22.7656C30.3027 22.3086 30.3691 21.8848 30.502 21.4941C30.6348 21.0996 30.8262 20.7578 31.0762 20.4688C31.3262 20.1758 31.6289 19.9492 31.9844 19.7891C32.3398 19.625 32.7383 19.543 33.1797 19.543C33.625 19.543 34.0254 19.625 34.3809 19.7891C34.7402 19.9492 35.0449 20.1758 35.2949 20.4688C35.5488 20.7578 35.7422 21.0996 35.875 21.4941C36.0078 21.8848 36.0742 22.3086 36.0742 22.7656V22.9004C36.0742 23.3574 36.0078 23.7812 35.875 24.1719C35.7422 24.5625 35.5488 24.9043 35.2949 25.1973C35.0449 25.4863 34.7422 25.7129 34.3867 25.877C34.0352 26.0371 33.6367 26.1172 33.1914 26.1172C32.7461 26.1172 32.3457 26.0371 31.9902 25.877C31.6348 25.7129 31.3301 25.4863 31.0762 25.1973C30.8262 24.9043 30.6348 24.5625 30.502 24.1719C30.3691 23.7812 30.3027 23.3574 30.3027 22.9004ZM31.3867 22.7656V22.9004C31.3867 23.2168 31.4238 23.5156 31.498 23.7969C31.5723 24.0742 31.6836 24.3203 31.832 24.5352C31.9844 24.75 32.1738 24.9199 32.4004 25.0449C32.627 25.166 32.8906 25.2266 33.1914 25.2266C33.4883 25.2266 33.748 25.166 33.9707 25.0449C34.1973 24.9199 34.3848 24.75 34.5332 24.5352C34.6816 24.3203 34.793 24.0742 34.8672 23.7969C34.9453 23.5156 34.9844 23.2168 34.9844 22.9004V22.7656C34.9844 22.4531 34.9453 22.1582 34.8672 21.8809C34.793 21.5996 34.6797 21.3516 34.5273 21.1367C34.3789 20.918 34.1914 20.7461 33.9648 20.6211C33.7422 20.4961 33.4805 20.4336 33.1797 20.4336C32.8828 20.4336 32.6211 20.4961 32.3945 20.6211C32.1719 20.7461 31.9844 20.918 31.832 21.1367C31.6836 21.3516 31.5723 21.5996 31.498 21.8809C31.4238 22.1582 31.3867 22.4531 31.3867 22.7656ZM41.125 24.3184C41.125 24.1621 41.0898 24.0176 41.0195 23.8848C40.9531 23.748 40.8145 23.625 40.6035 23.5156C40.3965 23.4023 40.084 23.3047 39.666 23.2227C39.3145 23.1484 38.9961 23.0605 38.7109 22.959C38.4297 22.8574 38.1895 22.7344 37.9902 22.5898C37.7949 22.4453 37.6445 22.2754 37.5391 22.0801C37.4336 21.8848 37.3809 21.6562 37.3809 21.3945C37.3809 21.1445 37.4355 20.9082 37.5449 20.6855C37.6582 20.4629 37.8164 20.2656 38.0195 20.0938C38.2266 19.9219 38.4746 19.7871 38.7637 19.6895C39.0527 19.5918 39.375 19.543 39.7305 19.543C40.2383 19.543 40.6719 19.6328 41.0312 19.8125C41.3906 19.9922 41.666 20.2324 41.8574 20.5332C42.0488 20.8301 42.1445 21.1602 42.1445 21.5234H41.0605C41.0605 21.3477 41.0078 21.1777 40.9023 21.0137C40.8008 20.8457 40.6504 20.707 40.4512 20.5977C40.2559 20.4883 40.0156 20.4336 39.7305 20.4336C39.4297 20.4336 39.1855 20.4805 38.998 20.5742C38.8145 20.6641 38.6797 20.7793 38.5938 20.9199C38.5117 21.0605 38.4707 21.209 38.4707 21.3652C38.4707 21.4824 38.4902 21.5879 38.5293 21.6816C38.5723 21.7715 38.6465 21.8555 38.752 21.9336C38.8574 22.0078 39.0059 22.0781 39.1973 22.1445C39.3887 22.2109 39.6328 22.2773 39.9297 22.3438C40.4492 22.4609 40.877 22.6016 41.2129 22.7656C41.5488 22.9297 41.7988 23.1309 41.9629 23.3691C42.127 23.6074 42.209 23.8965 42.209 24.2363C42.209 24.5137 42.1504 24.7676 42.0332 24.998C41.9199 25.2285 41.7539 25.4277 41.5352 25.5957C41.3203 25.7598 41.0625 25.8887 40.7617 25.9824C40.4648 26.0723 40.1309 26.1172 39.7598 26.1172C39.2012 26.1172 38.7285 26.0176 38.3418 25.8184C37.9551 25.6191 37.6621 25.3613 37.4629 25.0449C37.2637 24.7285 37.1641 24.3945 37.1641 24.043H38.2539C38.2695 24.3398 38.3555 24.5762 38.5117 24.752C38.668 24.9238 38.8594 25.0469 39.0859 25.1211C39.3125 25.1914 39.5371 25.2266 39.7598 25.2266C40.0566 25.2266 40.3047 25.1875 40.5039 25.1094C40.707 25.0312 40.8613 24.9238 40.9668 24.7871C41.0723 24.6504 41.125 24.4941 41.125 24.3184Z" />
</svg>
