<?xml version="1.0" standalone="no"?>
<!DOCTYPE svg PUBLIC "-//W3C//DTD SVG 1.1//EN" "http://www.w3.org/Graphics/SVG/1.1/DTD/svg11.dtd" >
<svg xmlns="http://www.w3.org/2000/svg" xmlns:xlink="http://www.w3.org/1999/xlink" version="1.1">
<metadata>
Created by FontForge 20170812 at Wed Mar  4 01:53:08 2020
 By www-data
Copyright \(c\) 2020 by Alexander Pravdin. All rights reserved.
</metadata>
<defs>
<font id="NEXTART-Light" horiz-adv-x="1608" >
  <font-face 
    font-family="NEXT ART"
    font-weight="300"
    font-stretch="normal"
    units-per-em="2048"
    panose-1="2 0 8 3 3 0 0 2 0 4"
    ascent="1638"
    descent="-410"
    x-height="1434"
    cap-height="1435"
    bbox="-125 -610 2463 1869"
    underline-thickness="50"
    underline-position="-150"
    stemh="276"
    stemv="299"
    unicode-range="U+0020-F6D4"
  />
<missing-glyph horiz-adv-x="1369" 
d="M149 1435h774l98 239h113l-98 -239h184v-1435h-772l-99 -241h-114l99 241h-185v1435zM258 1330v-1225h119l503 1225h-622zM1110 105v1225h-117l-502 -1225h619z" />
    <glyph glyph-name=".notdef" horiz-adv-x="1369" 
d="M149 1435h774l98 239h113l-98 -239h184v-1435h-772l-99 -241h-114l99 241h-185v1435zM258 1330v-1225h119l503 1225h-622zM1110 105v1225h-117l-502 -1225h619z" />
    <glyph glyph-name="space" unicode=" " horiz-adv-x="559" 
 />
    <glyph glyph-name="exclam" unicode="!" horiz-adv-x="433" 
d="M157 274v1161h119v-1161h-119zM139 155h155v-155h-155v155z" />
    <glyph glyph-name="quotedbl" unicode="&#x22;" horiz-adv-x="655" 
d="M144 1435h138l-17 -369h-102zM373 1435h138l-19 -369h-102z" />
    <glyph glyph-name="numbersign" unicode="#" horiz-adv-x="1421" 
d="M1269 559l-20 -112h-300l-86 -447h-117l87 447h-349l-86 -447h-117l86 447h-298l21 112h298l62 316h-299l21 112h299l87 445h117l-87 -445h349l86 445h117l-86 -445h298l-22 -112h-298l-61 -316h298zM855 559l60 316h-348l-61 -316h349z" />
    <glyph glyph-name="dollar" unicode="$" horiz-adv-x="1208" 
d="M651 -237h-109v243c-170 23 -341 111 -479 268l85 80c134 -157 312 -239 485 -240c245 0 376 150 376 313c0 203 -200 256 -418 301c-229 47 -482 96 -482 349c0 194 164 349 433 357v238h109v-244c142 -22 288 -93 397 -210l-82 -80c-104 114 -252 183 -407 183
c-215 0 -332 -113 -332 -243c0 -153 159 -189 400 -237c194 -39 501 -103 501 -419c0 -230 -190 -414 -477 -422v-237z" />
    <glyph glyph-name="percent" unicode="%" horiz-adv-x="1721" 
d="M1532 1435l-495 -595h-149l490 595h154zM189 0l495 596h149l-490 -596h-154zM460 1329c-146 0 -257 -120 -257 -275c0 -156 109 -274 257 -274c147 0 257 118 257 274c0 155 -110 275 -257 275zM829 1054c0 -218 -162 -384 -369 -384s-369 166 -369 384
c0 213 157 385 369 385s369 -172 369 -385zM1261 105c146 0 257 120 257 275c0 156 -110 274 -257 274c-148 0 -257 -118 -257 -274c0 -155 111 -275 257 -275zM891 380c0 218 163 384 370 384s369 -166 369 -384c0 -212 -157 -385 -369 -385s-370 173 -370 385z" />
    <glyph glyph-name="ampersand" unicode="&#x26;" horiz-adv-x="1370" 
d="M1306 0h-157l-187 222c-123 -142 -272 -223 -430 -223c-260 0 -452 209 -452 442c0 219 132 348 313 443c-53 69 -92 150 -92 233c0 159 135 318 331 318c154 0 264 -105 342 -240l-100 -64c-55 96 -132 189 -248 189c-126 0 -206 -111 -206 -205c0 -57 30 -122 89 -190
l447 -518c94 157 151 355 151 535h118c0 -129 -25 -264 -72 -392c-30 -84 -70 -164 -117 -236zM532 116c159 0 278 103 354 195l-420 484c-103 -53 -267 -148 -267 -354c0 -178 149 -325 333 -325z" />
    <glyph glyph-name="quotesingle" unicode="'" horiz-adv-x="414" 
d="M137 1435h140l-19 -369h-102z" />
    <glyph glyph-name="parenleft" unicode="(" horiz-adv-x="535" 
d="M349 1713h124c-171 -303 -250 -657 -250 -995c0 -339 79 -693 250 -996h-124c-167 303 -244 657 -244 996c0 338 77 692 244 995z" />
    <glyph glyph-name="parenright" unicode=")" horiz-adv-x="535" 
d="M62 1713h124c167 -303 244 -657 244 -995c0 -339 -77 -693 -244 -996h-124c171 303 250 657 250 996c0 338 -79 692 -250 995z" />
    <glyph glyph-name="asterisk" unicode="*" horiz-adv-x="701" 
d="M305 1514h92l-2 -232l219 72l28 -86l-221 -70l138 -186l-74 -54l-135 189l-134 -188l-74 54l137 186l-220 70l28 86l219 -73z" />
    <glyph glyph-name="plus" unicode="+" horiz-adv-x="962" 
d="M424 1111h113v-338h336v-111h-336v-334h-113v334h-335v111h335v338z" />
    <glyph glyph-name="comma" unicode="," horiz-adv-x="415" 
d="M65 -229l91 384h140l-131 -384h-100z" />
    <glyph glyph-name="hyphen" unicode="-" horiz-adv-x="1010" 
d="M146 661v113h718v-113h-718z" />
    <glyph glyph-name="period" unicode="." horiz-adv-x="415" 
d="M129 0v155h157v-155h-157z" />
    <glyph glyph-name="slash" unicode="/" horiz-adv-x="1126" 
d="M956 1709h126l-912 -1996h-126z" />
    <glyph glyph-name="zero" unicode="0" horiz-adv-x="1632" 
d="M1541 718c0 -408 -312 -718 -725 -718s-725 310 -725 718c0 407 312 717 725 717s725 -310 725 -717zM1422 718c0 344 -258 601 -606 601s-607 -257 -607 -601s259 -601 607 -601s606 257 606 601z" />
    <glyph glyph-name="one" unicode="1" horiz-adv-x="616" 
d="M66 1434h389v-1434h-119v1321h-270v113z" />
    <glyph glyph-name="two" unicode="2" horiz-adv-x="1172" 
d="M1059 113v-113h-930v113c10 345 243 460 461 555c210 93 343 156 343 331c0 186 -149 321 -338 321c-198 0 -336 -174 -336 -398h-118c-1 302 203 511 454 511c262 0 457 -190 457 -421c0 -268 -213 -357 -399 -440c-219 -98 -397 -182 -404 -459h810z" />
    <glyph glyph-name="three" unicode="3" horiz-adv-x="1218" 
d="M144 1435h878v-111l-458 -423c129 17 258 -13 361 -89c114 -86 181 -216 181 -355c0 -256 -218 -457 -496 -457s-496 200 -496 456h119c0 -190 165 -343 377 -343c211 0 377 152 377 344c0 207 -188 343 -383 343c-87 0 -168 -28 -224 -68l-70 82l550 509h-716v112z" />
    <glyph glyph-name="four" unicode="4" horiz-adv-x="1211" 
d="M219 450h588v801zM807 337h-727v111l727 987h119v-985h226v-113h-226v-337h-119v337z" />
    <glyph glyph-name="five" unicode="5" horiz-adv-x="1211" 
d="M121 456h119c0 -191 165 -344 377 -344c211 0 377 153 377 345c0 209 -193 343 -374 343h-456v635h834v-113h-715v-412h347c112 0 211 -31 302 -98c114 -86 181 -216 181 -356c0 -256 -218 -456 -496 -456s-496 200 -496 456z" />
    <glyph glyph-name="six" unicode="6" horiz-adv-x="1181" 
d="M579 114c207 0 377 159 377 365c0 204 -167 366 -377 366c-207 0 -377 -159 -377 -366c0 -203 167 -365 377 -365zM481 935c146 33 274 7 376 -56c140 -87 218 -242 218 -399c0 -269 -220 -480 -496 -480c-273 0 -493 207 -495 481c1 235 151 370 283 495l464 459h172z
" />
    <glyph glyph-name="seven" unicode="7" horiz-adv-x="1232" 
d="M456 0h-133l677 1320h-914v115h1060v-79z" />
    <glyph glyph-name="eight" unicode="8" horiz-adv-x="1226" 
d="M613 1323c-183 0 -327 -110 -327 -247c0 -136 144 -244 327 -244s328 108 328 244c0 137 -145 247 -328 247zM613 722c-201 0 -398 -117 -398 -305c0 -186 197 -303 398 -303s399 117 399 303c0 188 -198 305 -399 305zM853 782c161 -64 278 -195 278 -365
c0 -248 -245 -417 -518 -417c-272 0 -517 169 -517 417c0 170 117 301 278 365c-50 31 -206 101 -206 294c0 215 212 359 445 359s446 -144 446 -359c0 -193 -156 -263 -206 -294z" />
    <glyph glyph-name="nine" unicode="9" horiz-adv-x="1181" 
d="M602 1321c-207 0 -377 -159 -377 -365c0 -204 167 -366 377 -366c207 0 377 159 377 366c0 203 -167 365 -377 365zM700 500c-146 -33 -274 -7 -376 56c-140 87 -218 242 -218 399c0 269 220 480 496 480c273 0 493 -207 495 -481c-1 -235 -151 -370 -283 -495l-464 -459
h-172z" />
    <glyph glyph-name="colon" unicode=":" horiz-adv-x="415" 
d="M129 0v155h157v-155h-157zM129 744v155h157v-155h-157z" />
    <glyph glyph-name="semicolon" unicode=";" horiz-adv-x="415" 
d="M129 744v155h157v-155h-157zM158 155l-91 -384h100l131 384h-140z" />
    <glyph glyph-name="less" unicode="&#x3c;" horiz-adv-x="1022" 
d="M79 773l809 469v-129l-689 -395l689 -395v-129l-809 470v109z" />
    <glyph glyph-name="equal" unicode="=" horiz-adv-x="1060" 
d="M139 793v110h782v-110h-782zM139 530v110h782v-110h-782z" />
    <glyph glyph-name="greater" unicode="&#x3e;" horiz-adv-x="1022" 
d="M134 1242l809 -469v-109l-809 -470v129l689 395l-689 395v129z" />
    <glyph glyph-name="question" unicode="?" horiz-adv-x="1082" 
d="M584 275h-116c3 235 65 318 210 442c101 85 198 165 198 310c0 167 -133 295 -331 295c-235 0 -349 -175 -351 -386h-118c3 277 158 499 472 499c266 0 447 -175 447 -407c0 -189 -112 -284 -227 -381c-138 -116 -184 -163 -184 -372zM604 156v-156h-155v156h155z" />
    <glyph glyph-name="at" unicode="@" horiz-adv-x="1847" 
d="M892 415c158 0 278 138 278 302c0 160 -116 293 -278 293c-152 0 -278 -135 -278 -298c0 -149 113 -297 278 -297zM1170 1121h116v-553c0 -136 50 -195 140 -195c151 0 220 159 220 337c0 404 -325 729 -722 729c-389 0 -723 -314 -723 -724c0 -195 80 -377 211 -510
c129 -131 309 -214 511 -214c154 0 294 47 418 133l52 -91c-144 -100 -306 -146 -469 -146c-226 0 -437 93 -589 246c-148 148 -241 353 -241 582c0 445 362 829 830 829c446 0 829 -363 829 -828c0 -239 -109 -441 -326 -441c-121 0 -231 77 -242 208
c-66 -105 -173 -180 -315 -180c-205 1 -375 178 -375 408c0 215 160 410 373 410c136 0 240 -75 302 -173v173z" />
    <glyph glyph-name="A" unicode="A" horiz-adv-x="1362" 
d="M1205 0l-132 321h-782l-133 -321h-129l595 1435h116l593 -1435h-128zM682 1276l-345 -841h688z" />
    <glyph glyph-name="B" unicode="B" horiz-adv-x="1289" 
d="M268 820h400c71 0 111 8 146 22c90 38 152 123 152 230c0 109 -62 191 -152 229c-35 15 -75 22 -146 22h-400v-503zM268 112h470c81 0 124 10 163 25c107 43 180 144 180 273c0 128 -74 229 -180 273c-39 16 -82 24 -163 24h-470v-595zM149 0v1435h530
c85 0 134 -10 179 -28c137 -54 226 -183 226 -338c0 -119 -57 -223 -153 -286c163 -54 268 -199 268 -375c0 -175 -102 -321 -258 -380c-49 -18 -101 -28 -194 -28h-598z" />
    <glyph glyph-name="C" unicode="C" horiz-adv-x="1573" 
d="M1495 941l-112 -38c-75 248 -297 415 -579 415c-348 0 -607 -256 -607 -600s259 -601 607 -601c285 0 508 171 581 423l114 -36c-88 -298 -358 -504 -695 -504c-413 0 -725 309 -725 718c0 407 312 717 725 717c333 0 601 -202 691 -494z" />
    <glyph glyph-name="D" unicode="D" horiz-adv-x="1382" 
d="M503 115c140 0 203 10 261 27c250 74 420 296 420 575c0 278 -170 502 -420 576c-58 18 -121 28 -261 28h-235v-1206h235zM503 1435c148 0 218 -9 284 -28c305 -85 516 -355 516 -690s-211 -604 -516 -689c-66 -18 -136 -28 -284 -28h-354v1435h354z" />
    <glyph glyph-name="E" unicode="E" horiz-adv-x="1157" 
d="M149 1435h919v-113h-801v-477h639v-112h-639v-621h801v-112h-919v1435z" />
    <glyph glyph-name="F" unicode="F" horiz-adv-x="1132" 
d="M149 1435h919v-113h-801v-477h639v-112h-639v-733h-118v1435z" />
    <glyph glyph-name="G" unicode="G" horiz-adv-x="1594" 
d="M1336 1214l-81 -85c-109 118 -267 190 -451 190c-348 0 -607 -257 -607 -601s259 -601 607 -601c343 0 600 259 596 609h-614v115h724c6 -40 10 -81 10 -123c0 -408 -309 -718 -716 -718c-413 0 -725 310 -725 718c0 407 312 717 725 717c214 0 402 -83 532 -221z" />
    <glyph glyph-name="H" unicode="H" horiz-adv-x="1404" 
d="M1135 1435h120v-1435h-120v727h-867v-727h-119v1435h119v-594h867v594z" />
    <glyph glyph-name="I" unicode="I" horiz-adv-x="417" 
d="M149 0v1435h119v-1435h-119z" />
    <glyph glyph-name="J" unicode="J" horiz-adv-x="725" 
d="M24 49l51 107c44 -24 92 -38 141 -38c112 0 195 63 228 160c13 35 19 77 19 138v1019h118v-1019c0 -68 -7 -120 -21 -166c-44 -142 -171 -250 -344 -250c-66 0 -131 16 -192 49z" />
    <glyph glyph-name="K" unicode="K" horiz-adv-x="1235" 
d="M873 1435h164l-491 -511l655 -924h-146l-591 839l-196 -205v-634h-119v1435h119v-636z" />
    <glyph glyph-name="L" unicode="L" horiz-adv-x="1146" 
d="M149 1435h119v-1320h804v-115h-923v1435z" />
    <glyph glyph-name="N" unicode="N" horiz-adv-x="1470" 
d="M268 0h-119v1435h61l992 -1188v1188h119v-1435h-60l-993 1191v-1191z" />
    <glyph glyph-name="P" unicode="P" horiz-adv-x="1249" 
d="M267 0h-118v1435h607c88 0 139 -11 186 -29c142 -57 235 -190 235 -351c0 -160 -93 -294 -235 -351c-47 -18 -98 -29 -186 -29h-489v-675zM267 787h480c75 0 116 9 153 24c94 40 159 128 159 243c0 114 -65 202 -159 242c-37 16 -78 24 -153 24h-480v-533z" />
    <glyph glyph-name="Q" unicode="Q" 
d="M1529 718c0 -223 -94 -417 -246 -546l170 -227l-96 -71l-169 229c-110 -66 -241 -103 -384 -103c-413 0 -725 310 -725 718c0 407 312 717 725 717s725 -310 725 -717zM1410 718c0 344 -258 601 -606 601s-607 -257 -607 -601s259 -601 607 -601s606 257 606 601z" />
    <glyph glyph-name="R" unicode="R" horiz-adv-x="1307" 
d="M1093 0l-413 674h-413v-674h-118v1435h607c88 0 139 -12 186 -30c142 -56 235 -189 235 -350c0 -86 -26 -164 -73 -227c-41 -55 -96 -98 -162 -124c-36 -15 -75 -25 -130 -29l421 -675h-140zM267 786h480c75 0 116 9 153 24c94 40 159 128 159 243
c0 114 -65 202 -159 243c-37 15 -78 23 -153 23h-480v-533z" />
    <glyph glyph-name="S" unicode="S" horiz-adv-x="1208" 
d="M63 274l85 80c134 -157 312 -239 485 -240c245 0 376 150 376 313c0 203 -200 256 -418 301c-229 47 -482 96 -482 349c0 199 172 357 453 358c169 0 354 -75 486 -217l-82 -80c-104 114 -252 183 -407 183c-215 0 -332 -113 -332 -243c0 -153 159 -189 400 -237
c194 -39 501 -103 501 -419c0 -235 -198 -422 -495 -422c-199 0 -407 89 -570 274z" />
    <glyph glyph-name="T" unicode="T" horiz-adv-x="1277" 
d="M64 1435h1149v-115h-516v-1320h-119v1320h-514v115z" />
    <glyph glyph-name="U" unicode="U" horiz-adv-x="1376" 
d="M144 1435h119v-850c0 -99 9 -149 25 -195c57 -165 211 -275 399 -275c189 0 344 110 402 275c16 46 24 96 24 195v850h119v-853c0 -124 -16 -198 -45 -264c-81 -189 -267 -318 -500 -318c-232 0 -418 129 -499 318c-28 66 -44 140 -44 264v853z" />
    <glyph glyph-name="V" unicode="V" horiz-adv-x="1365" 
d="M1202 1434h129l-591 -1434h-116l-590 1434h129l519 -1266z" />
    <glyph glyph-name="W" unicode="W" horiz-adv-x="1888" 
d="M59 1434h124l321 -1216l381 1216h117l382 -1216l321 1216h124l-381 -1434h-117l-387 1233l-387 -1233h-117z" />
    <glyph glyph-name="X" unicode="X" horiz-adv-x="1338" 
d="M39 0l556 769l-483 665h147l408 -570l405 570h147l-480 -664l560 -770h-147l-485 676l-482 -676h-146z" />
    <glyph glyph-name="Y" unicode="Y" horiz-adv-x="1217" 
d="M667 0h-119v612l-509 823h141l429 -701l429 701h140l-511 -823v-612z" />
    <glyph glyph-name="Z" unicode="Z" horiz-adv-x="1204" 
d="M112 1320v115h981v-57l-823 -1263h845v-115h-1026v58l826 1262h-803z" />
    <glyph glyph-name="bracketleft" unicode="[" horiz-adv-x="576" 
d="M149 1707h413v-113h-294v-1767h294v-114h-413v1994z" />
    <glyph glyph-name="backslash" unicode="\" horiz-adv-x="1126" 
d="M44 1709h126l912 -1996h-126z" />
    <glyph glyph-name="bracketright" unicode="]" horiz-adv-x="576" 
d="M14 1707h413v-1994h-413v114h294v1767h-294v113z" />
    <glyph glyph-name="braceleft" unicode="{" horiz-adv-x="687" 
d="M388 409v-351c0 -172 127 -231 285 -235v-114c-230 0 -404 113 -404 349v355c0 143 -53 240 -200 241v112c147 1 200 98 200 241v355c0 235 174 349 404 349v-114c-158 -4 -285 -63 -285 -235v-351c0 -104 -28 -254 -140 -301c112 -48 140 -197 140 -301z" />
    <glyph glyph-name="bar" unicode="|" horiz-adv-x="415" 
d="M148 -287v1995h119v-1995h-119z" />
    <glyph glyph-name="braceright" unicode="}" horiz-adv-x="687" 
d="M299 409c0 104 28 253 140 301c-112 47 -140 197 -140 301v351c0 172 -127 231 -285 235v114c230 0 404 -114 404 -349v-355c0 -143 53 -240 200 -241v-112c-147 -1 -200 -98 -200 -241v-355c0 -236 -174 -349 -404 -349v114c158 4 285 63 285 235v351z" />
    <glyph glyph-name="asciitilde" unicode="~" horiz-adv-x="1065" 
d="M224 593h-106c0 142 94 246 233 246c152 0 250 -132 370 -132c84 0 115 69 120 134h106c0 -143 -95 -246 -233 -246c-153 0 -251 132 -371 132c-83 0 -115 -70 -119 -134z" />
    <glyph glyph-name="guillemotleft" unicode="&#xab;" horiz-adv-x="913" 
d="M671 1110h128l-265 -407l265 -407h-128l-268 407zM347 1110h128l-265 -407l265 -407h-128l-268 407z" />
    <glyph glyph-name="guillemotright" unicode="&#xbb;" horiz-adv-x="913" 
d="M114 1110h128l268 -407l-268 -407h-128l265 407zM438 1110h128l268 -407l-268 -407h-128l265 407z" />
    <glyph glyph-name="multiply" unicode="&#xd7;" horiz-adv-x="872" 
d="M436 793l237 242l80 -80l-242 -237l242 -238l-80 -80l-237 242l-236 -240l-80 80l240 236l-241 237l79 80z" />
    <glyph glyph-name="endash" unicode="&#x2013;" horiz-adv-x="1234" 
d="M144 661v112h946v-112h-946z" />
    <glyph glyph-name="quoteleft" unicode="&#x2018;" horiz-adv-x="415" 
d="M207 1435h102l-87 -369h-140z" />
    <glyph glyph-name="quoteright" unicode="&#x2019;" horiz-adv-x="415" 
d="M169 1435h140l-125 -369h-102z" />
    <glyph glyph-name="quotesinglbase" unicode="&#x201a;" horiz-adv-x="415" 
d="M156 155h140l-125 -369h-102z" />
    <glyph glyph-name="quotedblleft" unicode="&#x201c;" horiz-adv-x="643" 
d="M435 1435h102l-87 -369h-139zM207 1435h102l-88 -369h-139z" />
    <glyph glyph-name="quotedblright" unicode="&#x201d;" horiz-adv-x="643" 
d="M169 1435h139l-124 -369h-102zM398 1435h139l-125 -369h-102z" />
    <glyph glyph-name="quotedblbase" unicode="&#x201e;" horiz-adv-x="643" 
d="M156 155h139l-124 -369h-102zM385 155h139l-125 -369h-102z" />
    <glyph glyph-name="guilsinglleft" unicode="&#x2039;" horiz-adv-x="564" 
d="M460 1110l-265 -407l265 -407h-128l-268 407l268 407h128z" />
    <glyph glyph-name="guilsinglright" unicode="&#x203a;" horiz-adv-x="564" 
d="M104 1110h128l268 -407l-268 -407h-128l265 407z" />
    <glyph glyph-name="uni2116" unicode="&#x2116;" horiz-adv-x="2362" 
d="M2233 113v-113h-785v113h785zM2158 678c0 172 -127 348 -318 348c-182 0 -319 -165 -319 -348c0 -174 128 -349 319 -349c182 0 318 165 318 349zM2274 678c0 -235 -179 -458 -434 -458c-243 0 -434 209 -434 458c0 235 179 458 434 458c243 0 434 -210 434 -458z
M1156 1435h119v-1435h-60l-947 1183v-1183h-119v1435h61l946 -1183v1183z" />
    <glyph glyph-name="uni0410" unicode="&#x410;" horiz-adv-x="1362" 
d="M1205 0l-132 321h-782l-133 -321h-129l595 1435h116l593 -1435h-128zM682 1276l-345 -841h688z" />
    <glyph glyph-name="uni0411" unicode="&#x411;" horiz-adv-x="1261" 
d="M1177 397c0 -170 -99 -310 -249 -367c-49 -19 -101 -30 -191 -30h-588v1435h906v-115h-787v-525h469c90 0 142 -11 191 -29c150 -57 249 -200 249 -369zM1059 397c0 123 -70 220 -172 261c-39 16 -81 24 -159 24h-460v-567h460c78 0 120 8 159 24c101 42 172 135 172 258
z" />
    <glyph glyph-name="uni0413" unicode="&#x413;" horiz-adv-x="1134" 
d="M268 0h-119v1435h911v-115h-792v-1320z" />
    <glyph glyph-name="uni0414" unicode="&#x414;" horiz-adv-x="1495" 
d="M1133 1322h-623c0 -192 -1 -412 -28 -630c-26 -205 -68 -401 -171 -579h822v1209zM1253 1435v-1322h198v-408h-119v295h-1181v-295h-121v408h153c97 155 151 362 179 583c32 247 30 511 31 739h860z" />
    <glyph glyph-name="uni0415" unicode="&#x415;" horiz-adv-x="1157" 
d="M149 1435h919v-113h-801v-477h639v-112h-639v-621h801v-112h-919v1435z" />
    <glyph glyph-name="uni0417" unicode="&#x417;" horiz-adv-x="1213" 
d="M44 266l81 87c158 -156 327 -238 505 -238c261 0 380 162 380 308c0 119 -80 258 -296 292c-34 6 -70 9 -154 9h-240v113h243c79 0 112 3 142 8c142 24 226 103 226 216c0 169 -171 259 -348 259c-135 0 -269 -61 -399 -174l-74 93c151 130 310 196 473 196
c305 0 467 -184 467 -374c0 -124 -64 -225 -193 -276c183 -63 272 -202 272 -362c0 -222 -180 -423 -499 -423c-209 0 -400 82 -586 266z" />
    <glyph glyph-name="uni0418" unicode="&#x418;" horiz-adv-x="1418" 
d="M1150 0v1191l-941 -1191h-60v1435h119v-1188l940 1188h61v-1435h-119z" />
    <glyph glyph-name="uni0419" unicode="&#x419;" horiz-adv-x="1418" 
d="M688 1361l-86 67l265 332l85 -68zM1150 0v1191l-941 -1191h-60v1435h119v-1188l940 1188h61v-1435h-119z" />
    <glyph glyph-name="uni041A" unicode="&#x41a;" horiz-adv-x="1216" 
d="M888 1435h174l-682 -598l802 -837h-163l-751 795v-795h-119v1435h119v-556z" />
    <glyph glyph-name="uni041B" unicode="&#x41b;" horiz-adv-x="1463" 
d="M462 1435h852v-1435h-118v1322h-615v-823c0 -70 -5 -130 -17 -190c-37 -172 -149 -309 -347 -309c-66 0 -131 15 -193 49l51 107c45 -25 93 -38 142 -38c121 0 198 70 230 215c10 50 15 101 15 165v937z" />
    <glyph glyph-name="uni041C" unicode="&#x41c;" horiz-adv-x="1693" 
d="M149 1435h61l637 -820l636 820h61v-1435h-119v1178l-579 -750l-578 750v-1178h-119v1435z" />
    <glyph glyph-name="uni041D" unicode="&#x41d;" horiz-adv-x="1404" 
d="M1135 1435h120v-1435h-120v727h-867v-727h-119v1435h119v-594h867v594z" />
    <glyph glyph-name="uni041F" unicode="&#x41f;" horiz-adv-x="1404" 
d="M149 1435h1106v-1435h-120v1321h-867v-1321h-119v1435z" />
    <glyph glyph-name="uni0420" unicode="&#x420;" horiz-adv-x="1249" 
d="M267 0h-118v1435h607c88 0 139 -11 186 -29c142 -57 235 -190 235 -351c0 -160 -93 -294 -235 -351c-47 -18 -98 -29 -186 -29h-489v-675zM267 787h480c75 0 116 9 153 24c94 40 159 128 159 243c0 114 -65 202 -159 242c-37 16 -78 24 -153 24h-480v-533z" />
    <glyph glyph-name="uni0421" unicode="&#x421;" horiz-adv-x="1573" 
d="M1495 941l-112 -38c-75 248 -297 415 -579 415c-348 0 -607 -256 -607 -600s259 -601 607 -601c285 0 508 171 581 423l114 -36c-88 -298 -358 -504 -695 -504c-413 0 -725 309 -725 718c0 407 312 717 725 717c333 0 601 -202 691 -494z" />
    <glyph glyph-name="uni0422" unicode="&#x422;" horiz-adv-x="1277" 
d="M64 1435h1149v-115h-516v-1320h-119v1320h-514v115z" />
    <glyph glyph-name="uni0423" unicode="&#x423;" horiz-adv-x="1317" 
d="M84 1435h135l468 -886l461 886h135l-610 -1157c-49 -92 -74 -140 -121 -186c-59 -58 -134 -92 -228 -92c-75 0 -150 21 -218 65l59 103c50 -33 104 -49 159 -49c127 0 175 87 220 170l78 144z" />
    <glyph glyph-name="uni0424" unicode="&#x424;" horiz-adv-x="1678" 
d="M898 1161v-884c346 12 587 201 587 442c0 240 -241 430 -587 442zM779 277v884c-348 -12 -586 -202 -586 -442c0 -241 238 -430 586 -442zM898 1435v-162c352 -15 706 -197 706 -554s-354 -539 -706 -554v-165h-119v165c-346 13 -705 198 -705 554s359 541 705 554v162
h119z" />
    <glyph glyph-name="uni0425" unicode="&#x425;" horiz-adv-x="1338" 
d="M39 0l556 769l-483 665h147l408 -570l405 570h147l-480 -664l560 -770h-147l-485 676l-482 -676h-146z" />
    <glyph glyph-name="uni0426" unicode="&#x426;" horiz-adv-x="1467" 
d="M1106 1435h119v-1322h198v-408h-119v295h-1155v1435h119v-1322h838v1322z" />
    <glyph glyph-name="uni0427" unicode="&#x427;" horiz-adv-x="1276" 
d="M1009 1435h118v-1435h-118v627c-140 -52 -288 -94 -444 -94c-186 0 -320 59 -392 186c-33 59 -54 135 -54 249v467h118v-475c0 -213 108 -314 338 -314c141 0 277 39 434 99v690z" />
    <glyph glyph-name="uni0428" unicode="&#x428;" horiz-adv-x="1920" 
d="M1650 1435h121v-1435h-1622v1435h119v-1322h631v1322h119v-1322h632v1322z" />
    <glyph glyph-name="uni0429" unicode="&#x429;" horiz-adv-x="1991" 
d="M1630 1435h121v-1322h196v-408h-119v295h-1679v1435h119v-1322h621v1322h119v-1322h622v1322z" />
    <glyph glyph-name="uni042A" unicode="&#x42a;" horiz-adv-x="1445" 
d="M1369 397c0 -170 -99 -310 -249 -367c-49 -19 -101 -30 -191 -30h-588v1321h-307v114h426v-640h469c90 0 142 -11 191 -29c150 -57 249 -200 249 -369zM1251 397c0 123 -70 220 -172 261c-39 16 -81 24 -159 24h-460v-567h460c78 0 120 8 159 24c101 42 172 135 172 258z
" />
    <glyph glyph-name="uni042B" unicode="&#x42b;" horiz-adv-x="1635" 
d="M1059 397c0 123 -70 220 -172 261c-39 16 -81 24 -159 24h-460v-567h460c78 0 120 8 159 24c101 42 172 135 172 258zM1177 397c0 -170 -99 -310 -249 -367c-49 -19 -101 -30 -191 -30h-588v1435h119v-640h469c90 0 142 -11 191 -29c150 -57 249 -200 249 -369z
M1486 1435v-1435h-119v1435h119z" />
    <glyph glyph-name="uni042C" unicode="&#x42c;" horiz-adv-x="1253" 
d="M1059 397c0 123 -70 220 -172 261c-39 16 -81 24 -159 24h-460v-567h460c78 0 120 8 159 24c101 42 172 135 172 258zM1177 397c0 -170 -99 -310 -249 -367c-49 -19 -101 -30 -191 -30h-588v1435h119v-640h469c90 0 142 -11 191 -29c150 -57 249 -200 249 -369z" />
    <glyph glyph-name="uni042D" unicode="&#x42d;" horiz-adv-x="1573" 
d="M564 788h809c-32 308 -280 530 -604 530c-282 0 -504 -167 -579 -415l-112 38c90 292 358 494 691 494c413 0 725 -310 725 -717c0 -409 -312 -718 -725 -718c-337 0 -607 206 -695 504l114 36c73 -252 296 -423 581 -423c333 0 584 235 605 557h-810v114z" />
    <glyph glyph-name="uni042E" unicode="&#x42e;" horiz-adv-x="2015" 
d="M1936 718c0 -408 -312 -718 -725 -718c-394 0 -697 282 -723 663h-220v-663h-119v1435h119v-658h220c29 377 330 658 723 658c413 0 725 -310 725 -717zM1817 718c0 344 -258 601 -606 601s-607 -257 -607 -601s259 -601 607 -601s606 257 606 601z" />
    <glyph glyph-name="uni042F" unicode="&#x42f;" horiz-adv-x="1307" 
d="M598 674l-412 -674h-140l421 675c-56 4 -94 14 -130 29c-66 26 -121 69 -162 124c-47 63 -73 141 -73 227c0 161 93 294 235 350c47 18 98 30 186 30h607v-1435h-118v674h-414zM532 786h480v533h-480c-75 0 -116 -8 -153 -23c-94 -41 -159 -129 -159 -243
c0 -115 65 -203 159 -243c37 -15 78 -24 153 -24z" />
    <glyph glyph-name="uni0401" unicode="&#x401;" horiz-adv-x="1157" 
d="M149 1435h919v-113h-801v-477h639v-112h-639v-621h801v-112h-919v1435zM374 1737h157v-155h-157v155zM688 1737h157v-155h-157v155z" />
    <glyph glyph-name="Ruble" unicode="&#x20bd;" horiz-adv-x="1413" 
d="M294 1435h627c250 0 401 -176 401 -380c0 -203 -152 -379 -401 -379h-509v-135h738v-112h-738v-429h-118v429h-213v112h213v133h-213v112h213v649zM412 1321v-535h500c188 0 292 124 292 268c0 145 -108 267 -292 267h-500z" />
    <glyph glyph-name="uni0430" unicode="&#x430;" horiz-adv-x="1362" 
d="M1205 0l-132 321h-782l-133 -321h-129l595 1435h116l593 -1435h-128zM682 1276l-345 -841h688z" />
    <glyph glyph-name="uni0431" unicode="&#x431;" horiz-adv-x="1261" 
d="M1177 397c0 -170 -99 -310 -249 -367c-49 -19 -101 -30 -191 -30h-588v1435h906v-115h-787v-525h469c90 0 142 -11 191 -29c150 -57 249 -200 249 -369zM1059 397c0 123 -70 220 -172 261c-39 16 -81 24 -159 24h-460v-567h460c78 0 120 8 159 24c101 42 172 135 172 258
z" />
    <glyph glyph-name="uni0433" unicode="&#x433;" horiz-adv-x="1134" 
d="M268 0h-119v1435h911v-115h-792v-1320z" />
    <glyph glyph-name="uni0434" unicode="&#x434;" horiz-adv-x="1495" 
d="M1133 1322h-623c0 -192 -1 -412 -28 -630c-26 -205 -68 -401 -171 -579h822v1209zM1253 1435v-1322h198v-408h-119v295h-1181v-295h-121v408h153c97 155 151 362 179 583c32 247 30 511 31 739h860z" />
    <glyph glyph-name="uni0435" unicode="&#x435;" horiz-adv-x="1157" 
d="M149 1435h919v-113h-801v-477h639v-112h-639v-621h801v-112h-919v1435z" />
    <glyph glyph-name="uni0436" unicode="&#x436;" horiz-adv-x="1877" 
d="M1833 0h-157l-678 798v-798h-119v798l-678 -798h-157l727 838l-617 597h164l561 -554v554h119v-554l561 554h165l-617 -597z" />
    <glyph glyph-name="uni0438" unicode="&#x438;" horiz-adv-x="1418" 
d="M1150 0v1191l-941 -1191h-60v1435h119v-1188l940 1188h61v-1435h-119z" />
    <glyph glyph-name="uni0439" unicode="&#x439;" horiz-adv-x="1418" 
d="M688 1361l-86 67l265 332l85 -68zM1150 0v1191l-941 -1191h-60v1435h119v-1188l940 1188h61v-1435h-119z" />
    <glyph glyph-name="uni043B" unicode="&#x43b;" horiz-adv-x="1463" 
d="M462 1435h852v-1435h-118v1322h-615v-823c0 -70 -5 -130 -17 -190c-37 -172 -149 -309 -347 -309c-66 0 -131 15 -193 49l51 107c45 -25 93 -38 142 -38c121 0 198 70 230 215c10 50 15 101 15 165v937z" />
    <glyph glyph-name="uni043C" unicode="&#x43c;" horiz-adv-x="1693" 
d="M149 1435h61l637 -820l636 820h61v-1435h-119v1178l-579 -750l-578 750v-1178h-119v1435z" />
    <glyph glyph-name="uni043D" unicode="&#x43d;" horiz-adv-x="1404" 
d="M1135 1435h120v-1435h-120v727h-867v-727h-119v1435h119v-594h867v594z" />
    <glyph glyph-name="uni043F" unicode="&#x43f;" horiz-adv-x="1404" 
d="M149 1435h1106v-1435h-120v1321h-867v-1321h-119v1435z" />
    <glyph glyph-name="uni0440" unicode="&#x440;" horiz-adv-x="1249" 
d="M267 0h-118v1435h607c88 0 139 -11 186 -29c142 -57 235 -190 235 -351c0 -160 -93 -294 -235 -351c-47 -18 -98 -29 -186 -29h-489v-675zM267 787h480c75 0 116 9 153 24c94 40 159 128 159 243c0 114 -65 202 -159 242c-37 16 -78 24 -153 24h-480v-533z" />
    <glyph glyph-name="uni0441" unicode="&#x441;" horiz-adv-x="1573" 
d="M1495 941l-112 -38c-75 248 -297 415 -579 415c-348 0 -607 -256 -607 -600s259 -601 607 -601c285 0 508 171 581 423l114 -36c-88 -298 -358 -504 -695 -504c-413 0 -725 309 -725 718c0 407 312 717 725 717c333 0 601 -202 691 -494z" />
    <glyph glyph-name="uni0442" unicode="&#x442;" horiz-adv-x="1277" 
d="M64 1435h1149v-115h-516v-1320h-119v1320h-514v115z" />
    <glyph glyph-name="uni0443" unicode="&#x443;" horiz-adv-x="1317" 
d="M84 1435h135l468 -886l461 886h135l-610 -1157c-49 -92 -74 -140 -121 -186c-59 -58 -134 -92 -228 -92c-75 0 -150 21 -218 65l59 103c50 -33 104 -49 159 -49c127 0 175 87 220 170l78 144z" />
    <glyph glyph-name="uni0444" unicode="&#x444;" horiz-adv-x="1678" 
d="M898 1161v-884c346 12 587 201 587 442c0 240 -241 430 -587 442zM779 277v884c-348 -12 -586 -202 -586 -442c0 -241 238 -430 586 -442zM898 1435v-162c352 -15 706 -197 706 -554s-354 -539 -706 -554v-165h-119v165c-346 13 -705 198 -705 554s359 541 705 554v162
h119z" />
    <glyph glyph-name="uni0445" unicode="&#x445;" horiz-adv-x="1338" 
d="M39 0l556 769l-483 665h147l408 -570l405 570h147l-480 -664l560 -770h-147l-485 676l-482 -676h-146z" />
    <glyph glyph-name="uni0446" unicode="&#x446;" horiz-adv-x="1467" 
d="M1106 1435h119v-1322h198v-408h-119v295h-1155v1435h119v-1322h838v1322z" />
    <glyph glyph-name="uni0447" unicode="&#x447;" horiz-adv-x="1276" 
d="M1009 1435h118v-1435h-118v627c-140 -52 -288 -94 -444 -94c-186 0 -320 59 -392 186c-33 59 -54 135 -54 249v467h118v-475c0 -213 108 -314 338 -314c141 0 277 39 434 99v690z" />
    <glyph glyph-name="uni0448" unicode="&#x448;" horiz-adv-x="1920" 
d="M1650 1435h121v-1435h-1622v1435h119v-1322h631v1322h119v-1322h632v1322z" />
    <glyph glyph-name="uni0449" unicode="&#x449;" horiz-adv-x="1991" 
d="M1630 1435h121v-1322h196v-408h-119v295h-1679v1435h119v-1322h621v1322h119v-1322h622v1322z" />
    <glyph glyph-name="uni044A" unicode="&#x44a;" horiz-adv-x="1445" 
d="M1369 397c0 -170 -99 -310 -249 -367c-49 -19 -101 -30 -191 -30h-588v1321h-307v114h426v-640h469c90 0 142 -11 191 -29c150 -57 249 -200 249 -369zM1251 397c0 123 -70 220 -172 261c-39 16 -81 24 -159 24h-460v-567h460c78 0 120 8 159 24c101 42 172 135 172 258z
" />
    <glyph glyph-name="uni044B" unicode="&#x44b;" horiz-adv-x="1635" 
d="M1059 397c0 123 -70 220 -172 261c-39 16 -81 24 -159 24h-460v-567h460c78 0 120 8 159 24c101 42 172 135 172 258zM1177 397c0 -170 -99 -310 -249 -367c-49 -19 -101 -30 -191 -30h-588v1435h119v-640h469c90 0 142 -11 191 -29c150 -57 249 -200 249 -369z
M1486 1435v-1435h-119v1435h119z" />
    <glyph glyph-name="uni044C" unicode="&#x44c;" horiz-adv-x="1253" 
d="M1059 397c0 123 -70 220 -172 261c-39 16 -81 24 -159 24h-460v-567h460c78 0 120 8 159 24c101 42 172 135 172 258zM1177 397c0 -170 -99 -310 -249 -367c-49 -19 -101 -30 -191 -30h-588v1435h119v-640h469c90 0 142 -11 191 -29c150 -57 249 -200 249 -369z" />
    <glyph glyph-name="uni044D" unicode="&#x44d;" horiz-adv-x="1573" 
d="M564 788h809c-32 308 -280 530 -604 530c-282 0 -504 -167 -579 -415l-112 38c90 292 358 494 691 494c413 0 725 -310 725 -717c0 -409 -312 -718 -725 -718c-337 0 -607 206 -695 504l114 36c73 -252 296 -423 581 -423c333 0 584 235 605 557h-810v114z" />
    <glyph glyph-name="uni044E" unicode="&#x44e;" horiz-adv-x="2015" 
d="M1936 718c0 -408 -312 -718 -725 -718c-394 0 -697 282 -723 663h-220v-663h-119v1435h119v-658h220c29 377 330 658 723 658c413 0 725 -310 725 -717zM1817 718c0 344 -258 601 -606 601s-607 -257 -607 -601s259 -601 607 -601s606 257 606 601z" />
    <glyph glyph-name="uni044F" unicode="&#x44f;" horiz-adv-x="1307" 
d="M598 674l-412 -674h-140l421 675c-56 4 -94 14 -130 29c-66 26 -121 69 -162 124c-47 63 -73 141 -73 227c0 161 93 294 235 350c47 18 98 30 186 30h607v-1435h-118v674h-414zM532 786h480v533h-480c-75 0 -116 -8 -153 -23c-94 -41 -159 -129 -159 -243
c0 -115 65 -203 159 -243c37 -15 78 -24 153 -24z" />
    <glyph glyph-name="uni0451" unicode="&#x451;" horiz-adv-x="1157" 
d="M149 1435h919v-113h-801v-477h639v-112h-639v-621h801v-112h-919v1435zM374 1737h157v-155h-157v155zM688 1737h157v-155h-157v155z" />
    <glyph glyph-name="O" unicode="O" 
d="M1529 718c0 -408 -312 -718 -725 -718s-725 310 -725 718c0 407 312 717 725 717s725 -310 725 -717zM1410 718c0 344 -258 601 -606 601s-607 -257 -607 -601s259 -601 607 -601s606 257 606 601z" />
    <glyph glyph-name="uni041E" unicode="&#x41e;" 
d="M1529 718c0 -408 -312 -718 -725 -718s-725 310 -725 718c0 407 312 717 725 717s725 -310 725 -717zM1410 718c0 344 -258 601 -606 601s-607 -257 -607 -601s259 -601 607 -601s606 257 606 601z" />
    <glyph glyph-name="uni043E" unicode="&#x43e;" 
d="M1529 718c0 -408 -312 -718 -725 -718s-725 310 -725 718c0 407 312 717 725 717s725 -310 725 -717zM1410 718c0 344 -258 601 -606 601s-607 -257 -607 -601s259 -601 607 -601s606 257 606 601z" />
    <glyph glyph-name="emdash" unicode="&#x2014;" horiz-adv-x="1846" 
d="M189 661v113h1468v-113h-1468z" />
    <glyph glyph-name="uni00AD" unicode="&#xad;" horiz-adv-x="1002" 
d="M142 661v113h718v-113h-718z" />
    <glyph glyph-name="uni043A" unicode="&#x43a;" horiz-adv-x="1216" 
d="M888 1435h174l-682 -598l802 -837h-163l-751 795v-795h-119v1435h119v-556z" />
    <glyph glyph-name="uni0416" unicode="&#x416;" horiz-adv-x="1877" 
d="M1833 0h-157l-678 798v-798h-119v798l-678 -798h-157l727 838l-617 597h164l561 -554v554h119v-554l561 554h165l-617 -597z" />
    <glyph glyph-name="M" unicode="M" horiz-adv-x="1693" 
d="M149 1435h61l637 -820l636 820h61v-1435h-119v1178l-579 -750l-578 750v-1178h-119v1435z" />
    <glyph glyph-name="ellipsis" unicode="&#x2026;" horiz-adv-x="1279" 
d="M978 0v155h157v-155h-157zM144 0v155h157v-155h-157zM561 0v155h157v-155h-157z" />
    <glyph glyph-name="questiondown" unicode="&#xbf;" horiz-adv-x="1082" 
d="M470 1160h116c-3 -235 -65 -318 -210 -442c-101 -85 -198 -165 -198 -310c0 -167 133 -295 331 -295c235 0 349 175 351 386h118c-3 -277 -158 -499 -472 -499c-266 0 -447 175 -447 407c0 189 112 284 227 381c138 116 184 163 184 372zM450 1279v156h155v-156h-155z
" />
    <glyph glyph-name="exclamdown" unicode="&#xa1;" horiz-adv-x="433" 
d="M248 1161v-1161h-119v1161h119zM266 1280h-155v155h155v-155z" />
    <glyph glyph-name="ring" unicode="&#x2da;" horiz-adv-x="1052" 
d="M519 1869c101 0 179 -78 179 -179s-78 -180 -179 -180s-179 79 -179 180s78 179 179 179zM519 1776c-49 0 -86 -38 -86 -86c0 -49 37 -86 86 -86s86 37 86 86c0 48 -37 86 -86 86z" />
    <glyph glyph-name="uni0437" unicode="&#x437;" horiz-adv-x="1213" 
d="M44 266l81 87c158 -156 327 -238 505 -238c261 0 380 162 380 308c0 119 -80 258 -296 292c-34 6 -70 9 -154 9h-240v113h243c79 0 112 3 142 8c142 24 226 103 226 216c0 169 -171 259 -348 259c-135 0 -269 -61 -399 -174l-74 93c151 130 310 196 473 196
c305 0 467 -184 467 -374c0 -124 -64 -225 -193 -276c183 -63 272 -202 272 -362c0 -222 -180 -423 -499 -423c-209 0 -400 82 -586 266z" />
    <glyph glyph-name="underscore" unicode="_" horiz-adv-x="1136" 
d="M0 -264v111h1136v-111h-1136z" />
    <glyph glyph-name="perthousand" unicode="&#x2030;" horiz-adv-x="2541" 
d="M1532 1435l-495 -595h-149l490 595h154zM189 0l495 596h149l-490 -596h-154zM460 1329c-146 0 -257 -120 -257 -275c0 -156 109 -274 257 -274c147 0 257 118 257 274c0 155 -110 275 -257 275zM829 1054c0 -218 -162 -384 -369 -384s-369 166 -369 384
c0 213 157 385 369 385s369 -172 369 -385zM1261 105c-146 0 -257 120 -257 275c0 156 109 274 257 274c147 0 257 -118 257 -274c0 -155 -111 -275 -257 -275zM891 380c0 -212 158 -385 370 -385s369 173 369 385c0 218 -162 384 -369 384s-370 -166 -370 -384zM2094 105
c146 0 257 120 257 275c0 156 -110 274 -257 274c-148 0 -257 -118 -257 -274c0 -155 111 -275 257 -275zM1724 380c0 218 163 384 370 384s369 -166 369 -384c0 -212 -157 -385 -369 -385s-370 173 -370 385z" />
    <glyph glyph-name="Oslash" unicode="&#xd8;" 
d="M339 -68h-132l146 216c-169 129 -274 333 -274 570c0 407 312 717 725 717c132 0 254 -32 359 -89l106 157h132l-147 -216c169 -129 275 -333 275 -569c0 -408 -312 -718 -725 -718c-133 0 -255 32 -359 88zM197 718c0 -196 84 -365 221 -473l681 1003
c-86 45 -186 71 -295 71c-348 0 -607 -257 -607 -601zM1410 718c0 196 -84 363 -220 471l-681 -1002c86 -45 186 -70 295 -70c348 0 606 257 606 601z" />
    <glyph glyph-name="cedilla" unicode="&#xb8;" horiz-adv-x="663" 
d="M58 -349l33 96c244 -93 367 -25 367 25c0 42 -72 102 -230 47l-38 50l86 187h97l-70 -141c186 37 260 -59 260 -141c0 -126 -176 -251 -505 -123z" />
    <glyph glyph-name="acute" unicode="&#xb4;" horiz-adv-x="654" 
d="M248 1533l166 291h133l-181 -291h-118z" />
    <glyph glyph-name="tilde" unicode="&#x2dc;" horiz-adv-x="1088" 
d="M886 1799c0 -135 -80 -243 -209 -243c-127 0 -208 132 -289 132c-76 0 -103 -75 -103 -137h-107c0 135 81 243 210 243c126 0 208 -132 289 -132c76 0 103 74 103 137h106z" />
    <glyph glyph-name="dieresis" unicode="&#xa8;" horiz-adv-x="1252" 
d="M730 1736h157v-155h-157v155zM416 1736h157v-155h-157v155z" />
    <glyph glyph-name="germandbls" unicode="&#xdf;" horiz-adv-x="1352" 
d="M259 0h-119v852c0 124 17 198 46 264c81 188 266 318 499 318c200 0 366 -96 458 -244l-414 -348c355 75 546 -136 546 -378c0 -273 -232 -466 -513 -466c-158 0 -312 61 -433 171l77 91c100 -92 226 -146 355 -146c208 0 395 138 395 350c0 156 -107 283 -306 283
c-92 0 -198 -27 -316 -80l-62 97l508 439c-74 73 -178 116 -295 116c-189 0 -344 -110 -402 -275c-16 -46 -24 -96 -24 -195v-849z" />
    <glyph glyph-name="AE" unicode="&#xc6;" horiz-adv-x="1767" 
d="M1678 1322h-785v-476h623v-112h-623v-621h785v-113h-903v322h-471l-148 -322h-132l671 1435h983v-113zM775 1345l-419 -909h419v909z" />
    <glyph glyph-name="OE" unicode="&#x152;" horiz-adv-x="1797" 
d="M1708 1322h-787v-476h625v-111h-625v-622h787v-113h-901c-423 0 -728 316 -728 718c0 398 302 717 728 717h901v-113zM197 718c0 -344 259 -602 607 -604v1206c-348 -1 -607 -257 -607 -602z" />
    <glyph glyph-name="caron" unicode="&#x2c7;" horiz-adv-x="1156" 
d="M241 1813h151l182 -181l182 181h151l-276 -275h-114z" />
    <glyph glyph-name="registered" unicode="&#xae;" horiz-adv-x="811" 
d="M265 1428h171c76 0 114 -48 114 -106c0 -44 -23 -82 -69 -96l80 -135h-84l-73 126h-67v-126h-72v337zM337 1360v-76h89c37 0 51 18 51 38s-14 38 -51 38h-89zM727 1255c0 -187 -135 -324 -321 -324c-187 0 -322 137 -322 324c0 185 135 324 322 324
c186 0 321 -139 321 -324zM658 1255c0 146 -104 255 -252 255c-150 0 -252 -109 -252 -255c0 -148 102 -255 252 -255c148 0 252 107 252 255z" />
    <glyph glyph-name="copyright" unicode="&#xa9;" horiz-adv-x="1845" 
d="M1649 720c0 411 -310 718 -727 720c-414 0 -728 -309 -728 -720c0 -409 312 -721 728 -721c414 0 727 309 727 721zM1761 720c0 -470 -363 -832 -839 -832c-474 0 -838 362 -838 832c0 468 363 830 838 830s839 -361 839 -830zM1456 890l-109 -36
c-54 182 -215 305 -422 305c-256 0 -443 -186 -443 -439s186 -441 443 -441c208 0 370 125 423 311l111 -35c-68 -230 -275 -387 -534 -387c-317 0 -560 234 -560 552c0 314 241 550 560 550c254 0 461 -153 531 -380z" />
    <glyph glyph-name="cent" unicode="&#xa2;" horiz-adv-x="1168" 
d="M640 -195h-109v200c-256 29 -452 234 -452 502c0 269 196 473 452 503v201h109v-199c209 -17 390 -146 449 -353l-108 -34c-45 171 -196 280 -384 280c-231 0 -402 -172 -402 -398c0 -225 171 -397 402 -397c188 0 339 109 384 280l108 -34c-59 -208 -240 -336 -449 -353
v-198z" />
    <glyph glyph-name="trademark" unicode="&#x2122;" horiz-adv-x="1244" 
d="M580 1434h41l235 -286l234 286h41v-537h-82v377l-193 -237l-194 237v-377h-82v537zM509 1434h-434v-76h176v-461h82v461h176v76z" />
    <glyph glyph-name="yen" unicode="&#xa5;" horiz-adv-x="1239" 
d="M1071 356h-393v-356h-119v356h-391v111h391v140h-391v113h324l-442 715h141l429 -701l429 701h140l-444 -715h326v-113h-393v-140h393v-111z" />
    <glyph glyph-name="asciicircum" unicode="^" horiz-adv-x="779" 
d="M34 764l307 671h97l307 -671h-119l-236 537l-237 -537h-119z" />
    <glyph glyph-name="Euro" unicode="&#x20ac;" horiz-adv-x="1694" 
d="M1112 536h-768c74 -249 298 -419 581 -419c285 0 508 171 581 423l114 -36c-88 -298 -358 -504 -695 -504c-349 0 -626 221 -703 536h-177v111h158c-2 23 -3 47 -3 71c0 25 1 50 3 74h-158v113h178c80 311 355 530 702 530c333 0 601 -202 691 -494l-112 -38
c-75 248 -297 415 -579 415c-281 0 -504 -168 -580 -413h767v-113h-790c-2 -24 -4 -49 -4 -74c0 -24 1 -48 4 -71h790v-111z" />
    <glyph glyph-name="sterling" unicode="&#xa3;" horiz-adv-x="1138" 
d="M93 667v109h137c-13 63 -21 124 -21 179c0 311 162 483 427 483c121 0 263 -36 419 -111l-50 -102c-139 67 -255 99 -356 99c-211 0 -322 -122 -322 -370c0 -54 10 -115 22 -178h543v-109h-525c11 -67 22 -137 22 -207c0 -121 -28 -241 -131 -346h777v-114h-953v109
c149 99 188 226 188 358c0 65 -10 134 -21 200h-156z" />
    <glyph glyph-name="dagger" unicode="&#x2020;" horiz-adv-x="1056" 
d="M59 1188v113h410v407h119v-407h409v-113h-409v-1475h-119v1475h-410z" />
    <glyph glyph-name="uni0412" unicode="&#x412;" horiz-adv-x="1289" 
d="M268 820h400c71 0 111 8 146 22c90 38 152 123 152 230c0 109 -62 191 -152 229c-35 15 -75 22 -146 22h-400v-503zM268 112h470c81 0 124 10 163 25c107 43 180 144 180 273c0 128 -74 229 -180 273c-39 16 -82 24 -163 24h-470v-595zM149 0v1435h530
c85 0 134 -10 179 -28c137 -54 226 -183 226 -338c0 -119 -57 -223 -153 -286c163 -54 268 -199 268 -375c0 -175 -102 -321 -258 -380c-49 -18 -101 -28 -194 -28h-598z" />
    <glyph glyph-name="uni0432" unicode="&#x432;" horiz-adv-x="1289" 
d="M268 820h400c71 0 111 8 146 22c90 38 152 123 152 230c0 109 -62 191 -152 229c-35 15 -75 22 -146 22h-400v-503zM268 112h470c81 0 124 10 163 25c107 43 180 144 180 273c0 128 -74 229 -180 273c-39 16 -82 24 -163 24h-470v-595zM149 0v1435h530
c85 0 134 -10 179 -28c137 -54 226 -183 226 -338c0 -119 -57 -223 -153 -286c163 -54 268 -199 268 -375c0 -175 -102 -321 -258 -380c-49 -18 -101 -28 -194 -28h-598z" />
    <glyph glyph-name="Eth" unicode="&#xd0;" horiz-adv-x="1436" 
d="M557 1435c148 0 218 -9 284 -28c305 -85 516 -355 516 -690s-211 -604 -516 -689c-66 -18 -136 -28 -284 -28h-354v728h-158v114h158v593h354zM557 115c140 0 203 10 261 27c250 74 420 296 420 575c0 278 -170 502 -420 576c-58 18 -121 28 -261 28h-235v-479h570v-114
h-570v-613h235z" />
    <glyph glyph-name="eth" unicode="&#xf0;" horiz-adv-x="1436" 
d="M557 1435c148 0 218 -9 284 -28c305 -85 516 -355 516 -690s-211 -604 -516 -689c-66 -18 -136 -28 -284 -28h-354v728h-158v114h158v593h354zM557 115c140 0 203 10 261 27c250 74 420 296 420 575c0 278 -170 502 -420 576c-58 18 -121 28 -261 28h-235v-479h570v-114
h-570v-613h235z" />
    <glyph glyph-name="divide" unicode="&#xf7;" horiz-adv-x="933" 
d="M89 662v111h755v-111h-755zM548 453c0 -42 -36 -81 -82 -81c-42 0 -81 35 -81 81c0 42 34 82 81 82c43 0 82 -37 82 -82zM548 981c0 -42 -36 -81 -82 -81c-42 0 -81 35 -81 81c0 42 34 82 81 82c43 0 82 -36 82 -82z" />
    <glyph glyph-name="currency" unicode="&#xa4;" horiz-adv-x="1140" 
d="M302 713c0 -151 116 -266 268 -266c151 0 268 115 268 266s-117 267 -268 267c-152 0 -268 -116 -268 -267zM947 713c0 -85 -26 -163 -73 -225l182 -181l-80 -80l-181 184c-62 -44 -139 -70 -225 -70c-87 0 -164 26 -225 70l-182 -184l-79 80l182 181
c-47 62 -74 140 -74 225s27 164 74 226l-182 181l79 79l182 -183c61 44 138 70 225 70c86 0 163 -26 225 -70l181 183l80 -79l-182 -181c47 -62 73 -141 73 -226z" />
    <glyph glyph-name="mu" unicode="&#xb5;" horiz-adv-x="1132" 
d="M884 1012h114v-1012h-114v194c-69 -114 -189 -194 -332 -194c-129 0 -239 78 -304 178v-788h-114v1622h114v-544c0 -197 142 -356 318 -356c177 0 318 159 318 356v544z" />
    <glyph glyph-name="paragraph" unicode="&#xb6;" horiz-adv-x="1048" 
d="M555 -252v736c-266 1 -474 213 -474 476c0 261 208 473 474 474h344v-1686h-119v1574h-107v-1574h-118z" />
    <glyph glyph-name="section" unicode="&#xa7;" horiz-adv-x="1293" 
d="M1068 652c0 184 -184 230 -411 277c-116 23 -251 50 -348 114c-56 -47 -85 -111 -85 -178c0 -172 176 -209 407 -261c115 -27 257 -60 359 -133c51 49 78 113 78 181zM1186 649c0 -99 -40 -189 -115 -259c34 -48 54 -106 54 -176c0 -215 -187 -375 -479 -375
c-187 0 -386 79 -538 239l81 83c124 -147 294 -207 459 -208c233 0 359 118 359 260c0 173 -183 225 -412 278c-214 49 -488 98 -488 375c0 95 40 183 116 254c-34 44 -55 100 -55 170c1 196 182 350 451 351c181 0 355 -73 485 -216l-84 -79c-103 127 -246 181 -397 181
c-214 0 -337 -111 -337 -234c0 -162 174 -205 407 -251c207 -42 493 -101 493 -393z" />
    <glyph glyph-name="bullet" unicode="&#x2022;" horiz-adv-x="579" 
d="M425 697c0 -76 -57 -136 -135 -136s-136 59 -136 136c0 80 59 135 136 135c75 0 135 -55 135 -135z" />
    <glyph glyph-name="uni040F" unicode="&#x40f;" horiz-adv-x="1404" 
d="M1255 0h-493v-295h-119v295h-494v1435h119v-1321h867v1321h120v-1435z" />
    <glyph glyph-name="Germandbls" unicode="&#x1e9e;" horiz-adv-x="1352" 
d="M259 0h-119v852c0 124 17 198 46 264c81 188 266 318 499 318c200 0 366 -96 458 -244l-414 -348c355 75 546 -136 546 -378c0 -273 -232 -466 -513 -466c-158 0 -312 61 -433 171l77 91c100 -92 226 -146 355 -146c208 0 395 138 395 350c0 156 -107 283 -306 283
c-92 0 -198 -27 -316 -80l-62 97l508 439c-74 73 -178 116 -295 116c-189 0 -344 -110 -402 -275c-16 -46 -24 -96 -24 -195v-849z" />
    <glyph glyph-name="ordmasculine" unicode="&#xba;" horiz-adv-x="845" 
d="M422 1333c-140 0 -237 -112 -237 -253s97 -253 237 -253c141 0 238 111 238 253s-97 253 -238 253zM74 1080c0 207 149 361 348 361c200 0 349 -154 349 -361s-149 -362 -349 -362c-199 0 -348 155 -348 362z" />
    <glyph glyph-name="ordfeminine" unicode="&#xaa;" horiz-adv-x="865" 
d="M421 1334c-140 0 -236 -110 -236 -256s96 -256 236 -256c141 0 237 110 237 256s-96 256 -237 256zM660 722v116c-59 -86 -148 -123 -239 -123c-182 0 -347 143 -347 363c0 219 165 363 347 363c91 0 180 -38 239 -123v114h111v-710h-111z" />
    <glyph glyph-name="degree" unicode="&#xb0;" horiz-adv-x="781" 
d="M391 1435c176 0 306 -136 306 -306c0 -175 -136 -305 -306 -305c-178 0 -307 136 -307 305c0 173 135 306 307 306zM391 930c111 0 199 85 199 199c0 113 -85 200 -199 200c-112 0 -200 -86 -200 -200c0 -112 85 -199 200 -199z" />
    <glyph glyph-name="minus" unicode="&#x2212;" horiz-adv-x="899" 
d="M89 773h721v-111h-721v111z" />
    <glyph glyph-name="percent.ss02" horiz-adv-x="1721" 
d="M460 1329c-146 0 -257 -120 -257 -275c0 -156 109 -274 257 -274c147 0 257 118 257 274c0 155 -110 275 -257 275zM829 1054c0 -218 -162 -384 -369 -384s-369 166 -369 384c0 213 157 385 369 385s369 -172 369 -385zM1261 105c146 0 257 120 257 275
c0 156 -110 274 -257 274c-148 0 -257 -118 -257 -274c0 -155 111 -275 257 -275zM891 380c0 218 163 384 370 384s369 -166 369 -384c0 -212 -157 -385 -369 -385s-370 173 -370 385zM1387 1435h146l-1198 -1435h-146z" />
    <glyph glyph-name="perthousand.ss02" horiz-adv-x="2541" 
d="M460 1329c-146 0 -257 -120 -257 -275c0 -156 109 -274 257 -274c147 0 257 118 257 274c0 155 -110 275 -257 275zM829 1054c0 -218 -162 -384 -369 -384s-369 166 -369 384c0 213 157 385 369 385s369 -172 369 -385zM1261 105c-146 0 -257 120 -257 275
c0 156 109 274 257 274c147 0 257 -118 257 -274c0 -155 -111 -275 -257 -275zM891 380c0 -212 158 -385 370 -385s369 173 369 385c0 218 -162 384 -369 384s-370 -166 -370 -384zM2094 105c146 0 257 120 257 275c0 156 -110 274 -257 274c-148 0 -257 -118 -257 -274
c0 -155 111 -275 257 -275zM1724 380c0 218 163 384 370 384s369 -166 369 -384c0 -212 -157 -385 -369 -385s-370 173 -370 385zM1387 1435h146l-1198 -1435h-146z" />
    <glyph glyph-name="breve" unicode="&#x2d8;" horiz-adv-x="1156" 
d="M253 1813h107c0 -109 86 -182 214 -182s214 73 214 182h107c0 -159 -123 -289 -321 -289s-321 130 -321 289z" />
    <glyph glyph-name="cyrbreve" unicode="&#xf6d4;" horiz-adv-x="1156" 
d="M258 1803h107c0 -109 84 -182 209 -182s208 73 208 182h106c0 -160 -120 -289 -314 -289s-316 129 -316 289z" />
    <glyph glyph-name="dotaccent" unicode="&#x2d9;" horiz-adv-x="1252" 
d="M573 1736h157v-155h-157v155z" />
    <glyph glyph-name="hryvnia" unicode="&#x20b4;" horiz-adv-x="1432" 
d="M1304 608h-908c-54 -42 -86 -99 -86 -181c0 -163 131 -313 376 -313c173 1 351 83 486 240l84 -80c-163 -185 -371 -274 -570 -274c-297 0 -494 187 -494 422c0 75 17 136 46 186h-136v111h1202v-111zM1304 841h-1202v113h916c37 30 57 69 57 124
c0 130 -117 243 -331 243c-152 0 -309 -58 -415 -156l-75 89c134 118 317 181 486 181c281 -1 453 -159 453 -358c0 -48 -10 -89 -26 -123h137v-113z" />
    <glyph glyph-name="zero.ss02" horiz-adv-x="1307" 
d="M654 1323c-290 0 -431 -311 -431 -606c0 -296 138 -605 431 -605c292 0 430 311 430 605c0 295 -139 606 -430 606zM654 1435c325 0 549 -303 549 -718c0 -419 -228 -717 -549 -717c-324 0 -550 298 -550 717c0 416 226 718 550 718z" />
    <glyph glyph-name="grave" unicode="`" horiz-adv-x="654" 
d="M69 1824h133l166 -291h-118z" />
    <glyph glyph-name="circumflex" unicode="&#x2c6;" horiz-adv-x="1156" 
d="M517 1813h114l276 -275h-151l-182 181l-182 -181h-151z" />
    <glyph glyph-name="uni0490" unicode="&#x490;" horiz-adv-x="1124" 
d="M1060 1659v-338h-792v-1321h-119v1435h793v224h118z" />
    <glyph glyph-name="uni040B" unicode="&#x40b;" horiz-adv-x="1664" 
d="M1487 716c32 -59 53 -135 53 -249v-467h-118v475c0 213 -108 314 -338 314c-127 0 -250 -32 -387 -82v-707h-119v1320h-514v115h1149v-115h-516v-496c127 44 259 78 397 78c186 0 320 -59 393 -186z" />
    <glyph glyph-name="uni040A" unicode="&#x40a;" horiz-adv-x="2159" 
d="M1076 0v700h-808v-700h-119v1435h119v-622h808v622h119v-624h438c93 0 145 -10 194 -28c154 -59 256 -204 256 -378s-102 -317 -256 -376c-49 -18 -101 -29 -194 -29h-557zM1195 115h430c80 0 122 7 161 23c106 44 179 141 179 267c0 128 -73 227 -179 269
c-38 15 -81 24 -161 24h-430v-583z" />
    <glyph glyph-name="uni0409" unicode="&#x409;" horiz-adv-x="2260" 
d="M1928 783c154 -59 256 -204 256 -378s-102 -317 -256 -376c-49 -18 -101 -29 -194 -29h-557v1322h-596v-823c0 -70 -5 -130 -17 -190c-37 -172 -149 -309 -347 -309c-66 0 -131 15 -193 49l51 107c45 -25 93 -38 142 -38c121 0 198 70 230 215c10 50 16 101 16 165v937
h833v-624h438c93 0 145 -10 194 -28zM1887 138c106 44 179 141 179 267c0 128 -73 227 -179 269c-38 15 -81 25 -161 25h-430v-584h430c80 0 122 7 161 23z" />
    <glyph glyph-name="middot" unicode="&#xb7;" horiz-adv-x="415" 
d="M129 637v155h157v-155h-157z" />
    <glyph glyph-name="Aacute" unicode="&#xc1;" horiz-adv-x="1362" 
d="M1205 0l-132 321h-782l-133 -321h-129l595 1435h116l593 -1435h-128zM682 1276l-345 -841h688zM622 1534l166 291h133l-181 -291h-118z" />
    <glyph glyph-name="Acircumflex" unicode="&#xc2;" horiz-adv-x="1362" 
d="M1205 0l-132 321h-782l-133 -321h-129l595 1435h116l593 -1435h-128zM682 1276l-345 -841h688zM625 1814h114l276 -275h-151l-182 181l-182 -181h-151z" />
    <glyph glyph-name="Agrave" unicode="&#xc0;" horiz-adv-x="1362" 
d="M1205 0l-132 321h-782l-133 -321h-129l595 1435h116l593 -1435h-128zM682 1276l-345 -841h688zM443 1824h133l166 -291h-118z" />
    <glyph glyph-name="Adieresis" unicode="&#xc4;" horiz-adv-x="1362" 
d="M1205 0l-132 321h-782l-133 -321h-129l595 1435h116l593 -1435h-128zM682 1276l-345 -841h688zM761 1737h157v-155h-157v155zM447 1737h157v-155h-157v155z" />
    <glyph glyph-name="Aring" unicode="&#xc5;" horiz-adv-x="1362" 
d="M682 1757c118 0 211 -92 211 -210c0 -86 -49 -158 -121 -191l561 -1356h-128l-132 321h-782l-133 -321h-129l562 1356c-72 33 -120 105 -120 191c0 118 93 210 211 210zM682 1276l-345 -841h688zM682 1657c-64 0 -113 -48 -113 -112s49 -112 113 -112s112 48 112 112
s-48 112 -112 112z" />
    <glyph glyph-name="Atilde" unicode="&#xc3;" horiz-adv-x="1362" 
d="M1205 0l-132 321h-782l-133 -321h-129l595 1435h116l593 -1435h-128zM682 1276l-345 -841h688zM1036 1800c0 -135 -80 -243 -209 -243c-127 0 -208 132 -289 132c-76 0 -103 -75 -103 -137h-107c0 135 81 243 210 243c126 0 208 -132 289 -132c76 0 103 74 103 137h106z
" />
    <glyph glyph-name="Ccedilla" unicode="&#xc7;" horiz-adv-x="1573" 
d="M557 -349l33 96c244 -93 367 -25 367 25c0 42 -72 102 -230 47l-38 50l61 133c-386 25 -671 325 -671 716c0 407 312 717 725 717c333 0 601 -202 691 -494l-112 -38c-75 248 -297 415 -579 415c-348 0 -607 -256 -607 -600s259 -601 607 -601c285 0 508 171 581 423
l114 -36c-85 -286 -337 -487 -654 -503l-43 -86c186 37 260 -59 260 -141c0 -126 -176 -251 -505 -123z" />
    <glyph glyph-name="Eacute" unicode="&#xc9;" horiz-adv-x="1157" 
d="M149 1435h919v-113h-801v-477h639v-112h-639v-621h801v-112h-919v1435zM549 1534l166 291h133l-181 -291h-118z" />
    <glyph glyph-name="Ecircumflex" unicode="&#xca;" horiz-adv-x="1157" 
d="M149 1435h919v-113h-801v-477h639v-112h-639v-621h801v-112h-919v1435zM552 1814h114l276 -275h-151l-182 181l-182 -181h-151z" />
    <glyph glyph-name="Edieresis" unicode="&#xcb;" horiz-adv-x="1157" 
d="M149 1435h919v-113h-801v-477h639v-112h-639v-621h801v-112h-919v1435zM688 1737h157v-155h-157v155zM374 1737h157v-155h-157v155z" />
    <glyph glyph-name="Egrave" unicode="&#xc8;" horiz-adv-x="1157" 
d="M149 1435h919v-113h-801v-477h639v-112h-639v-621h801v-112h-919v1435zM370 1824h133l166 -291h-118z" />
    <glyph glyph-name="Iacute" unicode="&#xcd;" horiz-adv-x="417" 
d="M149 0v1435h119v-1435h-119zM148 1534l166 291h133l-181 -291h-118z" />
    <glyph glyph-name="Icircumflex" unicode="&#xce;" horiz-adv-x="417" 
d="M149 0v1435h119v-1435h-119zM151 1814h114l276 -275h-151l-182 181l-182 -181h-151z" />
    <glyph glyph-name="Idieresis" unicode="&#xcf;" horiz-adv-x="417" 
d="M149 0v1435h119v-1435h-119zM287 1737h157v-155h-157v155zM-27 1737h157v-155h-157v155z" />
    <glyph glyph-name="Igrave" unicode="&#xcc;" horiz-adv-x="417" 
d="M149 0v1435h119v-1435h-119zM-31 1824h133l166 -291h-118z" />
    <glyph glyph-name="Ntilde" unicode="&#xd1;" horiz-adv-x="1470" 
d="M268 0h-119v1435h61l992 -1188v1188h119v-1435h-60l-993 1191v-1191zM1094 1800c0 -135 -80 -243 -209 -243c-127 0 -208 132 -289 132c-76 0 -103 -75 -103 -137h-107c0 135 81 243 210 243c126 0 208 -132 289 -132c76 0 103 74 103 137h106z" />
    <glyph glyph-name="Oacute" unicode="&#xd3;" 
d="M1529 718c0 -408 -312 -718 -725 -718s-725 310 -725 718c0 407 312 717 725 717s725 -310 725 -717zM1410 718c0 344 -258 601 -606 601s-607 -257 -607 -601s259 -601 607 -601s606 257 606 601zM744 1534l166 291h133l-181 -291h-118z" />
    <glyph glyph-name="Ocircumflex" unicode="&#xd4;" 
d="M1529 718c0 -408 -312 -718 -725 -718s-725 310 -725 718c0 407 312 717 725 717s725 -310 725 -717zM1410 718c0 344 -258 601 -606 601s-607 -257 -607 -601s259 -601 607 -601s606 257 606 601zM747 1814h114l276 -275h-151l-182 181l-182 -181h-151z" />
    <glyph glyph-name="Odieresis" unicode="&#xd6;" 
d="M1529 718c0 -408 -312 -718 -725 -718s-725 310 -725 718c0 407 312 717 725 717s725 -310 725 -717zM1410 718c0 344 -258 601 -606 601s-607 -257 -607 -601s259 -601 607 -601s606 257 606 601zM883 1737h157v-155h-157v155zM569 1737h157v-155h-157v155z" />
    <glyph glyph-name="Ograve" unicode="&#xd2;" 
d="M1529 718c0 -408 -312 -718 -725 -718s-725 310 -725 718c0 407 312 717 725 717s725 -310 725 -717zM1410 718c0 344 -258 601 -606 601s-607 -257 -607 -601s259 -601 607 -601s606 257 606 601zM565 1824h133l166 -291h-118z" />
    <glyph glyph-name="Otilde" unicode="&#xd5;" 
d="M1529 718c0 -408 -312 -718 -725 -718s-725 310 -725 718c0 407 312 717 725 717s725 -310 725 -717zM1410 718c0 344 -258 601 -606 601s-607 -257 -607 -601s259 -601 607 -601s606 257 606 601zM1158 1800c0 -135 -80 -243 -209 -243c-127 0 -208 132 -289 132
c-76 0 -103 -75 -103 -137h-107c0 135 81 243 210 243c126 0 208 -132 289 -132c76 0 103 74 103 137h106z" />
    <glyph glyph-name="Scaron" unicode="&#x160;" horiz-adv-x="1208" 
d="M63 274l85 80c134 -157 312 -239 485 -240c245 0 376 150 376 313c0 203 -200 256 -418 301c-229 47 -482 96 -482 349c0 199 172 357 453 358c169 0 354 -75 486 -217l-82 -80c-104 114 -252 183 -407 183c-215 0 -332 -113 -332 -243c0 -153 159 -189 400 -237
c194 -39 501 -103 501 -419c0 -235 -198 -422 -495 -422c-199 0 -407 89 -570 274zM245 1814h151l182 -181l182 181h151l-276 -275h-114z" />
    <glyph glyph-name="Uacute" unicode="&#xda;" horiz-adv-x="1376" 
d="M144 1435h119v-850c0 -99 9 -149 25 -195c57 -165 211 -275 399 -275c189 0 344 110 402 275c16 46 24 96 24 195v850h119v-853c0 -124 -16 -198 -45 -264c-81 -189 -267 -318 -500 -318c-232 0 -418 129 -499 318c-28 66 -44 140 -44 264v853zM628 1534l166 291h133
l-181 -291h-118z" />
    <glyph glyph-name="Ucircumflex" unicode="&#xdb;" horiz-adv-x="1376" 
d="M144 1435h119v-850c0 -99 9 -149 25 -195c57 -165 211 -275 399 -275c189 0 344 110 402 275c16 46 24 96 24 195v850h119v-853c0 -124 -16 -198 -45 -264c-81 -189 -267 -318 -500 -318c-232 0 -418 129 -499 318c-28 66 -44 140 -44 264v853zM631 1814h114l276 -275
h-151l-182 181l-182 -181h-151z" />
    <glyph glyph-name="Udieresis" unicode="&#xdc;" horiz-adv-x="1376" 
d="M144 1435h119v-850c0 -99 9 -149 25 -195c57 -165 211 -275 399 -275c189 0 344 110 402 275c16 46 24 96 24 195v850h119v-853c0 -124 -16 -198 -45 -264c-81 -189 -267 -318 -500 -318c-232 0 -418 129 -499 318c-28 66 -44 140 -44 264v853zM453 1737h157v-155h-157
v155zM767 1737h157v-155h-157v155z" />
    <glyph glyph-name="Ugrave" unicode="&#xd9;" horiz-adv-x="1376" 
d="M144 1435h119v-850c0 -99 9 -149 25 -195c57 -165 211 -275 399 -275c189 0 344 110 402 275c16 46 24 96 24 195v850h119v-853c0 -124 -16 -198 -45 -264c-81 -189 -267 -318 -500 -318c-232 0 -418 129 -499 318c-28 66 -44 140 -44 264v853zM449 1824h133l166 -291
h-118z" />
    <glyph glyph-name="Yacute" unicode="&#xdd;" horiz-adv-x="1217" 
d="M667 0h-119v612l-509 823h141l429 -701l429 701h140l-511 -823v-612zM549 1534l166 291h133l-181 -291h-118z" />
    <glyph glyph-name="Ydieresis" unicode="&#x178;" horiz-adv-x="1217" 
d="M667 0h-119v612l-509 823h141l429 -701l429 701h140l-511 -823v-612zM688 1737h157v-155h-157v155zM374 1737h157v-155h-157v155z" />
    <glyph glyph-name="Zacute" unicode="&#x179;" horiz-adv-x="1204" 
d="M112 1320v115h981v-57l-823 -1263h845v-115h-1026v58l826 1262h-803zM542 1534l166 291h133l-181 -291h-118z" />
    <glyph glyph-name="Zcaron" unicode="&#x17d;" horiz-adv-x="1204" 
d="M112 1320v115h981v-57l-823 -1263h845v-115h-1026v58l826 1262h-803zM269 1814h151l182 -181l182 181h151l-276 -275h-114z" />
    <glyph glyph-name="a" unicode="a" horiz-adv-x="1362" 
d="M1205 0l-132 321h-782l-133 -321h-129l595 1435h116l593 -1435h-128zM682 1276l-345 -841h688z" />
    <glyph glyph-name="aacute" unicode="&#xe1;" horiz-adv-x="1362" 
d="M1205 0l-132 321h-782l-133 -321h-129l595 1435h116l593 -1435h-128zM682 1276l-345 -841h688zM622 1534l166 291h133l-181 -291h-118z" />
    <glyph glyph-name="acircumflex" unicode="&#xe2;" horiz-adv-x="1362" 
d="M1205 0l-132 321h-782l-133 -321h-129l595 1435h116l593 -1435h-128zM682 1276l-345 -841h688zM625 1814h114l276 -275h-151l-182 181l-182 -181h-151z" />
    <glyph glyph-name="agrave" unicode="&#xe0;" horiz-adv-x="1362" 
d="M1205 0l-132 321h-782l-133 -321h-129l595 1435h116l593 -1435h-128zM682 1276l-345 -841h688zM443 1824h133l166 -291h-118z" />
    <glyph glyph-name="adieresis" unicode="&#xe4;" horiz-adv-x="1362" 
d="M1205 0l-132 321h-782l-133 -321h-129l595 1435h116l593 -1435h-128zM682 1276l-345 -841h688zM761 1737h157v-155h-157v155zM447 1737h157v-155h-157v155z" />
    <glyph glyph-name="aring" unicode="&#xe5;" horiz-adv-x="1362" 
d="M682 1757c118 0 211 -92 211 -210c0 -86 -49 -158 -121 -191l561 -1356h-128l-132 321h-782l-133 -321h-129l562 1356c-72 33 -120 105 -120 191c0 118 93 210 211 210zM682 1276l-345 -841h688zM682 1657c-64 0 -113 -48 -113 -112s49 -112 113 -112s112 48 112 112
s-48 112 -112 112z" />
    <glyph glyph-name="atilde" unicode="&#xe3;" horiz-adv-x="1362" 
d="M1205 0l-132 321h-782l-133 -321h-129l595 1435h116l593 -1435h-128zM682 1276l-345 -841h688zM1036 1800c0 -135 -80 -243 -209 -243c-127 0 -208 132 -289 132c-76 0 -103 -75 -103 -137h-107c0 135 81 243 210 243c126 0 208 -132 289 -132c76 0 103 74 103 137h106z
" />
    <glyph glyph-name="ae" unicode="&#xe6;" horiz-adv-x="1767" 
d="M1678 1322h-785v-476h623v-112h-623v-621h785v-113h-903v322h-471l-148 -322h-132l671 1435h983v-113zM775 1345l-419 -909h419v909z" />
    <glyph glyph-name="b" unicode="b" horiz-adv-x="1289" 
d="M268 820h400c71 0 111 8 146 22c90 38 152 123 152 230c0 109 -62 191 -152 229c-35 15 -75 22 -146 22h-400v-503zM268 112h470c81 0 124 10 163 25c107 43 180 144 180 273c0 128 -74 229 -180 273c-39 16 -82 24 -163 24h-470v-595zM149 0v1435h530
c85 0 134 -10 179 -28c137 -54 226 -183 226 -338c0 -119 -57 -223 -153 -286c163 -54 268 -199 268 -375c0 -175 -102 -321 -258 -380c-49 -18 -101 -28 -194 -28h-598z" />
    <glyph glyph-name="c" unicode="c" horiz-adv-x="1573" 
d="M1495 941l-112 -38c-75 248 -297 415 -579 415c-348 0 -607 -256 -607 -600s259 -601 607 -601c285 0 508 171 581 423l114 -36c-88 -298 -358 -504 -695 -504c-413 0 -725 309 -725 718c0 407 312 717 725 717c333 0 601 -202 691 -494z" />
    <glyph glyph-name="ccedilla" unicode="&#xe7;" horiz-adv-x="1573" 
d="M557 -349l33 96c244 -93 367 -25 367 25c0 42 -72 102 -230 47l-38 50l61 133c-386 25 -671 325 -671 716c0 407 312 717 725 717c333 0 601 -202 691 -494l-112 -38c-75 248 -297 415 -579 415c-348 0 -607 -256 -607 -600s259 -601 607 -601c285 0 508 171 581 423
l114 -36c-85 -286 -337 -487 -654 -503l-43 -86c186 37 260 -59 260 -141c0 -126 -176 -251 -505 -123z" />
    <glyph glyph-name="d" unicode="d" horiz-adv-x="1382" 
d="M503 115c140 0 203 10 261 27c250 74 420 296 420 575c0 278 -170 502 -420 576c-58 18 -121 28 -261 28h-235v-1206h235zM503 1435c148 0 218 -9 284 -28c305 -85 516 -355 516 -690s-211 -604 -516 -689c-66 -18 -136 -28 -284 -28h-354v1435h354z" />
    <glyph glyph-name="eacute" unicode="&#xe9;" horiz-adv-x="1157" 
d="M149 1435h919v-113h-801v-477h639v-112h-639v-621h801v-112h-919v1435zM549 1534l166 291h133l-181 -291h-118z" />
    <glyph glyph-name="e" unicode="e" horiz-adv-x="1157" 
d="M149 1435h919v-113h-801v-477h639v-112h-639v-621h801v-112h-919v1435z" />
    <glyph glyph-name="ecircumflex" unicode="&#xea;" horiz-adv-x="1157" 
d="M149 1435h919v-113h-801v-477h639v-112h-639v-621h801v-112h-919v1435zM552 1814h114l276 -275h-151l-182 181l-182 -181h-151z" />
    <glyph glyph-name="edieresis" unicode="&#xeb;" horiz-adv-x="1157" 
d="M149 1435h919v-113h-801v-477h639v-112h-639v-621h801v-112h-919v1435zM688 1737h157v-155h-157v155zM374 1737h157v-155h-157v155z" />
    <glyph glyph-name="egrave" unicode="&#xe8;" horiz-adv-x="1157" 
d="M149 1435h919v-113h-801v-477h639v-112h-639v-621h801v-112h-919v1435zM370 1824h133l166 -291h-118z" />
    <glyph glyph-name="f" unicode="f" horiz-adv-x="1132" 
d="M149 1435h919v-113h-801v-477h639v-112h-639v-733h-118v1435z" />
    <glyph glyph-name="g" unicode="g" horiz-adv-x="1594" 
d="M1336 1214l-81 -85c-109 118 -267 190 -451 190c-348 0 -607 -257 -607 -601s259 -601 607 -601c343 0 600 259 596 609h-614v115h724c6 -40 10 -81 10 -123c0 -408 -309 -718 -716 -718c-413 0 -725 310 -725 718c0 407 312 717 725 717c214 0 402 -83 532 -221z" />
    <glyph glyph-name="h" unicode="h" horiz-adv-x="1404" 
d="M1135 1435h120v-1435h-120v727h-867v-727h-119v1435h119v-594h867v594z" />
    <glyph glyph-name="iacute" unicode="&#xed;" horiz-adv-x="417" 
d="M149 0v1435h119v-1435h-119zM148 1534l166 291h133l-181 -291h-118z" />
    <glyph glyph-name="i" unicode="i" horiz-adv-x="417" 
d="M149 0v1435h119v-1435h-119z" />
    <glyph glyph-name="icircumflex" unicode="&#xee;" horiz-adv-x="417" 
d="M149 0v1435h119v-1435h-119zM151 1814h114l276 -275h-151l-182 181l-182 -181h-151z" />
    <glyph glyph-name="idieresis" unicode="&#xef;" horiz-adv-x="417" 
d="M149 0v1435h119v-1435h-119zM287 1737h157v-155h-157v155zM-27 1737h157v-155h-157v155z" />
    <glyph glyph-name="igrave" unicode="&#xec;" horiz-adv-x="417" 
d="M149 0v1435h119v-1435h-119zM-31 1824h133l166 -291h-118z" />
    <glyph glyph-name="j" unicode="j" horiz-adv-x="725" 
d="M24 49l51 107c44 -24 92 -38 141 -38c112 0 195 63 228 160c13 35 19 77 19 138v1019h118v-1019c0 -68 -7 -120 -21 -166c-44 -142 -171 -250 -344 -250c-66 0 -131 16 -192 49z" />
    <glyph glyph-name="k" unicode="k" horiz-adv-x="1235" 
d="M873 1435h164l-491 -511l655 -924h-146l-591 839l-196 -205v-634h-119v1435h119v-636z" />
    <glyph glyph-name="l" unicode="l" horiz-adv-x="1146" 
d="M149 1435h119v-1320h804v-115h-923v1435z" />
    <glyph glyph-name="m" unicode="m" horiz-adv-x="1693" 
d="M149 1435h61l637 -820l636 820h61v-1435h-119v1178l-579 -750l-578 750v-1178h-119v1435z" />
    <glyph glyph-name="ntilde" unicode="&#xf1;" horiz-adv-x="1470" 
d="M268 0h-119v1435h61l992 -1188v1188h119v-1435h-60l-993 1191v-1191zM1094 1800c0 -135 -80 -243 -209 -243c-127 0 -208 132 -289 132c-76 0 -103 -75 -103 -137h-107c0 135 81 243 210 243c126 0 208 -132 289 -132c76 0 103 74 103 137h106z" />
    <glyph glyph-name="n" unicode="n" horiz-adv-x="1470" 
d="M268 0h-119v1435h61l992 -1188v1188h119v-1435h-60l-993 1191v-1191z" />
    <glyph glyph-name="oacute" unicode="&#xf3;" 
d="M1529 718c0 -408 -312 -718 -725 -718s-725 310 -725 718c0 407 312 717 725 717s725 -310 725 -717zM1410 718c0 344 -258 601 -606 601s-607 -257 -607 -601s259 -601 607 -601s606 257 606 601zM744 1534l166 291h133l-181 -291h-118z" />
    <glyph glyph-name="o" unicode="o" 
d="M1529 718c0 -408 -312 -718 -725 -718s-725 310 -725 718c0 407 312 717 725 717s725 -310 725 -717zM1410 718c0 344 -258 601 -606 601s-607 -257 -607 -601s259 -601 607 -601s606 257 606 601z" />
    <glyph glyph-name="ocircumflex" unicode="&#xf4;" 
d="M1529 718c0 -408 -312 -718 -725 -718s-725 310 -725 718c0 407 312 717 725 717s725 -310 725 -717zM1410 718c0 344 -258 601 -606 601s-607 -257 -607 -601s259 -601 607 -601s606 257 606 601zM747 1814h114l276 -275h-151l-182 181l-182 -181h-151z" />
    <glyph glyph-name="odieresis" unicode="&#xf6;" 
d="M1529 718c0 -408 -312 -718 -725 -718s-725 310 -725 718c0 407 312 717 725 717s725 -310 725 -717zM1410 718c0 344 -258 601 -606 601s-607 -257 -607 -601s259 -601 607 -601s606 257 606 601zM883 1737h157v-155h-157v155zM569 1737h157v-155h-157v155z" />
    <glyph glyph-name="ograve" unicode="&#xf2;" 
d="M1529 718c0 -408 -312 -718 -725 -718s-725 310 -725 718c0 407 312 717 725 717s725 -310 725 -717zM1410 718c0 344 -258 601 -606 601s-607 -257 -607 -601s259 -601 607 -601s606 257 606 601zM565 1824h133l166 -291h-118z" />
    <glyph glyph-name="oslash" unicode="&#xf8;" 
d="M339 -68h-132l146 216c-169 129 -274 333 -274 570c0 407 312 717 725 717c132 0 254 -32 359 -89l106 157h132l-147 -216c169 -129 275 -333 275 -569c0 -408 -312 -718 -725 -718c-133 0 -255 32 -359 88zM197 718c0 -196 84 -365 221 -473l681 1003
c-86 45 -186 71 -295 71c-348 0 -607 -257 -607 -601zM1410 718c0 196 -84 363 -220 471l-681 -1002c86 -45 186 -70 295 -70c348 0 606 257 606 601z" />
    <glyph glyph-name="otilde" unicode="&#xf5;" 
d="M1529 718c0 -408 -312 -718 -725 -718s-725 310 -725 718c0 407 312 717 725 717s725 -310 725 -717zM1410 718c0 344 -258 601 -606 601s-607 -257 -607 -601s259 -601 607 -601s606 257 606 601zM1158 1800c0 -135 -80 -243 -209 -243c-127 0 -208 132 -289 132
c-76 0 -103 -75 -103 -137h-107c0 135 81 243 210 243c126 0 208 -132 289 -132c76 0 103 74 103 137h106z" />
    <glyph glyph-name="oe" unicode="&#x153;" horiz-adv-x="1797" 
d="M1708 1322h-787v-476h625v-111h-625v-622h787v-113h-901c-423 0 -728 316 -728 718c0 398 302 717 728 717h901v-113zM197 718c0 -344 259 -602 607 -604v1206c-348 -1 -607 -257 -607 -602z" />
    <glyph glyph-name="p" unicode="p" horiz-adv-x="1249" 
d="M267 0h-118v1435h607c88 0 139 -11 186 -29c142 -57 235 -190 235 -351c0 -160 -93 -294 -235 -351c-47 -18 -98 -29 -186 -29h-489v-675zM267 787h480c75 0 116 9 153 24c94 40 159 128 159 243c0 114 -65 202 -159 242c-37 16 -78 24 -153 24h-480v-533z" />
    <glyph glyph-name="q" unicode="q" 
d="M1529 718c0 -223 -94 -417 -246 -546l170 -227l-96 -71l-169 229c-110 -66 -241 -103 -384 -103c-413 0 -725 310 -725 718c0 407 312 717 725 717s725 -310 725 -717zM1410 718c0 344 -258 601 -606 601s-607 -257 -607 -601s259 -601 607 -601s606 257 606 601z" />
    <glyph glyph-name="r" unicode="r" horiz-adv-x="1307" 
d="M1093 0l-413 674h-413v-674h-118v1435h607c88 0 139 -12 186 -30c142 -56 235 -189 235 -350c0 -86 -26 -164 -73 -227c-41 -55 -96 -98 -162 -124c-36 -15 -75 -25 -130 -29l421 -675h-140zM267 786h480c75 0 116 9 153 24c94 40 159 128 159 243
c0 114 -65 202 -159 243c-37 15 -78 23 -153 23h-480v-533z" />
    <glyph glyph-name="scaron" unicode="&#x161;" horiz-adv-x="1208" 
d="M63 274l85 80c134 -157 312 -239 485 -240c245 0 376 150 376 313c0 203 -200 256 -418 301c-229 47 -482 96 -482 349c0 199 172 357 453 358c169 0 354 -75 486 -217l-82 -80c-104 114 -252 183 -407 183c-215 0 -332 -113 -332 -243c0 -153 159 -189 400 -237
c194 -39 501 -103 501 -419c0 -235 -198 -422 -495 -422c-199 0 -407 89 -570 274zM245 1814h151l182 -181l182 181h151l-276 -275h-114z" />
    <glyph glyph-name="s" unicode="s" horiz-adv-x="1208" 
d="M63 274l85 80c134 -157 312 -239 485 -240c245 0 376 150 376 313c0 203 -200 256 -418 301c-229 47 -482 96 -482 349c0 199 172 357 453 358c169 0 354 -75 486 -217l-82 -80c-104 114 -252 183 -407 183c-215 0 -332 -113 -332 -243c0 -153 159 -189 400 -237
c194 -39 501 -103 501 -419c0 -235 -198 -422 -495 -422c-199 0 -407 89 -570 274z" />
    <glyph glyph-name="t" unicode="t" horiz-adv-x="1277" 
d="M64 1435h1149v-115h-516v-1320h-119v1320h-514v115z" />
    <glyph glyph-name="uacute" unicode="&#xfa;" horiz-adv-x="1376" 
d="M144 1435h119v-850c0 -99 9 -149 25 -195c57 -165 211 -275 399 -275c189 0 344 110 402 275c16 46 24 96 24 195v850h119v-853c0 -124 -16 -198 -45 -264c-81 -189 -267 -318 -500 -318c-232 0 -418 129 -499 318c-28 66 -44 140 -44 264v853zM628 1534l166 291h133
l-181 -291h-118z" />
    <glyph glyph-name="u" unicode="u" horiz-adv-x="1376" 
d="M144 1435h119v-850c0 -99 9 -149 25 -195c57 -165 211 -275 399 -275c189 0 344 110 402 275c16 46 24 96 24 195v850h119v-853c0 -124 -16 -198 -45 -264c-81 -189 -267 -318 -500 -318c-232 0 -418 129 -499 318c-28 66 -44 140 -44 264v853z" />
    <glyph glyph-name="ucircumflex" unicode="&#xfb;" horiz-adv-x="1376" 
d="M144 1435h119v-850c0 -99 9 -149 25 -195c57 -165 211 -275 399 -275c189 0 344 110 402 275c16 46 24 96 24 195v850h119v-853c0 -124 -16 -198 -45 -264c-81 -189 -267 -318 -500 -318c-232 0 -418 129 -499 318c-28 66 -44 140 -44 264v853zM631 1814h114l276 -275
h-151l-182 181l-182 -181h-151z" />
    <glyph glyph-name="udieresis" unicode="&#xfc;" horiz-adv-x="1376" 
d="M144 1435h119v-850c0 -99 9 -149 25 -195c57 -165 211 -275 399 -275c189 0 344 110 402 275c16 46 24 96 24 195v850h119v-853c0 -124 -16 -198 -45 -264c-81 -189 -267 -318 -500 -318c-232 0 -418 129 -499 318c-28 66 -44 140 -44 264v853zM453 1737h157v-155h-157
v155zM767 1737h157v-155h-157v155z" />
    <glyph glyph-name="ugrave" unicode="&#xf9;" horiz-adv-x="1376" 
d="M144 1435h119v-850c0 -99 9 -149 25 -195c57 -165 211 -275 399 -275c189 0 344 110 402 275c16 46 24 96 24 195v850h119v-853c0 -124 -16 -198 -45 -264c-81 -189 -267 -318 -500 -318c-232 0 -418 129 -499 318c-28 66 -44 140 -44 264v853zM449 1824h133l166 -291
h-118z" />
    <glyph glyph-name="v" unicode="v" horiz-adv-x="1365" 
d="M1202 1434h129l-591 -1434h-116l-590 1434h129l519 -1266z" />
    <glyph glyph-name="w" unicode="w" horiz-adv-x="1888" 
d="M59 1434h124l321 -1216l381 1216h117l382 -1216l321 1216h124l-381 -1434h-117l-387 1233l-387 -1233h-117z" />
    <glyph glyph-name="x" unicode="x" horiz-adv-x="1338" 
d="M39 0l556 769l-483 665h147l408 -570l405 570h147l-480 -664l560 -770h-147l-485 676l-482 -676h-146z" />
    <glyph glyph-name="yacute" unicode="&#xfd;" horiz-adv-x="1217" 
d="M667 0h-119v612l-509 823h141l429 -701l429 701h140l-511 -823v-612zM549 1534l166 291h133l-181 -291h-118z" />
    <glyph glyph-name="y" unicode="y" horiz-adv-x="1217" 
d="M667 0h-119v612l-509 823h141l429 -701l429 701h140l-511 -823v-612z" />
    <glyph glyph-name="ydieresis" unicode="&#xff;" horiz-adv-x="1217" 
d="M667 0h-119v612l-509 823h141l429 -701l429 701h140l-511 -823v-612zM688 1737h157v-155h-157v155zM374 1737h157v-155h-157v155z" />
    <glyph glyph-name="zacute" unicode="&#x17a;" horiz-adv-x="1204" 
d="M112 1320v115h981v-57l-823 -1263h845v-115h-1026v58l826 1262h-803zM542 1534l166 291h133l-181 -291h-118z" />
    <glyph glyph-name="z" unicode="z" horiz-adv-x="1204" 
d="M112 1320v115h981v-57l-823 -1263h845v-115h-1026v58l826 1262h-803z" />
    <glyph glyph-name="zcaron" unicode="&#x17e;" horiz-adv-x="1204" 
d="M112 1320v115h981v-57l-823 -1263h845v-115h-1026v58l826 1262h-803zM269 1814h151l182 -181l182 181h151l-276 -275h-114z" />
    <glyph glyph-name="franc" unicode="&#x20a3;" horiz-adv-x="1193" 
d="M210 1435h919v-113h-801v-477h639v-112h-639v-248h448v-111h-448v-374h-118v374h-155v111h155v950z" />
    <glyph glyph-name="Thorn" unicode="&#xde;" horiz-adv-x="1250" 
d="M901 483c94 40 159 128 159 242c0 115 -65 203 -159 243c-37 16 -78 24 -153 24h-481v-533h481c75 0 116 9 153 24zM149 1435h118v-331h490c88 0 139 -10 186 -28c142 -56 235 -191 235 -351c0 -161 -93 -295 -235 -351c-47 -18 -98 -29 -186 -29h-490v-345h-118v1435z
" />
    <glyph glyph-name="thorn" unicode="&#xfe;" horiz-adv-x="1250" 
d="M901 483c94 40 159 128 159 242c0 115 -65 203 -159 243c-37 16 -78 24 -153 24h-481v-533h481c75 0 116 9 153 24zM149 1435h118v-331h490c88 0 139 -10 186 -28c142 -56 235 -191 235 -351c0 -161 -93 -295 -235 -351c-47 -18 -98 -29 -186 -29h-490v-345h-118v1435z
" />
    <glyph glyph-name="uni0406" unicode="&#x406;" horiz-adv-x="417" 
d="M149 0v1435h119v-1435h-119z" />
    <glyph glyph-name="uni0456" unicode="&#x456;" horiz-adv-x="417" 
d="M149 0v1435h119v-1435h-119z" />
    <glyph glyph-name="uni0408" unicode="&#x408;" horiz-adv-x="725" 
d="M24 49l51 107c44 -24 92 -38 141 -38c112 0 195 63 228 160c13 35 19 77 19 138v1019h118v-1019c0 -68 -7 -120 -21 -166c-44 -142 -171 -250 -344 -250c-66 0 -131 16 -192 49z" />
    <glyph glyph-name="uni0458" unicode="&#x458;" horiz-adv-x="725" 
d="M24 49l51 107c44 -24 92 -38 141 -38c112 0 195 63 228 160c13 35 19 77 19 138v1019h118v-1019c0 -68 -7 -120 -21 -166c-44 -142 -171 -250 -344 -250c-66 0 -131 16 -192 49z" />
    <glyph glyph-name="uni0405" unicode="&#x405;" horiz-adv-x="1208" 
d="M63 274l85 80c134 -157 312 -239 485 -240c245 0 376 150 376 313c0 203 -200 256 -418 301c-229 47 -482 96 -482 349c0 199 172 357 453 358c169 0 354 -75 486 -217l-82 -80c-104 114 -252 183 -407 183c-215 0 -332 -113 -332 -243c0 -153 159 -189 400 -237
c194 -39 501 -103 501 -419c0 -235 -198 -422 -495 -422c-199 0 -407 89 -570 274z" />
    <glyph glyph-name="uni0455" unicode="&#x455;" horiz-adv-x="1208" 
d="M63 274l85 80c134 -157 312 -239 485 -240c245 0 376 150 376 313c0 203 -200 256 -418 301c-229 47 -482 96 -482 349c0 199 172 357 453 358c169 0 354 -75 486 -217l-82 -80c-104 114 -252 183 -407 183c-215 0 -332 -113 -332 -243c0 -153 159 -189 400 -237
c194 -39 501 -103 501 -419c0 -235 -198 -422 -495 -422c-199 0 -407 89 -570 274z" />
    <glyph glyph-name="uni0407" unicode="&#x407;" horiz-adv-x="417" 
d="M149 0v1435h119v-1435h-119zM-27 1737h157v-155h-157v155zM287 1737h157v-155h-157v155z" />
    <glyph glyph-name="uni0457" unicode="&#x457;" horiz-adv-x="417" 
d="M149 0v1435h119v-1435h-119zM-27 1737h157v-155h-157v155zM287 1737h157v-155h-157v155z" />
    <glyph glyph-name="uni045F" unicode="&#x45f;" horiz-adv-x="1404" 
d="M1255 0h-493v-295h-119v295h-494v1435h119v-1321h867v1321h120v-1435z" />
    <glyph glyph-name="uni0459" unicode="&#x459;" horiz-adv-x="2260" 
d="M1928 783c154 -59 256 -204 256 -378s-102 -317 -256 -376c-49 -18 -101 -29 -194 -29h-557v1322h-596v-823c0 -70 -5 -130 -17 -190c-37 -172 -149 -309 -347 -309c-66 0 -131 15 -193 49l51 107c45 -25 93 -38 142 -38c121 0 198 70 230 215c10 50 16 101 16 165v937
h833v-624h438c93 0 145 -10 194 -28zM1887 138c106 44 179 141 179 267c0 128 -73 227 -179 269c-38 15 -81 25 -161 25h-430v-584h430c80 0 122 7 161 23z" />
    <glyph glyph-name="uni045A" unicode="&#x45a;" horiz-adv-x="2159" 
d="M1076 0v700h-808v-700h-119v1435h119v-622h808v622h119v-624h438c93 0 145 -10 194 -28c154 -59 256 -204 256 -378s-102 -317 -256 -376c-49 -18 -101 -29 -194 -29h-557zM1195 115h430c80 0 122 7 161 23c106 44 179 141 179 267c0 128 -73 227 -179 269
c-38 15 -81 24 -161 24h-430v-583z" />
    <glyph glyph-name="uni045B" unicode="&#x45b;" horiz-adv-x="1664" 
d="M1487 716c32 -59 53 -135 53 -249v-467h-118v475c0 213 -108 314 -338 314c-127 0 -250 -32 -387 -82v-707h-119v1320h-514v115h1149v-115h-516v-496c127 44 259 78 397 78c186 0 320 -59 393 -186z" />
    <glyph glyph-name="uni0491" unicode="&#x491;" horiz-adv-x="1124" 
d="M1060 1659v-338h-792v-1321h-119v1435h793v224h118z" />
    <glyph glyph-name="cyrdieresis" horiz-adv-x="1252" 
d="M416 1736h157v-155h-157v155zM730 1736h157v-155h-157v155z" />
    <glyph glyph-name="cyracute" horiz-adv-x="654" 
d="M248 1533l166 291h133l-181 -291h-118z" />
    <glyph glyph-name="cyrgrave" horiz-adv-x="654" 
d="M69 1824h133l166 -291h-118z" />
    <glyph glyph-name="uni0403" unicode="&#x403;" horiz-adv-x="1134" 
d="M268 0h-119v1435h911v-115h-792v-1320zM544 1534l166 291h133l-181 -291h-118z" />
    <glyph glyph-name="uni0453" unicode="&#x453;" horiz-adv-x="1134" 
d="M268 0h-119v1435h911v-115h-792v-1320zM544 1534l166 291h133l-181 -291h-118z" />
    <glyph glyph-name="uni0404" unicode="&#x404;" horiz-adv-x="1573" 
d="M1385 540l114 -36c-88 -298 -358 -504 -695 -504c-413 0 -725 309 -725 718c0 407 312 717 725 717c333 0 601 -202 691 -494l-112 -38c-75 248 -297 415 -579 415c-324 0 -572 -222 -605 -530h810v-114h-811c21 -322 273 -557 606 -557c285 0 508 171 581 423z" />
    <glyph glyph-name="uni0454" unicode="&#x454;" horiz-adv-x="1573" 
d="M1385 540l114 -36c-88 -298 -358 -504 -695 -504c-413 0 -725 309 -725 718c0 407 312 717 725 717c333 0 601 -202 691 -494l-112 -38c-75 248 -297 415 -579 415c-324 0 -572 -222 -605 -530h810v-114h-811c21 -322 273 -557 606 -557c285 0 508 171 581 423z" />
    <glyph glyph-name="uni040C.001" horiz-adv-x="1216" 
d="M888 1435h174l-682 -598l802 -837h-163l-751 795v-795h-119v1435h119v-556zM328 1824h133l166 -291h-118z" />
    <glyph glyph-name="uni040C" unicode="&#x40c;" horiz-adv-x="1216" 
d="M888 1435h174l-682 -598l802 -837h-163l-751 795v-795h-119v1435h119v-556zM507 1534l166 291h133l-181 -291h-118z" />
    <glyph glyph-name="uni045C" unicode="&#x45c;" horiz-adv-x="1216" 
d="M888 1435h174l-682 -598l802 -837h-163l-751 795v-795h-119v1435h119v-556zM507 1534l166 291h133l-181 -291h-118z" />
    <glyph glyph-name="uni040E" unicode="&#x40e;" horiz-adv-x="1317" 
d="M84 1435h135l468 -886l461 886h135l-610 -1157c-49 -92 -74 -140 -121 -186c-59 -58 -134 -92 -228 -92c-75 0 -150 21 -218 65l59 103c50 -33 104 -49 159 -49c127 0 175 87 220 170l78 144zM371 1748h107c0 -109 84 -182 209 -182s208 73 208 182h106
c0 -160 -120 -289 -314 -289s-316 129 -316 289z" />
    <glyph glyph-name="uni045E" unicode="&#x45e;" horiz-adv-x="1317" 
d="M84 1435h135l468 -886l461 886h135l-610 -1157c-49 -92 -74 -140 -121 -186c-59 -58 -134 -92 -228 -92c-75 0 -150 21 -218 65l59 103c50 -33 104 -49 159 -49c127 0 175 87 220 170l78 144zM371 1748h107c0 -109 84 -182 209 -182s208 73 208 182h106
c0 -160 -120 -289 -314 -289s-316 129 -316 289z" />
    <glyph glyph-name="uni0419.ss02" horiz-adv-x="1418" 
d="M1150 0v1191l-941 -1191h-60v1435h119v-1188l940 1188h61v-1435h-119zM410 1748h107c0 -109 84 -182 209 -182s208 73 208 182h106c0 -160 -120 -289 -314 -289s-316 129 -316 289z" />
    <glyph glyph-name="Euro.ss02" horiz-adv-x="1694" 
d="M1112 536h-768c74 -249 298 -419 581 -419c285 0 508 171 581 423l114 -36c-88 -298 -358 -504 -695 -504c-349 0 -626 221 -703 536h-177v111h1067v-111zM1112 792h-1067v113h178c80 311 355 530 702 530c333 0 601 -202 691 -494l-112 -38c-75 248 -297 415 -579 415
c-281 0 -504 -168 -580 -413h767v-113z" />
    <glyph glyph-name="yen.ss02" horiz-adv-x="1239" 
d="M1071 607h-903v113h324l-442 715h141l429 -701l429 701h140l-444 -715h326v-113zM1071 356h-393v-356h-119v356h-391v111h903v-111z" />
    <glyph glyph-name="Ruble.ss02" horiz-adv-x="1413" 
d="M81 676v110h213v649h627c250 0 401 -176 401 -380c0 -203 -152 -379 -401 -379h-840zM412 786h500c188 0 292 124 292 268c0 145 -108 267 -292 267h-500v-535zM1150 429h-738v-429h-118v429h-213v112h1069v-112z" />
    <glyph glyph-name="uni0402" unicode="&#x402;" horiz-adv-x="1646" 
d="M1213 1321h-516v-496c123 42 257 78 388 78c140 0 253 -49 334 -126c92 -86 143 -209 143 -336c0 -210 -127 -389 -360 -430c-46 -8 -94 -11 -143 -11h-118v114h118c37 0 74 2 110 7c183 28 274 159 274 320c0 188 -130 348 -382 348c-122 0 -247 -39 -364 -81v-708h-119
v1321h-514v114h1149v-114z" />
    <glyph glyph-name="uni0452" unicode="&#x452;" horiz-adv-x="1646" 
d="M1213 1321h-516v-496c123 42 257 78 388 78c140 0 253 -49 334 -126c92 -86 143 -209 143 -336c0 -210 -127 -389 -360 -430c-46 -8 -94 -11 -143 -11h-118v114h118c37 0 74 2 110 7c183 28 274 159 274 320c0 188 -130 348 -382 348c-122 0 -247 -39 -364 -81v-708h-119
v1321h-514v114h1149v-114z" />
    <glyph glyph-name="uni045D" unicode="&#x45d;" horiz-adv-x="1418" 
d="M1150 0v1191l-941 -1191h-60v1435h119v-1188l940 1188h61v-1435h-119zM499 1769h133l166 -291h-118z" />
    <glyph glyph-name="uni040D" unicode="&#x40d;" horiz-adv-x="1418" 
d="M1150 0v1191l-941 -1191h-60v1435h119v-1188l940 1188h61v-1435h-119zM499 1769h133l166 -291h-118z" />
    <glyph glyph-name="uni0450" unicode="&#x450;" horiz-adv-x="1157" 
d="M149 1435h919v-113h-801v-477h639v-112h-639v-621h801v-112h-919v1435zM370 1824h133l166 -291h-118z" />
    <glyph glyph-name="uni0400" unicode="&#x400;" horiz-adv-x="1157" 
d="M149 1435h919v-113h-801v-477h639v-112h-639v-621h801v-112h-919v1435zM370 1824h133l166 -291h-118z" />
    <glyph glyph-name="K.ss02" horiz-adv-x="1216" 
d="M888 1435h174l-682 -598l802 -837h-163l-751 795v-795h-119v1435h119v-556z" />
    <glyph glyph-name="Gbreve" unicode="&#x11e;" horiz-adv-x="1594" 
d="M1336 1214l-81 -85c-109 118 -267 190 -451 190c-348 0 -607 -257 -607 -601s259 -601 607 -601c343 0 600 259 596 609h-614v115h724c6 -40 10 -81 10 -123c0 -408 -309 -718 -716 -718c-413 0 -725 310 -725 718c0 407 312 717 725 717c214 0 402 -83 532 -221z
M483 1814h107c0 -109 86 -182 214 -182s214 73 214 182h107c0 -159 -123 -289 -321 -289s-321 130 -321 289z" />
    <glyph glyph-name="gbreve" unicode="&#x11f;" horiz-adv-x="1594" 
d="M1336 1214l-81 -85c-109 118 -267 190 -451 190c-348 0 -607 -257 -607 -601s259 -601 607 -601c343 0 600 259 596 609h-614v115h724c6 -40 10 -81 10 -123c0 -408 -309 -718 -716 -718c-413 0 -725 310 -725 718c0 407 312 717 725 717c214 0 402 -83 532 -221z
M483 1814h107c0 -109 86 -182 214 -182s214 73 214 182h107c0 -159 -123 -289 -321 -289s-321 130 -321 289z" />
    <glyph glyph-name="Scedilla" unicode="&#x15e;" horiz-adv-x="1208" 
d="M331 -349l33 96c244 -93 367 -25 367 25c0 42 -72 102 -230 47l-38 50l64 139c-165 26 -330 113 -464 266l85 80c134 -157 312 -239 485 -240c245 0 376 150 376 313c0 203 -200 256 -418 301c-229 47 -482 96 -482 349c0 199 172 357 453 358c169 0 354 -75 486 -217
l-82 -80c-104 114 -252 183 -407 183c-215 0 -332 -113 -332 -243c0 -153 159 -189 400 -237c194 -39 501 -103 501 -419c0 -235 -198 -422 -495 -422h-15l-42 -85c186 37 260 -59 260 -141c0 -126 -176 -251 -505 -123z" />
    <glyph glyph-name="scedilla" unicode="&#x15f;" horiz-adv-x="1208" 
d="M331 -349l33 96c244 -93 367 -25 367 25c0 42 -72 102 -230 47l-38 50l64 139c-165 26 -330 113 -464 266l85 80c134 -157 312 -239 485 -240c245 0 376 150 376 313c0 203 -200 256 -418 301c-229 47 -482 96 -482 349c0 199 172 357 453 358c169 0 354 -75 486 -217
l-82 -80c-104 114 -252 183 -407 183c-215 0 -332 -113 -332 -243c0 -153 159 -189 400 -237c194 -39 501 -103 501 -419c0 -235 -198 -422 -495 -422h-15l-42 -85c186 37 260 -59 260 -141c0 -126 -176 -251 -505 -123z" />
    <glyph glyph-name="Uring" unicode="&#x16e;" horiz-adv-x="1376" 
d="M144 1435h119v-850c0 -99 9 -149 25 -195c57 -165 211 -275 399 -275c189 0 344 110 402 275c16 46 24 96 24 195v850h119v-853c0 -124 -16 -198 -45 -264c-81 -189 -267 -318 -500 -318c-232 0 -418 129 -499 318c-28 66 -44 140 -44 264v853zM688 1828
c112 0 200 -88 200 -201c0 -112 -88 -201 -200 -201c-113 0 -201 89 -201 201c0 113 88 201 201 201zM688 1729c-59 0 -103 -43 -103 -102s44 -102 103 -102s102 43 102 102s-43 102 -102 102z" />
    <glyph glyph-name="Ccaron" unicode="&#x10c;" horiz-adv-x="1573" 
d="M1495 941l-112 -38c-75 248 -297 415 -579 415c-348 0 -607 -256 -607 -600s259 -601 607 -601c285 0 508 171 581 423l114 -36c-88 -298 -358 -504 -695 -504c-413 0 -725 309 -725 718c0 407 312 717 725 717c333 0 601 -202 691 -494zM471 1814h151l182 -181l182 181
h151l-276 -275h-114z" />
    <glyph glyph-name="Dcaron" unicode="&#x10e;" horiz-adv-x="1382" 
d="M503 115c140 0 203 10 261 27c250 74 420 296 420 575c0 278 -170 502 -420 576c-58 18 -121 28 -261 28h-235v-1206h235zM503 1435c148 0 218 -9 284 -28c305 -85 516 -355 516 -690s-211 -604 -516 -689c-66 -18 -136 -28 -284 -28h-354v1435h354zM321 1814h151
l182 -181l182 181h151l-276 -275h-114z" />
    <glyph glyph-name="Ecaron" unicode="&#x11a;" horiz-adv-x="1157" 
d="M149 1435h919v-113h-801v-477h639v-112h-639v-621h801v-112h-919v1435zM276 1814h151l182 -181l182 181h151l-276 -275h-114z" />
    <glyph glyph-name="Ncaron" unicode="&#x147;" horiz-adv-x="1470" 
d="M268 0h-119v1435h61l992 -1188v1188h119v-1435h-60l-993 1191v-1191zM407 1814h151l182 -181l182 181h151l-276 -275h-114z" />
    <glyph glyph-name="Tcaron" unicode="&#x164;" horiz-adv-x="1277" 
d="M64 1435h1149v-115h-516v-1320h-119v1320h-514v115zM305 1814h151l182 -181l182 181h151l-276 -275h-114z" />
    <glyph glyph-name="ccaron" unicode="&#x10d;" horiz-adv-x="1573" 
d="M1495 941l-112 -38c-75 248 -297 415 -579 415c-348 0 -607 -256 -607 -600s259 -601 607 -601c285 0 508 171 581 423l114 -36c-88 -298 -358 -504 -695 -504c-413 0 -725 309 -725 718c0 407 312 717 725 717c333 0 601 -202 691 -494zM471 1814h151l182 -181l182 181
h151l-276 -275h-114z" />
    <glyph glyph-name="dcaron" unicode="&#x10f;" horiz-adv-x="1382" 
d="M503 115c140 0 203 10 261 27c250 74 420 296 420 575c0 278 -170 502 -420 576c-58 18 -121 28 -261 28h-235v-1206h235zM503 1435c148 0 218 -9 284 -28c305 -85 516 -355 516 -690s-211 -604 -516 -689c-66 -18 -136 -28 -284 -28h-354v1435h354zM321 1814h151
l182 -181l182 181h151l-276 -275h-114z" />
    <glyph glyph-name="ecaron" unicode="&#x11b;" horiz-adv-x="1157" 
d="M149 1435h919v-113h-801v-477h639v-112h-639v-621h801v-112h-919v1435zM276 1814h151l182 -181l182 181h151l-276 -275h-114z" />
    <glyph glyph-name="ncaron" unicode="&#x148;" horiz-adv-x="1470" 
d="M268 0h-119v1435h61l992 -1188v1188h119v-1435h-60l-993 1191v-1191zM407 1814h151l182 -181l182 181h151l-276 -275h-114z" />
    <glyph glyph-name="tcaron" unicode="&#x165;" horiz-adv-x="1277" 
d="M64 1435h1149v-115h-516v-1320h-119v1320h-514v115zM305 1814h151l182 -181l182 181h151l-276 -275h-114z" />
    <glyph glyph-name="uring" unicode="&#x16f;" horiz-adv-x="1376" 
d="M144 1435h119v-850c0 -99 9 -149 25 -195c57 -165 211 -275 399 -275c189 0 344 110 402 275c16 46 24 96 24 195v850h119v-853c0 -124 -16 -198 -45 -264c-81 -189 -267 -318 -500 -318c-232 0 -418 129 -499 318c-28 66 -44 140 -44 264v853zM688 1828
c112 0 200 -88 200 -201c0 -112 -88 -201 -200 -201c-113 0 -201 89 -201 201c0 113 88 201 201 201zM688 1729c-59 0 -103 -43 -103 -102s44 -102 103 -102s102 43 102 102s-43 102 -102 102z" />
    </font>
</defs>
</svg>
