<?xml version="1.0" standalone="no"?>
<!DOCTYPE svg PUBLIC "-//W3C//DTD SVG 20010904//EN"
 "http://www.w3.org/TR/2001/REC-SVG-20010904/DTD/svg10.dtd">
<svg version="1.0" xmlns="http://www.w3.org/2000/svg"
 width="768.000000pt" height="768.000000pt" viewBox="0 0 768.000000 768.000000"
 preserveAspectRatio="xMidYMid meet">
<metadata>
Created by potrace 1.14, written by Peter Selinger 2001-2017
</metadata>
<g transform="translate(0.000000,768.000000) scale(0.100000,-0.100000)"
fill="#000000" stroke="none">
<path d="M20 3840 l0 -3840 3820 0 3820 0 0 3840 0 3840 -3820 0 -3820 0 0
-3840z m4580 3351 c438 -83 844 -336 1110 -693 65 -88 110 -164 529 -890 155
-268 299 -517 321 -553 22 -36 40 -68 40 -71 0 -3 31 -58 69 -122 149 -255
340 -591 376 -661 117 -234 185 -522 185 -791 0 -560 -269 -1098 -718 -1437
-80 -60 -189 -126 -587 -355 -148 -86 -326 -189 -395 -228 -69 -40 -215 -125
-325 -188 -110 -63 -267 -154 -350 -202 -598 -348 -702 -403 -872 -460 -196
-65 -323 -84 -563 -85 -172 0 -224 4 -325 23 -445 85 -848 336 -1115 694 -62
84 -119 178 -436 728 -234 408 -517 897 -711 1235 -83 143 -167 294 -188 335
-118 234 -185 520 -185 790 0 560 269 1098 718 1437 80 60 189 126 587 355
149 86 326 189 395 228 69 40 215 125 325 188 110 63 268 154 350 202 344 200
561 323 654 370 166 84 382 146 601 174 94 11 398 -2 510 -23z"/>
<path d="M4120 6810 c-163 -20 -329 -69 -465 -137 -63 -32 -224 -125 -1190
-683 -464 -268 -552 -319 -705 -407 l-145 -83 1133 -2 1133 -3 113 -195 c61
-107 145 -253 186 -325 40 -71 122 -213 180 -315 59 -102 243 -425 410 -717
167 -293 304 -532 306 -530 13 14 1044 1580 1044 1586 0 5 -62 116 -138 247
-76 132 -225 390 -332 574 -106 184 -216 368 -244 409 -157 228 -401 412 -679
510 -175 62 -434 92 -607 71z"/>
<path d="M1092 5023 c-291 -456 -303 -1002 -30 -1478 28 -49 124 -216 213
-370 89 -154 258 -446 375 -650 672 -1165 637 -1107 760 -1238 237 -252 566
-404 935 -432 86 -7 305 9 332 24 9 4 -5 36 -46 106 -32 55 -154 267 -271 470
-117 204 -286 496 -376 650 -89 154 -204 354 -257 445 -52 91 -133 232 -181
314 -47 82 -86 151 -86 153 0 4 201 357 280 493 98 168 891 1562 896 1575 5
13 -138 15 -1244 15 l-1250 0 -50 -77z"/>
<path d="M6244 4447 c-56 -83 -221 -334 -368 -557 -147 -223 -338 -512 -424
-642 l-157 -237 -1182 -3 -1182 -3 80 -140 c45 -77 141 -243 214 -370 73 -126
249 -430 390 -675 405 -702 457 -790 464 -794 4 -3 198 106 431 241 234 135
556 321 715 413 160 92 436 252 615 355 179 103 358 211 399 239 260 178 458
468 541 790 73 286 56 575 -51 852 -34 86 -97 202 -350 641 -13 24 -26 43 -29
43 -3 0 -50 -69 -106 -153z"/>
</g>
</svg>
