<?xml version="1.0" standalone="no"?>
<!DOCTYPE svg PUBLIC "-//W3C//DTD SVG 20010904//EN"
 "http://www.w3.org/TR/2001/REC-SVG-20010904/DTD/svg10.dtd">
<svg version="1.0" xmlns="http://www.w3.org/2000/svg"
 width="932.000000pt" height="932.000000pt" viewBox="0 0 932.000000 932.000000"
 preserveAspectRatio="xMidYMid meet">
<metadata>
Created by potrace 1.14, written by Peter Selinger 2001-2017
</metadata>
<g transform="translate(0.000000,932.000000) scale(0.100000,-0.100000)"
fill="#000000" stroke="none">
<path d="M2330 6965 l-2325 -2325 2320 -2320 c1276 -1276 2327 -2320 2335
-2320 8 0 1059 1044 2335 2320 l2320 2320 -2325 2325 c-1279 1279 -2327 2325
-2330 2325 -3 0 -1051 -1046 -2330 -2325z m3399 651 l1064 -1064 -233 -693
c-421 -1260 -445 -1329 -452 -1329 -3 0 -428 425 -944 945 -515 519 -941 942
-945 939 -5 -3 -9 -14 -9 -24 0 -10 -4 -22 -10 -25 -6 -4 -7 6 -4 24 l6 30
-68 -19 c-38 -10 -584 -156 -1214 -325 -630 -168 -1154 -309 -1165 -312 -11
-2 637 653 1440 1456 803 804 1462 1461 1465 1461 3 0 484 -479 1069 -1064z
m1486 -4466 l-1490 -1490 -915 915 c-503 503 -912 916 -910 919 3 2 576 157
1273 344 698 187 1272 344 1277 348 4 5 157 459 340 1009 183 550 335 1004
338 1009 2 4 358 -345 791 -778 l786 -786 -1490 -1490z m-3125 2788 c0 -2
-153 -581 -339 -1288 l-339 -1285 1004 -1005 1004 -1005 -380 -380 -380 -380
-2023 2023 -2022 2022 252 252 253 253 1477 396 c1466 394 1493 401 1493 397z"/>
</g>
</svg>
