<?xml version="1.0" standalone="no"?>
<!DOCTYPE svg PUBLIC "-//W3C//DTD SVG 20010904//EN"
 "http://www.w3.org/TR/2001/REC-SVG-20010904/DTD/svg10.dtd">
<svg version="1.0" xmlns="http://www.w3.org/2000/svg"
 width="657.000000pt" height="657.000000pt" viewBox="0 0 657.000000 657.000000"
 preserveAspectRatio="xMidYMid meet">
<metadata>
Created by potrace 1.14, written by Peter Selinger 2001-2017
</metadata>
<g transform="translate(0.000000,657.000000) scale(0.100000,-0.100000)"
fill="#000000" stroke="none">
<path d="M0 3290 l0 -3280 3285 0 3285 0 0 3280 0 3280 -3285 0 -3285 0 0
-3280z m5610 2831 c-49 -92 -1013 -1727 -1019 -1729 -4 -1 -938 67 -2074 153
-1136 85 -2068 155 -2071 155 -3 0 -6 324 -6 720 l0 720 2590 0 c2559 0 2591
0 2580 -19z m530 -3101 l0 -2580 -797 0 -798 1 -476 748 -476 749 1269 1831
c699 1007 1272 1831 1274 1831 2 0 4 -1161 4 -2580z m-3423 -690 c485 -921
908 -1723 938 -1783 l56 -107 -1635 0 -1636 0 0 1770 0 1770 143 1 c78 0 369
7 647 14 278 7 527 12 555 11 l49 -1 883 -1675z"/>
</g>
</svg>
