<?xml version="1.0" standalone="no"?>
<!DOCTYPE svg PUBLIC "-//W3C//DTD SVG 20010904//EN"
 "http://www.w3.org/TR/2001/REC-SVG-20010904/DTD/svg10.dtd">
<svg version="1.0" xmlns="http://www.w3.org/2000/svg"
 width="754.000000pt" height="754.000000pt" viewBox="0 0 754.000000 754.000000"
 preserveAspectRatio="xMidYMid meet">
<metadata>
Created by potrace 1.14, written by Peter Selinger 2001-2017
</metadata>
<g transform="translate(0.000000,754.000000) scale(0.100000,-0.100000)"
fill="#000000" stroke="none">
<path d="M4030 7529 c-217 -24 -435 -88 -635 -183 -126 -61 -2401 -1369 -2516
-1447 -493 -334 -811 -874 -870 -1477 -36 -360 47 -782 216 -1097 70 -133
1343 -2335 1392 -2410 222 -338 525 -595 885 -748 498 -213 1036 -221 1538
-23 52 21 131 57 175 81 133 70 2335 1343 2410 1392 338 222 595 525 748 885
213 498 221 1036 23 1538 -21 52 -57 131 -81 175 -69 130 -1342 2334 -1392
2410 -333 510 -877 842 -1483 905 -111 11 -303 11 -410 -1z m480 -455 c207
-35 420 -122 607 -246 127 -84 320 -271 399 -388 58 -85 797 -1360 797 -1375
0 -13 -1163 -1765 -1172 -1765 -4 0 -305 522 -670 1160 l-662 1160 -1267 2
-1267 3 1125 649 c618 357 1157 664 1197 683 140 64 321 114 488 134 98 11
312 3 425 -17z m-971 -1916 c-7 -13 -300 -527 -651 -1142 -352 -616 -644
-1129 -649 -1140 -9 -18 95 -202 671 -1200 375 -648 684 -1184 686 -1191 15
-39 -378 -53 -561 -21 -215 38 -424 123 -612 248 -127 84 -320 271 -399 388
-70 102 -1387 2384 -1435 2486 -52 109 -94 240 -121 376 -29 148 -31 394 -4
543 36 204 120 417 231 588 l57 87 1399 0 1400 0 -12 -22z m3206 -833 c195
-338 231 -409 275 -545 53 -163 74 -296 74 -480 0 -328 -83 -602 -266 -877
-84 -127 -271 -320 -388 -399 -76 -52 -2395 -1394 -2408 -1394 -4 0 -296 501
-649 1113 l-643 1112 1326 5 1326 5 585 888 c322 488 587 886 588 885 1 -2 82
-142 180 -313z"/>
</g>
</svg>
