<?xml version="1.0" standalone="no"?>
<!DOCTYPE svg PUBLIC "-//W3C//DTD SVG 20010904//EN"
 "http://www.w3.org/TR/2001/REC-SVG-20010904/DTD/svg10.dtd">
<svg version="1.0" xmlns="http://www.w3.org/2000/svg"
 width="657.000000pt" height="657.000000pt" viewBox="0 0 657.000000 657.000000"
 preserveAspectRatio="xMidYMid meet">
<metadata>
Created by potrace 1.14, written by Peter Selinger 2001-2017
</metadata>
<g transform="translate(0.000000,657.000000) scale(0.100000,-0.100000)"
fill="#000000" stroke="none">
<path d="M0 3290 l0 -3280 3285 0 3285 0 0 3280 0 3280 -3285 0 -3285 0 0
-3280z m5611 2823 c-11 -21 -242 -416 -514 -878 -474 -807 -494 -840 -524
-843 -29 -3 -4011 292 -4100 304 l-43 5 0 718 c0 395 3 721 7 724 3 4 1173 7
2600 7 l2593 0 -19 -37z m534 -5671 c-3 -10 -169 -12 -801 -10 l-797 3 -479
752 -479 752 1278 1843 1278 1843 3 -2585 c1 -1422 0 -2591 -3 -2598z m-1745
3604 c0 -11 -1016 -1756 -1024 -1756 -11 -2 -1137 1722 -1130 1729 10 11 2154
37 2154 27z m-1622 -1823 l942 -1788 -1633 -3 c-897 -1 -1638 0 -1645 3 -9 3
-12 368 -12 1775 l0 1770 33 1 c243 7 1082 26 1208 27 l166 2 941 -1787z"/>
</g>
</svg>
